<svg width="370" height="370" viewBox="0 0 370 370" fill="none" xmlns="http://www.w3.org/2000/svg">
<path d="M235 80C231.686 80 229 82.6863 229 86V104C229 107.314 226.314 110 223 110H206C202.686 110 200 112.686 200 116V134C200 137.314 202.686 140 206 140H224C227.314 140 230 137.314 230 134V116C230 112.686 232.686 110 236 110H253C256.314 110 259 107.314 259 104V86C259 82.6863 256.314 80 253 80H235ZM80 254C80 257.314 82.6863 260 86 260H104C107.314 260 110 257.314 110 254V236C110 232.686 107.314 230 104 230H86C82.6863 230 80 232.686 80 236V254ZM200 254C200 257.314 202.686 260 206 260H224C227.314 260 230 257.314 230 254V236C230 232.686 227.314 230 224 230H206C202.686 230 200 232.686 200 236V254ZM170 194C170 197.314 172.686 200 176 200H194C197.314 200 200 197.314 200 194V176C200 172.686 197.314 170 194 170H176C172.686 170 170 172.686 170 176V194ZM230 194C230 197.314 232.686 200 236 200H254C257.314 200 260 197.314 260 194V176C260 172.686 257.314 170 254 170H236C232.686 170 230 172.686 230 176V194ZM110 164C110 167.314 112.686 170 116 170H134C137.314 170 140 167.314 140 164V146C140 142.686 137.314 140 134 140H116C112.686 140 110 142.686 110 146V164ZM170 104C170 107.314 172.686 110 176 110H193C196.314 110 199 107.314 199 104V86C199 82.6863 196.314 80 193 80H176C172.686 80 170 82.6863 170 86V104ZM370 104C370 107.314 367.314 110 364 110H346C342.686 110 340 107.314 340 104V86C340 82.6863 342.686 80 346 80H364C367.314 80 370 82.6863 370 86V104ZM320 74C320 77.3137 317.314 80 314 80H296C292.686 80 290 77.3137 290 74V56C290 52.6863 292.686 50 296 50H314C317.314 50 320 52.6863 320 56V74ZM289 104C289 107.314 286.314 110 283 110H266C262.686 110 260 112.686 260 116V134C260 137.314 262.686 140 266 140H284C287.314 140 290 137.314 290 134V115C290 111.686 292.686 109 296 109H314C317.314 109 320 111.686 320 115V136.818C320 138.575 318.575 140 316.818 140C314.621 140 313.084 142.173 313.745 144.267C315.7 150.451 317.221 156.828 318.273 163.362C318.841 166.891 316.049 170 312.474 170H296C292.686 170 290 172.686 290 176V194C290 197.314 292.686 200 296 200H312.474C316.049 200 318.841 203.111 318.273 206.64C307.917 270.911 252.192 320 185 320C110.442 320 50 259.558 50 185C50 110.442 110.442 50 185 50C216.386 50 245.27 60.7115 268.197 78.6773C269.279 79.5247 270.608 80 271.982 80H283C286.314 80 289 82.6863 289 86V104Z" fill="#721BFF"/>
</svg>
