<svg width="1188" height="669" viewBox="0 0 1188 669" fill="none" xmlns="http://www.w3.org/2000/svg">
<rect width="1188" height="669" fill="#ECFAFF"/>
<mask id="path-1-inside-1_1_84" fill="white">
<path d="M199.5 133C215.101 133 228.736 141.408 236.128 153.938C238.82 153.325 241.622 153 244.5 153C265.211 153 282 169.789 282 190.5C282 191.384 281.966 192.26 281.906 193.128C293.201 194.329 302 203.886 302 215.5C302 227.926 291.926 238 279.5 238C279.333 238 279.166 237.997 279 237.993V238H119V237.993C106.805 237.727 97 227.759 97 215.5C97 203.887 105.798 194.329 117.093 193.128C117.033 192.26 117 191.383 117 190.5C117 169.789 133.789 153 154.5 153C157.378 153 160.179 153.325 162.871 153.938C170.263 141.408 183.899 133 199.5 133Z"/>
</mask>
<path d="M199.5 133C215.101 133 228.736 141.408 236.128 153.938C238.82 153.325 241.622 153 244.5 153C265.211 153 282 169.789 282 190.5C282 191.384 281.966 192.26 281.906 193.128C293.201 194.329 302 203.886 302 215.5C302 227.926 291.926 238 279.5 238C279.333 238 279.166 237.997 279 237.993V238H119V237.993C106.805 237.727 97 227.759 97 215.5C97 203.887 105.798 194.329 117.093 193.128C117.033 192.26 117 191.383 117 190.5C117 169.789 133.789 153 154.5 153C157.378 153 160.179 153.325 162.871 153.938C170.263 141.408 183.899 133 199.5 133Z" fill="white"/>
<path d="M236.128 153.938L234.405 154.955L235.148 156.213L236.573 155.888L236.128 153.938ZM281.906 193.128L279.911 192.99L279.778 194.913L281.695 195.117L281.906 193.128ZM279 237.993L279.044 235.994L277 235.949V237.993H279ZM279 238V240H281V238H279ZM119 238H117V240H119V238ZM119 237.993H121V236.036L119.044 235.994L119 237.993ZM117.093 193.128L117.304 195.117L119.221 194.913L119.088 192.99L117.093 193.128ZM162.871 153.938L162.426 155.888L163.851 156.213L164.594 154.955L162.871 153.938ZM199.5 133V135C214.364 135 227.358 143.009 234.405 154.955L236.128 153.938L237.851 152.922C230.114 139.808 215.838 131 199.5 131V133ZM236.128 153.938L236.573 155.888C239.12 155.308 241.773 155 244.5 155V153V151C241.471 151 238.52 151.342 235.683 151.989L236.128 153.938ZM244.5 153V155C264.106 155 280 170.894 280 190.5H282H284C284 168.685 266.315 151 244.5 151V153ZM282 190.5H280C280 191.333 279.968 192.163 279.911 192.99L281.906 193.128L283.901 193.266C283.964 192.357 284 191.434 284 190.5H282ZM281.906 193.128L281.695 195.117C291.984 196.211 300 204.92 300 215.5H302H304C304 202.853 294.419 192.447 282.118 191.139L281.906 193.128ZM302 215.5H300C300 226.822 290.822 236 279.5 236V238V240C293.031 240 304 229.031 304 215.5H302ZM279.5 238V236C279.356 236 279.209 235.997 279.044 235.994L279 237.993L278.956 239.993C279.124 239.996 279.309 240 279.5 240V238ZM279 237.993H277V238H279H281V237.993H279ZM279 238V236H119V238V240H279V238ZM119 238H121V237.993H119H117V238H119ZM119 237.993L119.044 235.994C107.933 235.751 99 226.669 99 215.5H97H95C95 228.849 105.676 239.703 118.956 239.993L119 237.993ZM97 215.5H99C99 204.92 107.016 196.211 117.304 195.117L117.093 193.128L116.881 191.139C104.581 192.447 95 202.853 95 215.5H97ZM117.093 193.128L119.088 192.99C119.031 192.164 119 191.334 119 190.5H117H115C115 191.433 115.034 192.355 115.098 193.266L117.093 193.128ZM117 190.5H119C119 170.894 134.894 155 154.5 155V153V151C132.685 151 115 168.685 115 190.5H117ZM154.5 153V155C157.227 155 159.879 155.308 162.426 155.888L162.871 153.938L163.316 151.989C160.479 151.342 157.529 151 154.5 151V153ZM162.871 153.938L164.594 154.955C171.641 143.008 184.635 135 199.5 135V133V131C183.162 131 168.885 139.808 161.148 152.922L162.871 153.938Z" fill="black" mask="url(#path-1-inside-1_1_84)"/>
<path d="M147.219 206.224C146.835 206.224 146.526 206.128 146.291 205.936C146.056 205.723 145.864 205.413 145.715 205.008L138.643 184.816C138.494 184.368 138.526 183.995 138.739 183.696C138.974 183.376 139.336 183.216 139.827 183.216C140.19 183.216 140.478 183.312 140.691 183.504C140.904 183.675 141.086 183.952 141.235 184.336L147.859 203.76H146.739L153.491 184.432C153.64 184.027 153.822 183.728 154.035 183.536C154.248 183.323 154.536 183.216 154.899 183.216C155.24 183.216 155.507 183.323 155.699 183.536C155.912 183.728 156.094 184.027 156.243 184.432L162.899 203.76H161.907L168.595 184.336C168.702 183.973 168.862 183.696 169.075 183.504C169.31 183.312 169.608 183.216 169.971 183.216C170.419 183.216 170.75 183.365 170.963 183.664C171.176 183.963 171.198 184.347 171.027 184.816L163.923 205.008C163.774 205.413 163.582 205.723 163.347 205.936C163.134 206.128 162.824 206.224 162.419 206.224C162.035 206.224 161.726 206.128 161.491 205.936C161.278 205.723 161.086 205.413 160.915 205.008L154.483 186.48H155.187L148.691 205.008C148.542 205.413 148.36 205.723 148.147 205.936C147.934 206.128 147.624 206.224 147.219 206.224ZM179.987 206.288C178.344 206.288 176.926 205.968 175.731 205.328C174.558 204.667 173.64 203.739 172.979 202.544C172.339 201.349 172.019 199.92 172.019 198.256C172.019 196.635 172.339 195.227 172.979 194.032C173.619 192.816 174.494 191.867 175.603 191.184C176.734 190.501 178.035 190.16 179.507 190.16C180.552 190.16 181.491 190.341 182.323 190.704C183.155 191.045 183.859 191.547 184.435 192.208C185.032 192.869 185.48 193.669 185.779 194.608C186.099 195.547 186.259 196.603 186.259 197.776C186.259 198.117 186.163 198.373 185.971 198.544C185.779 198.693 185.502 198.768 185.139 198.768H174.003V197.072H184.531L184.019 197.488C184.019 196.336 183.848 195.365 183.507 194.576C183.166 193.765 182.664 193.147 182.003 192.72C181.363 192.293 180.552 192.08 179.571 192.08C178.483 192.08 177.555 192.336 176.787 192.848C176.04 193.339 175.475 194.032 175.091 194.928C174.707 195.803 174.515 196.827 174.515 198V198.192C174.515 200.155 174.984 201.648 175.923 202.672C176.883 203.696 178.238 204.208 179.987 204.208C180.712 204.208 181.427 204.112 182.131 203.92C182.856 203.728 183.56 203.408 184.243 202.96C184.542 202.768 184.808 202.683 185.043 202.704C185.299 202.704 185.502 202.779 185.651 202.928C185.8 203.056 185.896 203.227 185.939 203.44C186.003 203.632 185.982 203.845 185.875 204.08C185.79 204.315 185.608 204.517 185.331 204.688C184.627 205.2 183.795 205.595 182.835 205.872C181.875 206.149 180.926 206.288 179.987 206.288ZM197.882 206.288C196.474 206.288 195.258 205.925 194.234 205.2C193.231 204.475 192.559 203.504 192.218 202.288L192.57 201.936V204.88C192.57 205.307 192.453 205.637 192.218 205.872C192.005 206.107 191.695 206.224 191.29 206.224C190.863 206.224 190.543 206.107 190.33 205.872C190.117 205.637 190.01 205.307 190.01 204.88V184.528C190.01 184.101 190.117 183.781 190.33 183.568C190.543 183.333 190.863 183.216 191.29 183.216C191.695 183.216 192.015 183.333 192.25 183.568C192.485 183.781 192.602 184.101 192.602 184.528V194.064H192.218C192.581 192.869 193.263 191.92 194.266 191.216C195.269 190.512 196.474 190.16 197.882 190.16C199.29 190.16 200.506 190.491 201.53 191.152C202.554 191.792 203.343 192.72 203.898 193.936C204.474 195.131 204.762 196.56 204.762 198.224C204.762 199.867 204.474 201.296 203.898 202.512C203.343 203.707 202.543 204.635 201.498 205.296C200.474 205.957 199.269 206.288 197.882 206.288ZM197.338 204.208C198.319 204.208 199.162 203.973 199.866 203.504C200.591 203.035 201.146 202.352 201.53 201.456C201.935 200.56 202.138 199.483 202.138 198.224C202.138 196.283 201.701 194.8 200.826 193.776C199.973 192.752 198.81 192.24 197.338 192.24C196.378 192.24 195.535 192.475 194.81 192.944C194.085 193.392 193.519 194.064 193.114 194.96C192.73 195.835 192.538 196.923 192.538 198.224C192.538 200.144 192.975 201.627 193.85 202.672C194.725 203.696 195.887 204.208 197.338 204.208ZM219.476 206C218.922 206 218.484 205.851 218.164 205.552C217.866 205.232 217.716 204.805 217.716 204.272C217.716 203.717 217.866 203.301 218.164 203.024C218.484 202.747 218.922 202.608 219.476 202.608H223.06V186.896H225.044L220.34 189.744C219.935 189.979 219.551 190.075 219.188 190.032C218.847 189.968 218.548 189.819 218.292 189.584C218.058 189.328 217.898 189.029 217.812 188.688C217.727 188.347 217.748 188.005 217.876 187.664C218.026 187.301 218.303 187.003 218.708 186.768L223.124 184.112C223.551 183.856 223.978 183.643 224.404 183.472C224.831 183.28 225.226 183.184 225.588 183.184C226.036 183.184 226.41 183.312 226.708 183.568C227.007 183.803 227.156 184.197 227.156 184.752V202.608H230.42C230.975 202.608 231.402 202.747 231.7 203.024C232.02 203.301 232.18 203.717 232.18 204.272C232.18 204.827 232.02 205.253 231.7 205.552C231.402 205.851 230.975 206 230.42 206H219.476ZM237.672 206.16C236.947 206.16 236.36 205.936 235.912 205.488C235.485 205.04 235.272 204.464 235.272 203.76C235.272 203.077 235.485 202.523 235.912 202.096C236.36 201.648 236.947 201.424 237.672 201.424C238.419 201.424 238.995 201.648 239.4 202.096C239.827 202.523 240.04 203.077 240.04 203.76C240.04 204.464 239.827 205.04 239.4 205.488C238.995 205.936 238.419 206.16 237.672 206.16ZM251.209 206.32C248.543 206.32 246.505 205.317 245.097 203.312C243.689 201.285 242.985 198.405 242.985 194.672C242.985 192.155 243.295 190.043 243.913 188.336C244.553 186.608 245.481 185.307 246.697 184.432C247.935 183.557 249.439 183.12 251.209 183.12C253.897 183.12 255.935 184.101 257.321 186.064C258.729 188.027 259.433 190.885 259.433 194.64C259.433 197.136 259.113 199.259 258.473 201.008C257.855 202.736 256.937 204.059 255.721 204.976C254.505 205.872 253.001 206.32 251.209 206.32ZM251.209 202.96C252.66 202.96 253.727 202.288 254.409 200.944C255.113 199.6 255.465 197.499 255.465 194.64C255.465 191.781 255.113 189.712 254.409 188.432C253.727 187.131 252.66 186.48 251.209 186.48C249.78 186.48 248.713 187.131 248.009 188.432C247.305 189.712 246.953 191.781 246.953 194.64C246.953 197.499 247.305 199.6 248.009 200.944C248.713 202.288 249.78 202.96 251.209 202.96Z" fill="black"/>
<g clip-path="url(#clip0_1_84)">
<rect x="120" y="262" width="160" height="160" rx="80" fill="#6E66FF"/>
<rect x="79" y="302" width="247" height="40" stroke="black" stroke-width="2"/>
<rect x="79" y="342" width="247" height="40" stroke="black" stroke-width="2"/>
<path d="M175 253C189.708 253 203.184 262.759 213.037 278.882C222.879 294.987 229 317.301 229 342C229 366.699 222.879 389.013 213.037 405.118C203.184 421.241 189.708 431 175 431C160.292 431 146.816 421.241 136.963 405.118C127.121 389.013 121 366.699 121 342C121 317.301 127.121 294.987 136.963 278.882C146.816 262.759 160.292 253 175 253Z" stroke="black" stroke-width="2"/>
<path d="M225 253C239.708 253 253.184 262.759 263.037 278.882C272.879 294.987 279 317.301 279 342C279 366.699 272.879 389.013 263.037 405.118C253.184 421.241 239.708 431 225 431C210.292 431 196.816 421.241 186.963 405.118C177.121 389.013 171 366.699 171 342C171 317.301 177.121 294.987 186.963 278.882C196.816 262.759 210.292 253 225 253Z" stroke="black" stroke-width="2"/>
</g>
<rect x="121" y="263" width="158" height="158" rx="79" stroke="black" stroke-width="2"/>
<g clip-path="url(#clip1_1_84)">
<rect x="110" y="532" width="60" height="60" rx="30" fill="#6E66FF"/>
<rect x="94.625" y="547" width="92.625" height="15" stroke="black" stroke-width="2"/>
<rect x="94.625" y="562" width="92.625" height="15" stroke="black" stroke-width="2"/>
<path d="M130.625 529.25C135.84 529.25 140.723 532.713 144.355 538.656C147.977 544.583 150.25 552.834 150.25 562C150.25 571.166 147.977 579.417 144.355 585.344C140.723 591.287 135.84 594.75 130.625 594.75C125.41 594.75 120.527 591.287 116.895 585.344C113.273 579.417 111 571.166 111 562C111 552.834 113.273 544.583 116.895 538.656C120.527 532.713 125.41 529.25 130.625 529.25Z" stroke="black" stroke-width="2"/>
<path d="M149.375 529.25C154.59 529.25 159.473 532.713 163.105 538.656C166.727 544.583 169 552.834 169 562C169 571.166 166.727 579.417 163.105 585.344C159.473 591.287 154.59 594.75 149.375 594.75C144.16 594.75 139.277 591.287 135.645 585.344C132.023 579.417 129.75 571.166 129.75 562C129.75 552.834 132.023 544.583 135.645 538.656C139.277 532.713 144.16 529.25 149.375 529.25Z" stroke="black" stroke-width="2"/>
</g>
<rect x="111" y="533" width="58" height="58" rx="29" stroke="black" stroke-width="2"/>
<g clip-path="url(#clip2_1_84)">
<rect x="110" y="499" width="60" height="60" rx="30" fill="#F4DDFF"/>
<circle cx="140" cy="521.5" r="14" fill="white" stroke="black" stroke-width="2"/>
<circle cx="140" cy="560.5" r="21.5" fill="#50FFF6" stroke="black" stroke-width="2"/>
</g>
<rect x="111" y="500" width="58" height="58" rx="29" stroke="black" stroke-width="2"/>
<g clip-path="url(#clip3_1_84)">
<rect x="230" y="532" width="60" height="60" rx="30" fill="#6E66FF"/>
<rect x="214.625" y="547" width="92.625" height="15" stroke="black" stroke-width="2"/>
<rect x="214.625" y="562" width="92.625" height="15" stroke="black" stroke-width="2"/>
<path d="M250.625 529.25C255.84 529.25 260.723 532.713 264.355 538.656C267.977 544.583 270.25 552.834 270.25 562C270.25 571.166 267.977 579.417 264.355 585.344C260.723 591.287 255.84 594.75 250.625 594.75C245.41 594.75 240.527 591.287 236.895 585.344C233.273 579.417 231 571.166 231 562C231 552.834 233.273 544.583 236.895 538.656C240.527 532.713 245.41 529.25 250.625 529.25Z" stroke="black" stroke-width="2"/>
<path d="M269.375 529.25C274.59 529.25 279.473 532.713 283.105 538.656C286.727 544.583 289 552.834 289 562C289 571.166 286.727 579.417 283.105 585.344C279.473 591.287 274.59 594.75 269.375 594.75C264.16 594.75 259.277 591.287 255.645 585.344C252.023 579.417 249.75 571.166 249.75 562C249.75 552.834 252.023 544.583 255.645 538.656C259.277 532.713 264.16 529.25 269.375 529.25Z" stroke="black" stroke-width="2"/>
</g>
<rect x="231" y="533" width="58" height="58" rx="29" stroke="black" stroke-width="2"/>
<g clip-path="url(#clip4_1_84)">
<rect x="230" y="499" width="60" height="60" rx="30" fill="#F4DDFF"/>
<circle cx="260" cy="521.5" r="14" fill="white" stroke="black" stroke-width="2"/>
<circle cx="260" cy="560.5" r="21.5" fill="#50FFF6" stroke="black" stroke-width="2"/>
</g>
<rect x="231" y="500" width="58" height="58" rx="29" stroke="black" stroke-width="2"/>
<path d="M226.866 436.755C226.59 436.277 225.978 436.113 225.5 436.389C225.022 436.665 224.858 437.277 225.134 437.755L226 437.255L226.866 436.755ZM254.025 487.211C254.559 487.354 255.107 487.037 255.25 486.504L257.58 477.81C257.722 477.277 257.406 476.729 256.872 476.586C256.339 476.443 255.791 476.759 255.648 477.293L253.577 485.02L245.85 482.95C245.316 482.807 244.768 483.123 244.625 483.657C244.482 484.19 244.799 484.739 245.332 484.881L254.025 487.211ZM226 437.255L225.134 437.755L253.418 486.745L254.284 486.245L255.15 485.745L226.866 436.755L226 437.255Z" fill="black"/>
<path d="M175.15 437.755C175.426 437.277 175.263 436.665 174.784 436.389C174.306 436.113 173.694 436.277 173.418 436.755L174.284 437.255L175.15 437.755ZM145.034 486.504C145.177 487.037 145.725 487.354 146.259 487.211L154.952 484.881C155.486 484.738 155.802 484.19 155.659 483.657C155.516 483.123 154.968 482.807 154.435 482.95L146.707 485.02L144.637 477.293C144.494 476.759 143.945 476.443 143.412 476.586C142.878 476.729 142.562 477.277 142.705 477.81L145.034 486.504ZM174.284 437.255L173.418 436.755L145.134 485.745L146 486.245L146.866 486.745L175.15 437.755L174.284 437.255Z" fill="black"/>
<path d="M171.659 96.224C171.232 96.224 170.901 96.1067 170.667 95.872C170.453 95.616 170.347 95.2747 170.347 94.848V74.784C170.347 74.336 170.464 74.0053 170.699 73.792C170.933 73.5573 171.264 73.44 171.691 73.44H179.275C181.685 73.44 183.541 74.0373 184.843 75.232C186.144 76.4053 186.795 78.0693 186.795 80.224C186.795 82.3573 186.144 84.0213 184.843 85.216C183.541 86.4107 181.685 87.008 179.275 87.008H172.971V94.848C172.971 95.2747 172.864 95.616 172.651 95.872C172.437 96.1067 172.107 96.224 171.659 96.224ZM172.971 84.8H178.955C180.683 84.8 181.984 84.416 182.859 83.648C183.755 82.8587 184.203 81.7173 184.203 80.224C184.203 78.7093 183.755 77.568 182.859 76.8C181.984 76.0107 180.683 75.616 178.955 75.616H172.971V84.8ZM194.359 96.288C193.293 96.288 192.333 96.0853 191.479 95.68C190.647 95.2533 189.986 94.6773 189.495 93.952C189.005 93.2267 188.759 92.416 188.759 91.52C188.759 90.368 189.047 89.4613 189.623 88.8C190.221 88.1387 191.191 87.6693 192.535 87.392C193.901 87.1147 195.757 86.976 198.103 86.976H199.543V88.672H198.135C196.407 88.672 195.042 88.7573 194.039 88.928C193.058 89.0773 192.365 89.344 191.959 89.728C191.575 90.112 191.383 90.656 191.383 91.36C191.383 92.2347 191.682 92.9493 192.279 93.504C192.898 94.0587 193.73 94.336 194.775 94.336C195.629 94.336 196.375 94.1333 197.015 93.728C197.677 93.3227 198.189 92.768 198.551 92.064C198.935 91.36 199.127 90.5493 199.127 89.632V85.984C199.127 84.6613 198.861 83.712 198.327 83.136C197.794 82.5387 196.919 82.24 195.703 82.24C194.957 82.24 194.21 82.336 193.463 82.528C192.717 82.72 191.927 83.0293 191.095 83.456C190.797 83.6053 190.541 83.6587 190.327 83.616C190.114 83.552 189.943 83.4347 189.815 83.264C189.687 83.0933 189.613 82.9013 189.591 82.688C189.57 82.4533 189.613 82.2293 189.719 82.016C189.847 81.8027 190.039 81.632 190.295 81.504C191.234 81.0347 192.162 80.6933 193.079 80.48C193.997 80.2667 194.871 80.16 195.703 80.16C197.047 80.16 198.157 80.384 199.031 80.832C199.906 81.2587 200.557 81.92 200.983 82.816C201.41 83.6907 201.623 84.8213 201.623 86.208V94.88C201.623 95.3067 201.517 95.6373 201.303 95.872C201.111 96.1067 200.823 96.224 200.439 96.224C200.034 96.224 199.725 96.1067 199.511 95.872C199.298 95.6373 199.191 95.3067 199.191 94.88V92.384H199.479C199.309 93.1947 198.978 93.888 198.487 94.464C198.018 95.04 197.431 95.488 196.727 95.808C196.023 96.128 195.234 96.288 194.359 96.288ZM211.68 96.288C210.72 96.288 209.749 96.1707 208.768 95.936C207.808 95.7013 206.912 95.296 206.08 94.72C205.867 94.5707 205.717 94.4 205.632 94.208C205.547 93.9947 205.515 93.792 205.536 93.6C205.579 93.3867 205.664 93.2053 205.792 93.056C205.941 92.9067 206.112 92.8213 206.304 92.8C206.517 92.7573 206.752 92.8 207.008 92.928C207.84 93.44 208.64 93.8027 209.408 94.016C210.197 94.208 210.976 94.304 211.744 94.304C212.96 94.304 213.877 94.08 214.496 93.632C215.115 93.184 215.424 92.576 215.424 91.808C215.424 91.2107 215.221 90.7413 214.816 90.4C214.411 90.0373 213.771 89.76 212.896 89.568L209.984 88.928C208.64 88.6507 207.637 88.1707 206.976 87.488C206.336 86.8053 206.016 85.92 206.016 84.832C206.016 83.872 206.261 83.0507 206.752 82.368C207.264 81.664 207.979 81.12 208.896 80.736C209.813 80.352 210.88 80.16 212.096 80.16C213.035 80.16 213.92 80.288 214.752 80.544C215.605 80.7787 216.373 81.1627 217.056 81.696C217.269 81.8453 217.408 82.0267 217.472 82.24C217.557 82.432 217.568 82.6347 217.504 82.848C217.461 83.04 217.365 83.2107 217.216 83.36C217.067 83.488 216.885 83.5627 216.672 83.584C216.459 83.6053 216.235 83.5413 216 83.392C215.36 82.9653 214.709 82.656 214.048 82.464C213.387 82.2507 212.736 82.144 212.096 82.144C210.901 82.144 209.995 82.3787 209.376 82.848C208.757 83.3173 208.448 83.936 208.448 84.704C208.448 85.3013 208.64 85.792 209.024 86.176C209.408 86.56 210.005 86.8373 210.816 87.008L213.728 87.616C215.115 87.9147 216.149 88.3947 216.832 89.056C217.536 89.696 217.888 90.5707 217.888 91.68C217.888 93.088 217.323 94.208 216.192 95.04C215.061 95.872 213.557 96.288 211.68 96.288ZM227.922 96.288C226.706 96.288 225.682 96.0747 224.85 95.648C224.039 95.2 223.431 94.56 223.026 93.728C222.621 92.8747 222.418 91.84 222.418 90.624V82.464H220.274C219.911 82.464 219.634 82.3787 219.442 82.208C219.25 82.016 219.154 81.76 219.154 81.44C219.154 81.12 219.25 80.8747 219.442 80.704C219.634 80.5333 219.911 80.448 220.274 80.448H222.418V76.768C222.418 76.3413 222.535 76.0213 222.77 75.808C223.005 75.5733 223.325 75.456 223.73 75.456C224.135 75.456 224.445 75.5733 224.658 75.808C224.893 76.0213 225.01 76.3413 225.01 76.768V80.448H229.042C229.405 80.448 229.682 80.5333 229.874 80.704C230.066 80.8747 230.162 81.12 230.162 81.44C230.162 81.76 230.066 82.016 229.874 82.208C229.682 82.3787 229.405 82.464 229.042 82.464H225.01V90.368C225.01 91.584 225.266 92.512 225.778 93.152C226.29 93.7707 227.122 94.08 228.274 94.08C228.679 94.08 229.021 94.0373 229.298 93.952C229.597 93.8667 229.842 93.824 230.034 93.824C230.226 93.8027 230.386 93.8667 230.514 94.016C230.642 94.1653 230.706 94.4213 230.706 94.784C230.706 95.04 230.653 95.2747 230.546 95.488C230.461 95.7013 230.301 95.8507 230.066 95.936C229.81 96.0213 229.469 96.096 229.042 96.16C228.637 96.2453 228.263 96.288 227.922 96.288Z" fill="black"/>
<rect x="401" y="83" width="2" height="500" rx="1" fill="black"/>
<g clip-path="url(#clip5_1_84)">
<rect x="539" y="386" width="110" height="110" rx="55" fill="#6E66FF"/>
<rect x="510.812" y="413.5" width="169.812" height="27.5" stroke="black" stroke-width="2"/>
<rect x="510.812" y="441" width="169.812" height="27.5" stroke="black" stroke-width="2"/>
<path d="M576.812 380.125C586.774 380.125 595.954 386.736 602.696 397.77C609.428 408.785 613.625 424.067 613.625 441C613.625 457.933 609.428 473.215 602.696 484.23C595.954 495.264 586.774 501.875 576.812 501.875C566.851 501.875 557.671 495.264 550.929 484.23C544.197 473.215 540 457.933 540 441C540 424.067 544.197 408.785 550.929 397.77C557.671 386.736 566.851 380.125 576.812 380.125Z" stroke="black" stroke-width="2"/>
<path d="M611.188 380.125C621.149 380.125 630.329 386.736 637.071 397.77C643.803 408.785 648 424.067 648 441C648 457.933 643.803 473.215 637.071 484.23C630.329 495.264 621.149 501.875 611.188 501.875C601.226 501.875 592.046 495.264 585.304 484.23C578.572 473.215 574.375 457.933 574.375 441C574.375 424.067 578.572 408.785 585.304 397.77C592.046 386.736 601.226 380.125 611.188 380.125Z" stroke="black" stroke-width="2"/>
</g>
<rect x="540" y="387" width="108" height="108" rx="54" stroke="black" stroke-width="2"/>
<g clip-path="url(#clip6_1_84)">
<rect x="454" y="475" width="60" height="60" rx="30" fill="#F4DDFF"/>
<circle cx="484" cy="497.5" r="14" fill="white" stroke="black" stroke-width="2"/>
<circle cx="484" cy="536.5" r="21.5" fill="#50FFF6" stroke="black" stroke-width="2"/>
</g>
<rect x="455" y="476" width="58" height="58" rx="29" stroke="black" stroke-width="2"/>
<g clip-path="url(#clip7_1_84)">
<rect x="674" y="475" width="60" height="60" rx="30" fill="#F4DDFF"/>
<circle cx="704" cy="497.5" r="14" fill="white" stroke="black" stroke-width="2"/>
<circle cx="704" cy="536.5" r="21.5" fill="#50FFF6" stroke="black" stroke-width="2"/>
</g>
<rect x="675" y="476" width="58" height="58" rx="29" stroke="black" stroke-width="2"/>
<g clip-path="url(#clip8_1_84)">
<rect x="564" y="529" width="60" height="60" rx="30" fill="#F4DDFF"/>
<circle cx="594" cy="551.5" r="14" fill="white" stroke="black" stroke-width="2"/>
<circle cx="594" cy="590.5" r="21.5" fill="#50FFF6" stroke="black" stroke-width="2"/>
</g>
<rect x="565" y="530" width="58" height="58" rx="29" stroke="black" stroke-width="2"/>
<g clip-path="url(#clip9_1_84)">
<rect x="454" y="348" width="60" height="60" rx="30" fill="#F4DDFF"/>
<circle cx="484" cy="370.5" r="14" fill="white" stroke="black" stroke-width="2"/>
<circle cx="484" cy="409.5" r="21.5" fill="#50FFF6" stroke="black" stroke-width="2"/>
</g>
<rect x="455" y="349" width="58" height="58" rx="29" stroke="black" stroke-width="2"/>
<g clip-path="url(#clip10_1_84)">
<rect x="674" y="348" width="60" height="60" rx="30" fill="#F4DDFF"/>
<circle cx="704" cy="370.5" r="14" fill="white" stroke="black" stroke-width="2"/>
<circle cx="704" cy="409.5" r="21.5" fill="#50FFF6" stroke="black" stroke-width="2"/>
</g>
<rect x="675" y="349" width="58" height="58" rx="29" stroke="black" stroke-width="2"/>
<g clip-path="url(#clip11_1_84)">
<rect x="564" y="282" width="60" height="60" rx="30" fill="#F4DDFF"/>
<circle cx="594" cy="304.5" r="14" fill="white" stroke="black" stroke-width="2"/>
<circle cx="594" cy="343.5" r="21.5" fill="#50FFF6" stroke="black" stroke-width="2"/>
</g>
<rect x="565" y="283" width="58" height="58" rx="29" stroke="black" stroke-width="2"/>
<path d="M651.788 465C651.235 465 650.788 465.448 650.788 466L650.788 475C650.788 475.552 651.235 476 651.788 476C652.34 476 652.788 475.552 652.788 475L652.788 467L660.788 467C661.34 467 661.788 466.552 661.788 466C661.788 465.448 661.34 465 660.788 465L651.788 465ZM670.576 485.788C671.128 485.788 671.576 485.34 671.576 484.788L671.576 475.788C671.576 475.236 671.128 474.788 670.576 474.788C670.023 474.788 669.576 475.236 669.576 475.788L669.576 483.788L661.576 483.788C661.023 483.788 660.576 484.236 660.576 484.788C660.576 485.34 661.023 485.788 661.576 485.788L670.576 485.788ZM651.788 466L651.081 466.707L669.868 485.495L670.576 484.788L671.283 484.081L652.495 465.293L651.788 466Z" fill="black"/>
<path d="M594.636 498.937C594.246 498.547 593.612 498.547 593.222 498.937L586.858 505.301C586.467 505.692 586.467 506.325 586.858 506.716C587.248 507.106 587.882 507.106 588.272 506.716L593.929 501.059L599.586 506.716C599.976 507.106 600.609 507.106 601 506.716C601.391 506.325 601.391 505.692 601 505.301L594.636 498.937ZM593.222 526.922C593.612 527.312 594.246 527.312 594.636 526.922L601 520.558C601.391 520.167 601.391 519.534 601 519.143C600.609 518.753 599.976 518.753 599.586 519.143L593.929 524.8L588.272 519.143C587.882 518.753 587.248 518.753 586.858 519.143C586.467 519.534 586.467 520.167 586.858 520.558L593.222 526.922ZM593.929 499.645H592.929V526.215H593.929H594.929V499.645H593.929Z" fill="black"/>
<path d="M536.788 466C536.788 465.448 536.34 465 535.788 465L526.788 465C526.236 465 525.788 465.448 525.788 466C525.788 466.552 526.236 467 526.788 467L534.788 467L534.788 475C534.788 475.552 535.236 476 535.788 476C536.34 476 536.788 475.552 536.788 475L536.788 466ZM516 484.788C516 485.34 516.448 485.788 517 485.788L526 485.788C526.552 485.788 527 485.34 527 484.788C527 484.236 526.552 483.788 526 483.788L518 483.788L518 475.788C518 475.236 517.552 474.788 517 474.788C516.448 474.788 516 475.236 516 475.788L516 484.788ZM535.788 466L535.081 465.293L516.293 484.081L517 484.788L517.707 485.495L536.495 466.707L535.788 466Z" fill="black"/>
<path d="M536.212 414.214C536.765 414.214 537.212 413.767 537.212 413.214L537.212 404.214C537.212 403.662 536.765 403.214 536.212 403.214C535.66 403.214 535.212 403.662 535.212 404.214L535.212 412.214L527.212 412.214C526.66 412.214 526.212 412.662 526.212 413.214C526.212 413.767 526.66 414.214 527.212 414.214L536.212 414.214ZM517.424 393.427C516.872 393.427 516.424 393.874 516.424 394.427L516.424 403.427C516.424 403.979 516.872 404.427 517.424 404.427C517.977 404.427 518.424 403.979 518.424 403.427L518.424 395.427L526.424 395.427C526.977 395.427 527.424 394.979 527.424 394.427C527.424 393.874 526.977 393.427 526.424 393.427L517.424 393.427ZM536.212 413.214L536.919 412.507L518.132 393.72L517.424 394.427L516.717 395.134L535.505 413.922L536.212 413.214Z" fill="black"/>
<path d="M593.364 380.277C593.754 380.668 594.388 380.668 594.778 380.277L601.142 373.913C601.533 373.523 601.533 372.889 601.142 372.499C600.752 372.108 600.118 372.108 599.728 372.499L594.071 378.156L588.414 372.499C588.024 372.108 587.391 372.108 587 372.499C586.609 372.889 586.609 373.523 587 373.913L593.364 380.277ZM594.778 352.293C594.388 351.902 593.754 351.902 593.364 352.293L587 358.657C586.609 359.047 586.609 359.681 587 360.071C587.391 360.462 588.024 360.462 588.414 360.071L594.071 354.414L599.728 360.071C600.118 360.462 600.752 360.462 601.142 360.071C601.533 359.681 601.533 359.047 601.142 358.657L594.778 352.293ZM594.071 379.57L595.071 379.57L595.071 353L594.071 353L593.071 353L593.071 379.57L594.071 379.57Z" fill="black"/>
<path d="M651.212 413.214C651.212 413.767 651.66 414.214 652.212 414.214L661.212 414.214C661.764 414.214 662.212 413.767 662.212 413.214C662.212 412.662 661.764 412.214 661.212 412.214L653.212 412.214L653.212 404.214C653.212 403.662 652.764 403.214 652.212 403.214C651.66 403.214 651.212 403.662 651.212 404.214L651.212 413.214ZM672 394.427C672 393.874 671.552 393.427 671 393.427L662 393.427C661.448 393.427 661 393.874 661 394.427C661 394.979 661.448 395.427 662 395.427L670 395.427L670 403.427C670 403.979 670.448 404.427 671 404.427C671.552 404.427 672 403.979 672 403.427L672 394.427ZM652.212 413.214L652.919 413.922L671.707 395.134L671 394.427L670.293 393.72L651.505 412.507L652.212 413.214Z" fill="black"/>
<mask id="path-70-inside-2_1_84" fill="white">
<path d="M594.5 133C610.101 133 623.736 141.408 631.128 153.938C633.82 153.325 636.622 153 639.5 153C660.211 153 677 169.789 677 190.5C677 191.384 676.966 192.26 676.906 193.128C688.201 194.329 697 203.886 697 215.5C697 227.926 686.926 238 674.5 238C674.333 238 674.166 237.997 674 237.993V238H514V237.993C501.805 237.727 492 227.759 492 215.5C492 203.887 500.798 194.329 512.093 193.128C512.033 192.26 512 191.383 512 190.5C512 169.789 528.789 153 549.5 153C552.378 153 555.179 153.325 557.871 153.938C565.263 141.408 578.899 133 594.5 133Z"/>
</mask>
<path d="M594.5 133C610.101 133 623.736 141.408 631.128 153.938C633.82 153.325 636.622 153 639.5 153C660.211 153 677 169.789 677 190.5C677 191.384 676.966 192.26 676.906 193.128C688.201 194.329 697 203.886 697 215.5C697 227.926 686.926 238 674.5 238C674.333 238 674.166 237.997 674 237.993V238H514V237.993C501.805 237.727 492 227.759 492 215.5C492 203.887 500.798 194.329 512.093 193.128C512.033 192.26 512 191.383 512 190.5C512 169.789 528.789 153 549.5 153C552.378 153 555.179 153.325 557.871 153.938C565.263 141.408 578.899 133 594.5 133Z" fill="white"/>
<path d="M631.128 153.938L629.405 154.955L630.148 156.213L631.573 155.888L631.128 153.938ZM676.906 193.128L674.911 192.99L674.778 194.913L676.695 195.117L676.906 193.128ZM674 237.993L674.044 235.994L672 235.949V237.993H674ZM674 238V240H676V238H674ZM514 238H512V240H514V238ZM514 237.993H516V236.036L514.044 235.994L514 237.993ZM512.093 193.128L512.304 195.117L514.221 194.913L514.088 192.99L512.093 193.128ZM557.871 153.938L557.426 155.888L558.851 156.213L559.594 154.955L557.871 153.938ZM594.5 133V135C609.364 135 622.358 143.009 629.405 154.955L631.128 153.938L632.851 152.922C625.114 139.808 610.838 131 594.5 131V133ZM631.128 153.938L631.573 155.888C634.12 155.308 636.773 155 639.5 155V153V151C636.471 151 633.52 151.342 630.683 151.989L631.128 153.938ZM639.5 153V155C659.106 155 675 170.894 675 190.5H677H679C679 168.685 661.315 151 639.5 151V153ZM677 190.5H675C675 191.333 674.968 192.163 674.911 192.99L676.906 193.128L678.901 193.266C678.964 192.357 679 191.434 679 190.5H677ZM676.906 193.128L676.695 195.117C686.984 196.211 695 204.92 695 215.5H697H699C699 202.853 689.419 192.447 677.118 191.139L676.906 193.128ZM697 215.5H695C695 226.822 685.822 236 674.5 236V238V240C688.031 240 699 229.031 699 215.5H697ZM674.5 238V236C674.356 236 674.209 235.997 674.044 235.994L674 237.993L673.956 239.993C674.124 239.996 674.309 240 674.5 240V238ZM674 237.993H672V238H674H676V237.993H674ZM674 238V236H514V238V240H674V238ZM514 238H516V237.993H514H512V238H514ZM514 237.993L514.044 235.994C502.933 235.751 494 226.669 494 215.5H492H490C490 228.849 500.676 239.703 513.956 239.993L514 237.993ZM492 215.5H494C494 204.92 502.016 196.211 512.304 195.117L512.093 193.128L511.881 191.139C499.581 192.447 490 202.853 490 215.5H492ZM512.093 193.128L514.088 192.99C514.031 192.164 514 191.334 514 190.5H512H510C510 191.433 510.034 192.355 510.098 193.266L512.093 193.128ZM512 190.5H514C514 170.894 529.894 155 549.5 155V153V151C527.685 151 510 168.685 510 190.5H512ZM549.5 153V155C552.227 155 554.879 155.308 557.426 155.888L557.871 153.938L558.316 151.989C555.479 151.342 552.529 151 549.5 151V153ZM557.871 153.938L559.594 154.955C566.641 143.008 579.635 135 594.5 135V133V131C578.162 131 563.885 139.808 556.148 152.922L557.871 153.938Z" fill="black" mask="url(#path-70-inside-2_1_84)"/>
<path d="M542.219 206.224C541.835 206.224 541.526 206.128 541.291 205.936C541.056 205.723 540.864 205.413 540.715 205.008L533.643 184.816C533.494 184.368 533.526 183.995 533.739 183.696C533.974 183.376 534.336 183.216 534.827 183.216C535.19 183.216 535.478 183.312 535.691 183.504C535.904 183.675 536.086 183.952 536.235 184.336L542.859 203.76H541.739L548.491 184.432C548.64 184.027 548.822 183.728 549.035 183.536C549.248 183.323 549.536 183.216 549.899 183.216C550.24 183.216 550.507 183.323 550.699 183.536C550.912 183.728 551.094 184.027 551.243 184.432L557.899 203.76H556.907L563.595 184.336C563.702 183.973 563.862 183.696 564.075 183.504C564.31 183.312 564.608 183.216 564.971 183.216C565.419 183.216 565.75 183.365 565.963 183.664C566.176 183.963 566.198 184.347 566.027 184.816L558.923 205.008C558.774 205.413 558.582 205.723 558.347 205.936C558.134 206.128 557.824 206.224 557.419 206.224C557.035 206.224 556.726 206.128 556.491 205.936C556.278 205.723 556.086 205.413 555.915 205.008L549.483 186.48H550.187L543.691 205.008C543.542 205.413 543.36 205.723 543.147 205.936C542.934 206.128 542.624 206.224 542.219 206.224ZM574.987 206.288C573.344 206.288 571.926 205.968 570.731 205.328C569.558 204.667 568.64 203.739 567.979 202.544C567.339 201.349 567.019 199.92 567.019 198.256C567.019 196.635 567.339 195.227 567.979 194.032C568.619 192.816 569.494 191.867 570.603 191.184C571.734 190.501 573.035 190.16 574.507 190.16C575.552 190.16 576.491 190.341 577.323 190.704C578.155 191.045 578.859 191.547 579.435 192.208C580.032 192.869 580.48 193.669 580.779 194.608C581.099 195.547 581.259 196.603 581.259 197.776C581.259 198.117 581.163 198.373 580.971 198.544C580.779 198.693 580.502 198.768 580.139 198.768H569.003V197.072H579.531L579.019 197.488C579.019 196.336 578.848 195.365 578.507 194.576C578.166 193.765 577.664 193.147 577.003 192.72C576.363 192.293 575.552 192.08 574.571 192.08C573.483 192.08 572.555 192.336 571.787 192.848C571.04 193.339 570.475 194.032 570.091 194.928C569.707 195.803 569.515 196.827 569.515 198V198.192C569.515 200.155 569.984 201.648 570.923 202.672C571.883 203.696 573.238 204.208 574.987 204.208C575.712 204.208 576.427 204.112 577.131 203.92C577.856 203.728 578.56 203.408 579.243 202.96C579.542 202.768 579.808 202.683 580.043 202.704C580.299 202.704 580.502 202.779 580.651 202.928C580.8 203.056 580.896 203.227 580.939 203.44C581.003 203.632 580.982 203.845 580.875 204.08C580.79 204.315 580.608 204.517 580.331 204.688C579.627 205.2 578.795 205.595 577.835 205.872C576.875 206.149 575.926 206.288 574.987 206.288ZM592.882 206.288C591.474 206.288 590.258 205.925 589.234 205.2C588.231 204.475 587.559 203.504 587.218 202.288L587.57 201.936V204.88C587.57 205.307 587.453 205.637 587.218 205.872C587.005 206.107 586.695 206.224 586.29 206.224C585.863 206.224 585.543 206.107 585.33 205.872C585.117 205.637 585.01 205.307 585.01 204.88V184.528C585.01 184.101 585.117 183.781 585.33 183.568C585.543 183.333 585.863 183.216 586.29 183.216C586.695 183.216 587.015 183.333 587.25 183.568C587.485 183.781 587.602 184.101 587.602 184.528V194.064H587.218C587.581 192.869 588.263 191.92 589.266 191.216C590.269 190.512 591.474 190.16 592.882 190.16C594.29 190.16 595.506 190.491 596.53 191.152C597.554 191.792 598.343 192.72 598.898 193.936C599.474 195.131 599.762 196.56 599.762 198.224C599.762 199.867 599.474 201.296 598.898 202.512C598.343 203.707 597.543 204.635 596.498 205.296C595.474 205.957 594.269 206.288 592.882 206.288ZM592.338 204.208C593.319 204.208 594.162 203.973 594.866 203.504C595.591 203.035 596.146 202.352 596.53 201.456C596.935 200.56 597.138 199.483 597.138 198.224C597.138 196.283 596.701 194.8 595.826 193.776C594.973 192.752 593.81 192.24 592.338 192.24C591.378 192.24 590.535 192.475 589.81 192.944C589.085 193.392 588.519 194.064 588.114 194.96C587.73 195.835 587.538 196.923 587.538 198.224C587.538 200.144 587.975 201.627 588.85 202.672C589.725 203.696 590.887 204.208 592.338 204.208ZM613.74 206C613.058 206 612.556 205.851 612.236 205.552C611.938 205.232 611.788 204.773 611.788 204.176C611.788 203.813 611.884 203.461 612.076 203.12C612.268 202.779 612.546 202.416 612.908 202.032L619.34 195.184C620.322 194.16 621.026 193.232 621.452 192.4C621.879 191.547 622.092 190.693 622.092 189.84C622.092 188.773 621.751 187.963 621.068 187.408C620.407 186.853 619.436 186.576 618.156 186.576C617.431 186.576 616.706 186.683 615.98 186.896C615.255 187.088 614.519 187.429 613.772 187.92C613.388 188.176 613.026 188.283 612.684 188.24C612.364 188.197 612.076 188.059 611.82 187.824C611.586 187.589 611.426 187.301 611.34 186.96C611.255 186.619 611.266 186.277 611.372 185.936C611.5 185.573 611.756 185.264 612.14 185.008C613.058 184.389 614.082 183.92 615.212 183.6C616.364 183.28 617.516 183.12 618.668 183.12C620.29 183.12 621.655 183.365 622.764 183.856C623.874 184.347 624.716 185.061 625.292 186C625.868 186.939 626.156 188.08 626.156 189.424C626.156 190.32 626.007 191.195 625.708 192.048C625.431 192.901 624.994 193.765 624.396 194.64C623.82 195.515 623.063 196.443 622.124 197.424L616.108 203.696V202.608H625.516C626.092 202.608 626.53 202.747 626.828 203.024C627.127 203.301 627.276 203.717 627.276 204.272C627.276 204.827 627.127 205.253 626.828 205.552C626.53 205.851 626.092 206 625.516 206H613.74ZM632.672 206.16C631.947 206.16 631.36 205.936 630.912 205.488C630.485 205.04 630.272 204.464 630.272 203.76C630.272 203.077 630.485 202.523 630.912 202.096C631.36 201.648 631.947 201.424 632.672 201.424C633.419 201.424 633.995 201.648 634.4 202.096C634.827 202.523 635.04 203.077 635.04 203.76C635.04 204.464 634.827 205.04 634.4 205.488C633.995 205.936 633.419 206.16 632.672 206.16ZM646.209 206.32C643.543 206.32 641.505 205.317 640.097 203.312C638.689 201.285 637.985 198.405 637.985 194.672C637.985 192.155 638.295 190.043 638.913 188.336C639.553 186.608 640.481 185.307 641.697 184.432C642.935 183.557 644.439 183.12 646.209 183.12C648.897 183.12 650.935 184.101 652.321 186.064C653.729 188.027 654.433 190.885 654.433 194.64C654.433 197.136 654.113 199.259 653.473 201.008C652.855 202.736 651.937 204.059 650.721 204.976C649.505 205.872 648.001 206.32 646.209 206.32ZM646.209 202.96C647.66 202.96 648.727 202.288 649.409 200.944C650.113 199.6 650.465 197.499 650.465 194.64C650.465 191.781 650.113 189.712 649.409 188.432C648.727 187.131 647.66 186.48 646.209 186.48C644.78 186.48 643.713 187.131 643.009 188.432C642.305 189.712 641.953 191.781 641.953 194.64C641.953 197.499 642.305 199.6 643.009 200.944C643.713 202.288 644.78 202.96 646.209 202.96Z" fill="black"/>
<path d="M544.065 96.224C543.638 96.224 543.307 96.1067 543.073 95.872C542.859 95.616 542.753 95.2747 542.753 94.848V74.784C542.753 74.336 542.87 74.0053 543.105 73.792C543.339 73.5573 543.67 73.44 544.097 73.44H551.681C554.091 73.44 555.947 74.0373 557.249 75.232C558.55 76.4053 559.201 78.0693 559.201 80.224C559.201 82.3573 558.55 84.0213 557.249 85.216C555.947 86.4107 554.091 87.008 551.681 87.008H545.377V94.848C545.377 95.2747 545.27 95.616 545.057 95.872C544.843 96.1067 544.513 96.224 544.065 96.224ZM545.377 84.8H551.361C553.089 84.8 554.39 84.416 555.265 83.648C556.161 82.8587 556.609 81.7173 556.609 80.224C556.609 78.7093 556.161 77.568 555.265 76.8C554.39 76.0107 553.089 75.616 551.361 75.616H545.377V84.8ZM563.65 96.224C563.224 96.224 562.893 96.1067 562.658 95.872C562.445 95.6373 562.338 95.3067 562.338 94.88V81.536C562.338 81.1093 562.445 80.7893 562.658 80.576C562.872 80.3413 563.181 80.224 563.586 80.224C563.992 80.224 564.301 80.3413 564.514 80.576C564.749 80.7893 564.866 81.1093 564.866 81.536V84.128H564.546C564.888 82.8693 565.538 81.8987 566.498 81.216C567.458 80.5333 568.642 80.1707 570.05 80.128C570.37 80.1067 570.626 80.1813 570.818 80.352C571.01 80.5013 571.117 80.768 571.138 81.152C571.16 81.5147 571.074 81.8027 570.882 82.016C570.69 82.2293 570.392 82.3573 569.986 82.4L569.474 82.464C568.024 82.592 566.904 83.0613 566.114 83.872C565.346 84.6613 564.962 85.7493 564.962 87.136V94.88C564.962 95.3067 564.845 95.6373 564.61 95.872C564.397 96.1067 564.077 96.224 563.65 96.224ZM580.628 96.288C578.985 96.288 577.566 95.968 576.372 95.328C575.198 94.6667 574.281 93.7387 573.62 92.544C572.98 91.3493 572.66 89.92 572.66 88.256C572.66 86.6347 572.98 85.2267 573.62 84.032C574.26 82.816 575.134 81.8667 576.244 81.184C577.374 80.5013 578.676 80.16 580.148 80.16C581.193 80.16 582.132 80.3413 582.964 80.704C583.796 81.0453 584.5 81.5467 585.076 82.208C585.673 82.8693 586.121 83.6693 586.42 84.608C586.74 85.5467 586.9 86.6027 586.9 87.776C586.9 88.1173 586.804 88.3733 586.612 88.544C586.42 88.6933 586.142 88.768 585.78 88.768H574.644V87.072H585.172L584.66 87.488C584.66 86.336 584.489 85.3653 584.148 84.576C583.806 83.7653 583.305 83.1467 582.644 82.72C582.004 82.2933 581.193 82.08 580.212 82.08C579.124 82.08 578.196 82.336 577.428 82.848C576.681 83.3387 576.116 84.032 575.732 84.928C575.348 85.8027 575.156 86.8267 575.156 88V88.192C575.156 90.1547 575.625 91.648 576.564 92.672C577.524 93.696 578.878 94.208 580.628 94.208C581.353 94.208 582.068 94.112 582.772 93.92C583.497 93.728 584.201 93.408 584.884 92.96C585.182 92.768 585.449 92.6827 585.684 92.704C585.94 92.704 586.142 92.7787 586.292 92.928C586.441 93.056 586.537 93.2267 586.58 93.44C586.644 93.632 586.622 93.8453 586.516 94.08C586.43 94.3147 586.249 94.5173 585.972 94.688C585.268 95.2 584.436 95.5947 583.476 95.872C582.516 96.1493 581.566 96.288 580.628 96.288ZM595.899 96.288C594.939 96.288 593.968 96.1707 592.987 95.936C592.027 95.7013 591.131 95.296 590.299 94.72C590.085 94.5707 589.936 94.4 589.851 94.208C589.765 93.9947 589.733 93.792 589.755 93.6C589.797 93.3867 589.883 93.2053 590.011 93.056C590.16 92.9067 590.331 92.8213 590.523 92.8C590.736 92.7573 590.971 92.8 591.227 92.928C592.059 93.44 592.859 93.8027 593.627 94.016C594.416 94.208 595.195 94.304 595.963 94.304C597.179 94.304 598.096 94.08 598.715 93.632C599.333 93.184 599.643 92.576 599.643 91.808C599.643 91.2107 599.44 90.7413 599.035 90.4C598.629 90.0373 597.989 89.76 597.115 89.568L594.203 88.928C592.859 88.6507 591.856 88.1707 591.195 87.488C590.555 86.8053 590.235 85.92 590.235 84.832C590.235 83.872 590.48 83.0507 590.971 82.368C591.483 81.664 592.197 81.12 593.115 80.736C594.032 80.352 595.099 80.16 596.315 80.16C597.253 80.16 598.139 80.288 598.971 80.544C599.824 80.7787 600.592 81.1627 601.275 81.696C601.488 81.8453 601.627 82.0267 601.691 82.24C601.776 82.432 601.787 82.6347 601.723 82.848C601.68 83.04 601.584 83.2107 601.435 83.36C601.285 83.488 601.104 83.5627 600.891 83.584C600.677 83.6053 600.453 83.5413 600.219 83.392C599.579 82.9653 598.928 82.656 598.267 82.464C597.605 82.2507 596.955 82.144 596.315 82.144C595.12 82.144 594.213 82.3787 593.595 82.848C592.976 83.3173 592.667 83.936 592.667 84.704C592.667 85.3013 592.859 85.792 593.243 86.176C593.627 86.56 594.224 86.8373 595.035 87.008L597.947 87.616C599.333 87.9147 600.368 88.3947 601.051 89.056C601.755 89.696 602.107 90.5707 602.107 91.68C602.107 93.088 601.541 94.208 600.411 95.04C599.28 95.872 597.776 96.288 595.899 96.288ZM613.065 96.288C611.422 96.288 610.004 95.968 608.809 95.328C607.636 94.6667 606.718 93.7387 606.057 92.544C605.417 91.3493 605.097 89.92 605.097 88.256C605.097 86.6347 605.417 85.2267 606.057 84.032C606.697 82.816 607.572 81.8667 608.681 81.184C609.812 80.5013 611.113 80.16 612.585 80.16C613.63 80.16 614.569 80.3413 615.401 80.704C616.233 81.0453 616.937 81.5467 617.513 82.208C618.11 82.8693 618.558 83.6693 618.857 84.608C619.177 85.5467 619.337 86.6027 619.337 87.776C619.337 88.1173 619.241 88.3733 619.049 88.544C618.857 88.6933 618.58 88.768 618.217 88.768H607.081V87.072H617.609L617.097 87.488C617.097 86.336 616.926 85.3653 616.585 84.576C616.244 83.7653 615.742 83.1467 615.081 82.72C614.441 82.2933 613.63 82.08 612.649 82.08C611.561 82.08 610.633 82.336 609.865 82.848C609.118 83.3387 608.553 84.032 608.169 84.928C607.785 85.8027 607.593 86.8267 607.593 88V88.192C607.593 90.1547 608.062 91.648 609.001 92.672C609.961 93.696 611.316 94.208 613.065 94.208C613.79 94.208 614.505 94.112 615.209 93.92C615.934 93.728 616.638 93.408 617.321 92.96C617.62 92.768 617.886 92.6827 618.121 92.704C618.377 92.704 618.58 92.7787 618.729 92.928C618.878 93.056 618.974 93.2267 619.017 93.44C619.081 93.632 619.06 93.8453 618.953 94.08C618.868 94.3147 618.686 94.5173 618.409 94.688C617.705 95.2 616.873 95.5947 615.913 95.872C614.953 96.1493 614.004 96.288 613.065 96.288ZM624.368 96.224C623.942 96.224 623.622 96.1067 623.408 95.872C623.195 95.6373 623.088 95.3067 623.088 94.88V81.536C623.088 81.1093 623.195 80.7893 623.408 80.576C623.622 80.3413 623.931 80.224 624.336 80.224C624.742 80.224 625.051 80.3413 625.264 80.576C625.499 80.7893 625.616 81.1093 625.616 81.536V84.288L625.264 83.904C625.712 82.6667 626.438 81.7387 627.44 81.12C628.464 80.48 629.638 80.16 630.96 80.16C632.198 80.16 633.222 80.384 634.032 80.832C634.864 81.28 635.483 81.9627 635.888 82.88C636.294 83.776 636.496 84.9173 636.496 86.304V94.88C636.496 95.3067 636.379 95.6373 636.144 95.872C635.931 96.1067 635.622 96.224 635.216 96.224C634.79 96.224 634.459 96.1067 634.224 95.872C634.011 95.6373 633.904 95.3067 633.904 94.88V86.464C633.904 85.0133 633.616 83.9573 633.04 83.296C632.486 82.6133 631.59 82.272 630.352 82.272C628.923 82.272 627.782 82.72 626.928 83.616C626.096 84.4907 625.68 85.664 625.68 87.136V94.88C625.68 95.776 625.243 96.224 624.368 96.224ZM647.516 96.288C646.3 96.288 645.276 96.0747 644.444 95.648C643.633 95.2 643.025 94.56 642.62 93.728C642.214 92.8747 642.012 91.84 642.012 90.624V82.464H639.868C639.505 82.464 639.228 82.3787 639.036 82.208C638.844 82.016 638.748 81.76 638.748 81.44C638.748 81.12 638.844 80.8747 639.036 80.704C639.228 80.5333 639.505 80.448 639.868 80.448H642.012V76.768C642.012 76.3413 642.129 76.0213 642.364 75.808C642.598 75.5733 642.918 75.456 643.324 75.456C643.729 75.456 644.038 75.5733 644.252 75.808C644.486 76.0213 644.604 76.3413 644.604 76.768V80.448H648.636C648.998 80.448 649.276 80.5333 649.468 80.704C649.66 80.8747 649.756 81.12 649.756 81.44C649.756 81.76 649.66 82.016 649.468 82.208C649.276 82.3787 648.998 82.464 648.636 82.464H644.604V90.368C644.604 91.584 644.86 92.512 645.372 93.152C645.884 93.7707 646.716 94.08 647.868 94.08C648.273 94.08 648.614 94.0373 648.892 93.952C649.19 93.8667 649.436 93.824 649.628 93.824C649.82 93.8027 649.98 93.8667 650.108 94.016C650.236 94.1653 650.3 94.4213 650.3 94.784C650.3 95.04 650.246 95.2747 650.14 95.488C650.054 95.7013 649.894 95.8507 649.66 95.936C649.404 96.0213 649.062 96.096 648.636 96.16C648.23 96.2453 647.857 96.288 647.516 96.288Z" fill="black"/>
<rect x="785" y="83" width="2" height="500" rx="1" fill="black"/>
<mask id="path-75-inside-3_1_84" fill="white">
<path d="M997.5 133C1013.1 133 1026.74 141.408 1034.13 153.938C1036.82 153.325 1039.62 153 1042.5 153C1063.21 153 1080 169.789 1080 190.5C1080 191.384 1079.97 192.26 1079.91 193.128C1091.2 194.329 1100 203.886 1100 215.5C1100 227.926 1089.93 238 1077.5 238C1077.33 238 1077.17 237.997 1077 237.993V238H917V237.993C904.805 237.727 895 227.759 895 215.5C895 203.887 903.798 194.329 915.093 193.128C915.033 192.26 915 191.383 915 190.5C915 169.789 931.789 153 952.5 153C955.378 153 958.179 153.325 960.871 153.938C968.263 141.408 981.899 133 997.5 133Z"/>
</mask>
<path d="M997.5 133C1013.1 133 1026.74 141.408 1034.13 153.938C1036.82 153.325 1039.62 153 1042.5 153C1063.21 153 1080 169.789 1080 190.5C1080 191.384 1079.97 192.26 1079.91 193.128C1091.2 194.329 1100 203.886 1100 215.5C1100 227.926 1089.93 238 1077.5 238C1077.33 238 1077.17 237.997 1077 237.993V238H917V237.993C904.805 237.727 895 227.759 895 215.5C895 203.887 903.798 194.329 915.093 193.128C915.033 192.26 915 191.383 915 190.5C915 169.789 931.789 153 952.5 153C955.378 153 958.179 153.325 960.871 153.938C968.263 141.408 981.899 133 997.5 133Z" fill="white"/>
<path d="M1034.13 153.938L1032.41 154.955L1033.15 156.213L1034.57 155.888L1034.13 153.938ZM1079.91 193.128L1077.91 192.99L1077.78 194.913L1079.69 195.117L1079.91 193.128ZM1077 237.993L1077.04 235.994L1075 235.949V237.993H1077ZM1077 238V240H1079V238H1077ZM917 238H915V240H917V238ZM917 237.993H919V236.036L917.044 235.994L917 237.993ZM915.093 193.128L915.304 195.117L917.221 194.913L917.088 192.99L915.093 193.128ZM960.871 153.938L960.426 155.888L961.851 156.213L962.594 154.955L960.871 153.938ZM997.5 133V135C1012.36 135 1025.36 143.009 1032.41 154.955L1034.13 153.938L1035.85 152.922C1028.11 139.808 1013.84 131 997.5 131V133ZM1034.13 153.938L1034.57 155.888C1037.12 155.308 1039.77 155 1042.5 155V153V151C1039.47 151 1036.52 151.342 1033.68 151.989L1034.13 153.938ZM1042.5 153V155C1062.11 155 1078 170.894 1078 190.5H1080H1082C1082 168.685 1064.32 151 1042.5 151V153ZM1080 190.5H1078C1078 191.333 1077.97 192.163 1077.91 192.99L1079.91 193.128L1081.9 193.266C1081.96 192.357 1082 191.434 1082 190.5H1080ZM1079.91 193.128L1079.69 195.117C1089.98 196.211 1098 204.92 1098 215.5H1100H1102C1102 202.853 1092.42 192.447 1080.12 191.139L1079.91 193.128ZM1100 215.5H1098C1098 226.822 1088.82 236 1077.5 236V238V240C1091.03 240 1102 229.031 1102 215.5H1100ZM1077.5 238V236C1077.36 236 1077.21 235.997 1077.04 235.994L1077 237.993L1076.96 239.993C1077.12 239.996 1077.31 240 1077.5 240V238ZM1077 237.993H1075V238H1077H1079V237.993H1077ZM1077 238V236H917V238V240H1077V238ZM917 238H919V237.993H917H915V238H917ZM917 237.993L917.044 235.994C905.933 235.751 897 226.669 897 215.5H895H893C893 228.849 903.676 239.703 916.956 239.993L917 237.993ZM895 215.5H897C897 204.92 905.016 196.211 915.304 195.117L915.093 193.128L914.881 191.139C902.581 192.447 893 202.853 893 215.5H895ZM915.093 193.128L917.088 192.99C917.031 192.164 917 191.334 917 190.5H915H913C913 191.433 913.034 192.355 913.098 193.266L915.093 193.128ZM915 190.5H917C917 170.894 932.894 155 952.5 155V153V151C930.685 151 913 168.685 913 190.5H915ZM952.5 153V155C955.227 155 957.879 155.308 960.426 155.888L960.871 153.938L961.316 151.989C958.479 151.342 955.529 151 952.5 151V153ZM960.871 153.938L962.594 154.955C969.641 143.008 982.635 135 997.5 135V133V131C981.162 131 966.885 139.808 959.148 152.922L960.871 153.938Z" fill="black" mask="url(#path-75-inside-3_1_84)"/>
<path d="M962.907 206.224C962.523 206.224 962.213 206.128 961.979 205.936C961.744 205.723 961.552 205.413 961.403 205.008L954.331 184.816C954.181 184.368 954.213 183.995 954.427 183.696C954.661 183.376 955.024 183.216 955.515 183.216C955.877 183.216 956.165 183.312 956.379 183.504C956.592 183.675 956.773 183.952 956.923 184.336L963.547 203.76H962.427L969.179 184.432C969.328 184.027 969.509 183.728 969.723 183.536C969.936 183.323 970.224 183.216 970.587 183.216C970.928 183.216 971.195 183.323 971.387 183.536C971.6 183.728 971.781 184.027 971.931 184.432L978.587 203.76H977.595L984.283 184.336C984.389 183.973 984.549 183.696 984.763 183.504C984.997 183.312 985.296 183.216 985.659 183.216C986.107 183.216 986.437 183.365 986.651 183.664C986.864 183.963 986.885 184.347 986.715 184.816L979.611 205.008C979.461 205.413 979.269 205.723 979.035 205.936C978.821 206.128 978.512 206.224 978.107 206.224C977.723 206.224 977.413 206.128 977.179 205.936C976.965 205.723 976.773 205.413 976.603 205.008L970.171 186.48H970.875L964.379 205.008C964.229 205.413 964.048 205.723 963.835 205.936C963.621 206.128 963.312 206.224 962.907 206.224ZM995.674 206.288C994.032 206.288 992.613 205.968 991.418 205.328C990.245 204.667 989.328 203.739 988.666 202.544C988.026 201.349 987.706 199.92 987.706 198.256C987.706 196.635 988.026 195.227 988.666 194.032C989.306 192.816 990.181 191.867 991.29 191.184C992.421 190.501 993.722 190.16 995.194 190.16C996.24 190.16 997.178 190.341 998.01 190.704C998.842 191.045 999.546 191.547 1000.12 192.208C1000.72 192.869 1001.17 193.669 1001.47 194.608C1001.79 195.547 1001.95 196.603 1001.95 197.776C1001.95 198.117 1001.85 198.373 1001.66 198.544C1001.47 198.693 1001.19 198.768 1000.83 198.768H989.69V197.072H1000.22L999.706 197.488C999.706 196.336 999.536 195.365 999.194 194.576C998.853 193.765 998.352 193.147 997.69 192.72C997.05 192.293 996.24 192.08 995.258 192.08C994.17 192.08 993.242 192.336 992.474 192.848C991.728 193.339 991.162 194.032 990.778 194.928C990.394 195.803 990.202 196.827 990.202 198V198.192C990.202 200.155 990.672 201.648 991.61 202.672C992.57 203.696 993.925 204.208 995.674 204.208C996.4 204.208 997.114 204.112 997.818 203.92C998.544 203.728 999.248 203.408 999.93 202.96C1000.23 202.768 1000.5 202.683 1000.73 202.704C1000.99 202.704 1001.19 202.779 1001.34 202.928C1001.49 203.056 1001.58 203.227 1001.63 203.44C1001.69 203.632 1001.67 203.845 1001.56 204.08C1001.48 204.315 1001.3 204.517 1001.02 204.688C1000.31 205.2 999.482 205.595 998.522 205.872C997.562 206.149 996.613 206.288 995.674 206.288ZM1013.57 206.288C1012.16 206.288 1010.95 205.925 1009.92 205.2C1008.92 204.475 1008.25 203.504 1007.91 202.288L1008.26 201.936V204.88C1008.26 205.307 1008.14 205.637 1007.91 205.872C1007.69 206.107 1007.38 206.224 1006.98 206.224C1006.55 206.224 1006.23 206.107 1006.02 205.872C1005.8 205.637 1005.7 205.307 1005.7 204.88V184.528C1005.7 184.101 1005.8 183.781 1006.02 183.568C1006.23 183.333 1006.55 183.216 1006.98 183.216C1007.38 183.216 1007.7 183.333 1007.94 183.568C1008.17 183.781 1008.29 184.101 1008.29 184.528V194.064H1007.91C1008.27 192.869 1008.95 191.92 1009.95 191.216C1010.96 190.512 1012.16 190.16 1013.57 190.16C1014.98 190.16 1016.19 190.491 1017.22 191.152C1018.24 191.792 1019.03 192.72 1019.59 193.936C1020.16 195.131 1020.45 196.56 1020.45 198.224C1020.45 199.867 1020.16 201.296 1019.59 202.512C1019.03 203.707 1018.23 204.635 1017.19 205.296C1016.16 205.957 1014.96 206.288 1013.57 206.288ZM1013.03 204.208C1014.01 204.208 1014.85 203.973 1015.55 203.504C1016.28 203.035 1016.83 202.352 1017.22 201.456C1017.62 200.56 1017.83 199.483 1017.83 198.224C1017.83 196.283 1017.39 194.8 1016.51 193.776C1015.66 192.752 1014.5 192.24 1013.03 192.24C1012.07 192.24 1011.22 192.475 1010.5 192.944C1009.77 193.392 1009.21 194.064 1008.8 194.96C1008.42 195.835 1008.23 196.923 1008.23 198.224C1008.23 200.144 1008.66 201.627 1009.54 202.672C1010.41 203.696 1011.57 204.208 1013.03 204.208ZM1031.07 206.32C1029.92 206.32 1028.73 206.171 1027.49 205.872C1026.25 205.573 1025.18 205.125 1024.26 204.528C1023.83 204.251 1023.54 203.931 1023.39 203.568C1023.24 203.205 1023.2 202.864 1023.27 202.544C1023.35 202.203 1023.51 201.915 1023.75 201.68C1024 201.445 1024.31 201.307 1024.67 201.264C1025.06 201.221 1025.47 201.317 1025.92 201.552C1026.8 202.021 1027.64 202.363 1028.45 202.576C1029.26 202.768 1030.09 202.864 1030.95 202.864C1031.88 202.864 1032.67 202.736 1033.31 202.48C1033.95 202.224 1034.43 201.84 1034.75 201.328C1035.1 200.816 1035.27 200.197 1035.27 199.472C1035.27 198.405 1034.9 197.616 1034.18 197.104C1033.47 196.571 1032.44 196.304 1031.07 196.304H1029.03C1028.43 196.304 1027.97 196.155 1027.65 195.856C1027.35 195.557 1027.2 195.141 1027.2 194.608C1027.2 194.075 1027.35 193.659 1027.65 193.36C1027.97 193.061 1028.43 192.912 1029.03 192.912H1030.69C1031.5 192.912 1032.19 192.784 1032.77 192.528C1033.35 192.251 1033.79 191.867 1034.11 191.376C1034.43 190.885 1034.59 190.288 1034.59 189.584C1034.59 188.603 1034.26 187.856 1033.6 187.344C1032.96 186.832 1032.02 186.576 1030.79 186.576C1030 186.576 1029.25 186.672 1028.55 186.864C1027.86 187.035 1027.11 187.365 1026.27 187.856C1025.89 188.091 1025.52 188.187 1025.15 188.144C1024.81 188.101 1024.52 187.963 1024.29 187.728C1024.06 187.493 1023.9 187.216 1023.81 186.896C1023.72 186.555 1023.75 186.213 1023.87 185.872C1024 185.509 1024.27 185.2 1024.67 184.944C1025.59 184.347 1026.6 183.899 1027.71 183.6C1028.82 183.28 1029.96 183.12 1031.14 183.12C1032.7 183.12 1034.03 183.365 1035.14 183.856C1036.25 184.325 1037.09 185.008 1037.67 185.904C1038.26 186.779 1038.56 187.845 1038.56 189.104C1038.56 190 1038.39 190.821 1038.05 191.568C1037.71 192.293 1037.23 192.912 1036.61 193.424C1035.99 193.936 1035.24 194.299 1034.37 194.512V194.128C1035.91 194.384 1037.1 195.024 1037.95 196.048C1038.81 197.051 1039.23 198.309 1039.23 199.824C1039.23 201.147 1038.9 202.299 1038.24 203.28C1037.58 204.261 1036.64 205.019 1035.43 205.552C1034.21 206.064 1032.76 206.32 1031.07 206.32Z" fill="black"/>
<g clip-path="url(#clip12_1_84)">
<rect x="933" y="384" width="110" height="110" rx="55" fill="#6E66FF"/>
<rect x="904.812" y="411.5" width="169.812" height="27.5" stroke="black" stroke-width="2"/>
<rect x="904.812" y="439" width="169.812" height="27.5" stroke="black" stroke-width="2"/>
<path d="M970.812 378.125C980.774 378.125 989.954 384.736 996.696 395.77C1003.43 406.785 1007.62 422.067 1007.62 439C1007.62 455.933 1003.43 471.215 996.696 482.23C989.954 493.264 980.774 499.875 970.812 499.875C960.851 499.875 951.671 493.264 944.929 482.23C938.197 471.215 934 455.933 934 439C934 422.067 938.197 406.785 944.929 395.77C951.671 384.736 960.851 378.125 970.812 378.125Z" stroke="black" stroke-width="2"/>
<path d="M1005.19 378.125C1015.15 378.125 1024.33 384.736 1031.07 395.77C1037.8 406.785 1042 422.067 1042 439C1042 455.933 1037.8 471.215 1031.07 482.23C1024.33 493.264 1015.15 499.875 1005.19 499.875C995.226 499.875 986.046 493.264 979.304 482.23C972.572 471.215 968.375 455.933 968.375 439C968.375 422.067 972.572 406.785 979.304 395.77C986.046 384.736 995.226 378.125 1005.19 378.125Z" stroke="black" stroke-width="2"/>
</g>
<rect x="934" y="385" width="108" height="108" rx="54" stroke="black" stroke-width="2"/>
<g clip-path="url(#clip13_1_84)">
<rect x="848" y="508" width="60" height="60" rx="30" fill="#6E66FF"/>
<rect x="832.625" y="523" width="92.625" height="15" stroke="black" stroke-width="2"/>
<rect x="832.625" y="538" width="92.625" height="15" stroke="black" stroke-width="2"/>
<path d="M868.625 505.25C873.84 505.25 878.723 508.713 882.355 514.656C885.977 520.583 888.25 528.834 888.25 538C888.25 547.166 885.977 555.417 882.355 561.344C878.723 567.287 873.84 570.75 868.625 570.75C863.41 570.75 858.527 567.287 854.895 561.344C851.273 555.417 849 547.166 849 538C849 528.834 851.273 520.583 854.895 514.656C858.527 508.713 863.41 505.25 868.625 505.25Z" stroke="black" stroke-width="2"/>
<path d="M887.375 505.25C892.59 505.25 897.473 508.713 901.105 514.656C904.727 520.583 907 528.834 907 538C907 547.166 904.727 555.417 901.105 561.344C897.473 567.287 892.59 570.75 887.375 570.75C882.16 570.75 877.277 567.287 873.645 561.344C870.023 555.417 867.75 547.166 867.75 538C867.75 528.834 870.023 520.583 873.645 514.656C877.277 508.713 882.16 505.25 887.375 505.25Z" stroke="black" stroke-width="2"/>
</g>
<rect x="849" y="509" width="58" height="58" rx="29" stroke="black" stroke-width="2"/>
<g clip-path="url(#clip14_1_84)">
<rect x="848" y="475" width="60" height="60" rx="30" fill="#F4DDFF"/>
<circle cx="878" cy="497.5" r="14" fill="white" stroke="black" stroke-width="2"/>
<circle cx="878" cy="536.5" r="21.5" fill="#50FFF6" stroke="black" stroke-width="2"/>
</g>
<rect x="849" y="476" width="58" height="58" rx="29" stroke="black" stroke-width="2"/>
<g clip-path="url(#clip15_1_84)">
<rect x="1068" y="508" width="60" height="60" rx="30" fill="#6E66FF"/>
<rect x="1052.62" y="523" width="92.625" height="15" stroke="black" stroke-width="2"/>
<rect x="1052.62" y="538" width="92.625" height="15" stroke="black" stroke-width="2"/>
<path d="M1088.62 505.25C1093.84 505.25 1098.72 508.713 1102.36 514.656C1105.98 520.583 1108.25 528.834 1108.25 538C1108.25 547.166 1105.98 555.417 1102.36 561.344C1098.72 567.287 1093.84 570.75 1088.62 570.75C1083.41 570.75 1078.53 567.287 1074.89 561.344C1071.27 555.417 1069 547.166 1069 538C1069 528.834 1071.27 520.583 1074.89 514.656C1078.53 508.713 1083.41 505.25 1088.62 505.25Z" stroke="black" stroke-width="2"/>
<path d="M1107.38 505.25C1112.59 505.25 1117.47 508.713 1121.11 514.656C1124.73 520.583 1127 528.834 1127 538C1127 547.166 1124.73 555.417 1121.11 561.344C1117.47 567.287 1112.59 570.75 1107.38 570.75C1102.16 570.75 1097.28 567.287 1093.64 561.344C1090.02 555.417 1087.75 547.166 1087.75 538C1087.75 528.834 1090.02 520.583 1093.64 514.656C1097.28 508.713 1102.16 505.25 1107.38 505.25Z" stroke="black" stroke-width="2"/>
</g>
<rect x="1069" y="509" width="58" height="58" rx="29" stroke="black" stroke-width="2"/>
<g clip-path="url(#clip16_1_84)">
<rect x="1068" y="475" width="60" height="60" rx="30" fill="#F4DDFF"/>
<circle cx="1098" cy="497.5" r="14" fill="white" stroke="black" stroke-width="2"/>
<circle cx="1098" cy="536.5" r="21.5" fill="#50FFF6" stroke="black" stroke-width="2"/>
</g>
<rect x="1069" y="476" width="58" height="58" rx="29" stroke="black" stroke-width="2"/>
<g clip-path="url(#clip17_1_84)">
<rect x="958" y="566" width="60" height="60" rx="30" fill="#6E66FF"/>
<rect x="942.625" y="581" width="92.625" height="15" stroke="black" stroke-width="2"/>
<rect x="942.625" y="596" width="92.625" height="15" stroke="black" stroke-width="2"/>
<path d="M978.625 563.25C983.84 563.25 988.723 566.713 992.355 572.656C995.977 578.583 998.25 586.834 998.25 596C998.25 605.166 995.977 613.417 992.355 619.344C988.723 625.287 983.84 628.75 978.625 628.75C973.41 628.75 968.527 625.287 964.895 619.344C961.273 613.417 959 605.166 959 596C959 586.834 961.273 578.583 964.895 572.656C968.527 566.713 973.41 563.25 978.625 563.25Z" stroke="black" stroke-width="2"/>
<path d="M997.375 563.25C1002.59 563.25 1007.47 566.713 1011.11 572.656C1014.73 578.583 1017 586.834 1017 596C1017 605.166 1014.73 613.417 1011.11 619.344C1007.47 625.287 1002.59 628.75 997.375 628.75C992.16 628.75 987.277 625.287 983.645 619.344C980.023 613.417 977.75 605.166 977.75 596C977.75 586.834 980.023 578.583 983.645 572.656C987.277 566.713 992.16 563.25 997.375 563.25Z" stroke="black" stroke-width="2"/>
</g>
<rect x="959" y="567" width="58" height="58" rx="29" stroke="black" stroke-width="2"/>
<g clip-path="url(#clip18_1_84)">
<rect x="958" y="533" width="60" height="60" rx="30" fill="#F4DDFF"/>
<circle cx="988" cy="555.5" r="14" fill="white" stroke="black" stroke-width="2"/>
<circle cx="988" cy="594.5" r="21.5" fill="#50FFF6" stroke="black" stroke-width="2"/>
</g>
<rect x="959" y="534" width="58" height="58" rx="29" stroke="black" stroke-width="2"/>
<g clip-path="url(#clip19_1_84)">
<rect x="848" y="315" width="60" height="60" rx="30" fill="#6E66FF"/>
<rect x="832.625" y="330" width="92.625" height="15" stroke="black" stroke-width="2"/>
<rect x="832.625" y="345" width="92.625" height="15" stroke="black" stroke-width="2"/>
<path d="M868.625 312.25C873.84 312.25 878.723 315.713 882.355 321.656C885.977 327.583 888.25 335.834 888.25 345C888.25 354.166 885.977 362.417 882.355 368.344C878.723 374.287 873.84 377.75 868.625 377.75C863.41 377.75 858.527 374.287 854.895 368.344C851.273 362.417 849 354.166 849 345C849 335.834 851.273 327.583 854.895 321.656C858.527 315.713 863.41 312.25 868.625 312.25Z" stroke="black" stroke-width="2"/>
<path d="M887.375 312.25C892.59 312.25 897.473 315.713 901.105 321.656C904.727 327.583 907 335.834 907 345C907 354.166 904.727 362.417 901.105 368.344C897.473 374.287 892.59 377.75 887.375 377.75C882.16 377.75 877.277 374.287 873.645 368.344C870.023 362.417 867.75 354.166 867.75 345C867.75 335.834 870.023 327.583 873.645 321.656C877.277 315.713 882.16 312.25 887.375 312.25Z" stroke="black" stroke-width="2"/>
</g>
<rect x="849" y="316" width="58" height="58" rx="29" stroke="black" stroke-width="2"/>
<g clip-path="url(#clip20_1_84)">
<rect x="848" y="348" width="60" height="60" rx="30" fill="#F4DDFF"/>
<circle cx="878" cy="370.5" r="14" fill="white" stroke="black" stroke-width="2"/>
<circle cx="878" cy="409.5" r="21.5" fill="#50FFF6" stroke="black" stroke-width="2"/>
</g>
<rect x="849" y="349" width="58" height="58" rx="29" stroke="black" stroke-width="2"/>
<g clip-path="url(#clip21_1_84)">
<rect x="1068" y="315" width="60" height="60" rx="30" fill="#6E66FF"/>
<rect x="1052.62" y="330" width="92.625" height="15" stroke="black" stroke-width="2"/>
<rect x="1052.62" y="345" width="92.625" height="15" stroke="black" stroke-width="2"/>
<path d="M1088.62 312.25C1093.84 312.25 1098.72 315.713 1102.36 321.656C1105.98 327.583 1108.25 335.834 1108.25 345C1108.25 354.166 1105.98 362.417 1102.36 368.344C1098.72 374.287 1093.84 377.75 1088.62 377.75C1083.41 377.75 1078.53 374.287 1074.89 368.344C1071.27 362.417 1069 354.166 1069 345C1069 335.834 1071.27 327.583 1074.89 321.656C1078.53 315.713 1083.41 312.25 1088.62 312.25Z" stroke="black" stroke-width="2"/>
<path d="M1107.38 312.25C1112.59 312.25 1117.47 315.713 1121.11 321.656C1124.73 327.583 1127 335.834 1127 345C1127 354.166 1124.73 362.417 1121.11 368.344C1117.47 374.287 1112.59 377.75 1107.38 377.75C1102.16 377.75 1097.28 374.287 1093.64 368.344C1090.02 362.417 1087.75 354.166 1087.75 345C1087.75 335.834 1090.02 327.583 1093.64 321.656C1097.28 315.713 1102.16 312.25 1107.38 312.25Z" stroke="black" stroke-width="2"/>
</g>
<rect x="1069" y="316" width="58" height="58" rx="29" stroke="black" stroke-width="2"/>
<g clip-path="url(#clip22_1_84)">
<rect x="1068" y="348" width="60" height="60" rx="30" fill="#F4DDFF"/>
<circle cx="1098" cy="370.5" r="14" fill="white" stroke="black" stroke-width="2"/>
<circle cx="1098" cy="409.5" r="21.5" fill="#50FFF6" stroke="black" stroke-width="2"/>
</g>
<rect x="1069" y="349" width="58" height="58" rx="29" stroke="black" stroke-width="2"/>
<g clip-path="url(#clip23_1_84)">
<rect x="958" y="253" width="60" height="60" rx="30" fill="#6E66FF"/>
<rect x="942.625" y="268" width="92.625" height="15" stroke="black" stroke-width="2"/>
<rect x="942.625" y="283" width="92.625" height="15" stroke="black" stroke-width="2"/>
<path d="M978.625 250.25C983.84 250.25 988.723 253.713 992.355 259.656C995.977 265.583 998.25 273.834 998.25 283C998.25 292.166 995.977 300.417 992.355 306.344C988.723 312.287 983.84 315.75 978.625 315.75C973.41 315.75 968.527 312.287 964.895 306.344C961.273 300.417 959 292.166 959 283C959 273.834 961.273 265.583 964.895 259.656C968.527 253.713 973.41 250.25 978.625 250.25Z" stroke="black" stroke-width="2"/>
<path d="M997.375 250.25C1002.59 250.25 1007.47 253.713 1011.11 259.656C1014.73 265.583 1017 273.834 1017 283C1017 292.166 1014.73 300.417 1011.11 306.344C1007.47 312.287 1002.59 315.75 997.375 315.75C992.16 315.75 987.277 312.287 983.645 306.344C980.023 300.417 977.75 292.166 977.75 283C977.75 273.834 980.023 265.583 983.645 259.656C987.277 253.713 992.16 250.25 997.375 250.25Z" stroke="black" stroke-width="2"/>
</g>
<rect x="959" y="254" width="58" height="58" rx="29" stroke="black" stroke-width="2"/>
<g clip-path="url(#clip24_1_84)">
<rect x="958" y="286" width="60" height="60" rx="30" fill="#F4DDFF"/>
<circle cx="988" cy="308.5" r="14" fill="white" stroke="black" stroke-width="2"/>
<circle cx="988" cy="347.5" r="21.5" fill="#50FFF6" stroke="black" stroke-width="2"/>
</g>
<rect x="959" y="287" width="58" height="58" rx="29" stroke="black" stroke-width="2"/>
<path d="M1045.79 465C1045.24 465 1044.79 465.448 1044.79 466L1044.79 475C1044.79 475.552 1045.24 476 1045.79 476C1046.34 476 1046.79 475.552 1046.79 475L1046.79 467L1054.79 467C1055.34 467 1055.79 466.552 1055.79 466C1055.79 465.448 1055.34 465 1054.79 465L1045.79 465ZM1064.58 485.788C1065.13 485.788 1065.58 485.34 1065.58 484.788L1065.58 475.788C1065.58 475.236 1065.13 474.788 1064.58 474.788C1064.02 474.788 1063.58 475.236 1063.58 475.788L1063.58 483.788L1055.58 483.788C1055.02 483.788 1054.58 484.236 1054.58 484.788C1054.58 485.34 1055.02 485.788 1055.58 485.788L1064.58 485.788ZM1045.79 466L1045.08 466.707L1063.87 485.495L1064.58 484.788L1065.28 484.081L1046.49 465.293L1045.79 466Z" fill="black"/>
<path d="M988.636 498.937C988.246 498.547 987.612 498.547 987.222 498.937L980.858 505.301C980.467 505.692 980.467 506.325 980.858 506.716C981.248 507.106 981.882 507.106 982.272 506.716L987.929 501.059L993.586 506.716C993.976 507.106 994.609 507.106 995 506.716C995.391 506.325 995.391 505.692 995 505.301L988.636 498.937ZM987.222 526.922C987.612 527.312 988.246 527.312 988.636 526.922L995 520.558C995.391 520.167 995.391 519.534 995 519.143C994.609 518.753 993.976 518.753 993.586 519.143L987.929 524.8L982.272 519.143C981.882 518.753 981.248 518.753 980.858 519.143C980.467 519.534 980.467 520.167 980.858 520.558L987.222 526.922ZM987.929 499.645H986.929V526.215H987.929H988.929V499.645H987.929Z" fill="black"/>
<path d="M930.788 466C930.788 465.448 930.34 465 929.788 465L920.788 465C920.236 465 919.788 465.448 919.788 466C919.788 466.552 920.236 467 920.788 467L928.788 467L928.788 475C928.788 475.552 929.236 476 929.788 476C930.34 476 930.788 475.552 930.788 475L930.788 466ZM910 484.788C910 485.34 910.448 485.788 911 485.788L920 485.788C920.552 485.788 921 485.34 921 484.788C921 484.236 920.552 483.788 920 483.788L912 483.788L912 475.788C912 475.236 911.552 474.788 911 474.788C910.448 474.788 910 475.236 910 475.788L910 484.788ZM929.788 466L929.081 465.293L910.293 484.081L911 484.788L911.707 485.495L930.495 466.707L929.788 466Z" fill="black"/>
<path d="M930.212 414.214C930.765 414.214 931.212 413.767 931.212 413.214L931.212 404.214C931.212 403.662 930.765 403.214 930.212 403.214C929.66 403.214 929.212 403.662 929.212 404.214L929.212 412.214L921.212 412.214C920.66 412.214 920.212 412.662 920.212 413.214C920.212 413.767 920.66 414.214 921.212 414.214L930.212 414.214ZM911.424 393.427C910.872 393.427 910.424 393.874 910.424 394.427L910.424 403.427C910.424 403.979 910.872 404.427 911.424 404.427C911.977 404.427 912.424 403.979 912.424 403.427L912.424 395.427L920.424 395.427C920.977 395.427 921.424 394.979 921.424 394.427C921.424 393.874 920.977 393.427 920.424 393.427L911.424 393.427ZM930.212 413.214L930.919 412.507L912.132 393.72L911.424 394.427L910.717 395.134L929.505 413.922L930.212 413.214Z" fill="black"/>
<path d="M987.364 380.277C987.754 380.668 988.388 380.668 988.778 380.277L995.142 373.913C995.533 373.523 995.533 372.889 995.142 372.499C994.752 372.108 994.118 372.108 993.728 372.499L988.071 378.156L982.414 372.499C982.024 372.108 981.391 372.108 981 372.499C980.609 372.889 980.609 373.523 981 373.913L987.364 380.277ZM988.778 352.293C988.388 351.902 987.754 351.902 987.364 352.293L981 358.657C980.609 359.047 980.609 359.681 981 360.071C981.391 360.462 982.024 360.462 982.414 360.071L988.071 354.414L993.728 360.071C994.118 360.462 994.752 360.462 995.142 360.071C995.533 359.681 995.533 359.047 995.142 358.657L988.778 352.293ZM988.071 379.57L989.071 379.57L989.071 353L988.071 353L987.071 353L987.071 379.57L988.071 379.57Z" fill="black"/>
<path d="M1045.21 413.214C1045.21 413.767 1045.66 414.214 1046.21 414.214L1055.21 414.214C1055.76 414.214 1056.21 413.767 1056.21 413.214C1056.21 412.662 1055.76 412.214 1055.21 412.214L1047.21 412.214L1047.21 404.214C1047.21 403.662 1046.76 403.214 1046.21 403.214C1045.66 403.214 1045.21 403.662 1045.21 404.214L1045.21 413.214ZM1066 394.427C1066 393.874 1065.55 393.427 1065 393.427L1056 393.427C1055.45 393.427 1055 393.874 1055 394.427C1055 394.979 1055.45 395.427 1056 395.427L1064 395.427L1064 403.427C1064 403.979 1064.45 404.427 1065 404.427C1065.55 404.427 1066 403.979 1066 403.427L1066 394.427ZM1046.21 413.214L1046.92 413.922L1065.71 395.134L1065 394.427L1064.29 393.72L1045.51 412.507L1046.21 413.214Z" fill="black"/>
<path d="M1098.71 411.293C1098.32 410.902 1097.68 410.902 1097.29 411.293L1090.93 417.657C1090.54 418.047 1090.54 418.681 1090.93 419.071C1091.32 419.462 1091.95 419.462 1092.34 419.071L1098 413.414L1103.66 419.071C1104.05 419.462 1104.68 419.462 1105.07 419.071C1105.46 418.681 1105.46 418.047 1105.07 417.657L1098.71 411.293ZM1097.29 466.707C1097.68 467.098 1098.32 467.098 1098.71 466.707L1105.07 460.343C1105.46 459.953 1105.46 459.319 1105.07 458.929C1104.68 458.538 1104.05 458.538 1103.66 458.929L1098 464.586L1092.34 458.929C1091.95 458.538 1091.32 458.538 1090.93 458.929C1090.54 459.319 1090.54 459.953 1090.93 460.343L1097.29 466.707ZM1098 412H1097V466H1098H1099V412H1098Z" fill="black"/>
<path d="M878.707 411.293C878.317 410.902 877.683 410.902 877.293 411.293L870.929 417.657C870.538 418.047 870.538 418.681 870.929 419.071C871.319 419.462 871.953 419.462 872.343 419.071L878 413.414L883.657 419.071C884.047 419.462 884.681 419.462 885.071 419.071C885.462 418.681 885.462 418.047 885.071 417.657L878.707 411.293ZM877.293 466.707C877.683 467.098 878.317 467.098 878.707 466.707L885.071 460.343C885.462 459.953 885.462 459.319 885.071 458.929C884.681 458.538 884.047 458.538 883.657 458.929L878 464.586L872.343 458.929C871.953 458.538 871.319 458.538 870.929 458.929C870.538 459.319 870.538 459.953 870.929 460.343L877.293 466.707ZM878 412H877V466H878H879V412H878Z" fill="black"/>
<path d="M952.322 548.175C952.865 548.079 953.229 547.561 953.133 547.017L951.57 538.154C951.474 537.61 950.955 537.247 950.411 537.342C949.868 537.438 949.504 537.957 949.6 538.501L950.989 546.379L943.111 547.769C942.567 547.864 942.204 548.383 942.3 548.927C942.396 549.471 942.914 549.834 943.458 549.738L952.322 548.175ZM913.826 519.494C913.282 519.59 912.919 520.109 913.015 520.653L914.578 529.516C914.674 530.06 915.193 530.423 915.736 530.327C916.28 530.231 916.644 529.713 916.548 529.169L915.158 521.29L923.037 519.901C923.581 519.805 923.944 519.286 923.848 518.743C923.752 518.199 923.233 517.835 922.69 517.931L913.826 519.494ZM952.148 547.19L952.721 546.371L914.574 519.66L914 520.479L913.426 521.298L951.574 548.01L952.148 547.19Z" fill="black"/>
<path d="M1023.07 545.682C1022.97 546.225 1023.33 546.744 1023.88 546.84L1032.74 548.403C1033.28 548.499 1033.8 548.136 1033.9 547.592C1033.99 547.048 1033.63 546.529 1033.09 546.433L1025.21 545.044L1026.6 537.166C1026.69 536.622 1026.33 536.103 1025.79 536.007C1025.24 535.911 1024.72 536.274 1024.63 536.818L1023.07 545.682ZM1063.18 519.317C1063.28 518.773 1062.92 518.255 1062.37 518.159L1053.51 516.596C1052.96 516.5 1052.45 516.863 1052.35 517.407C1052.25 517.951 1052.62 518.47 1053.16 518.566L1061.04 519.955L1059.65 527.833C1059.55 528.377 1059.92 528.896 1060.46 528.992C1061.01 529.088 1061.52 528.725 1061.62 528.181L1063.18 519.317ZM1024.05 545.855L1024.62 546.674L1062.77 519.963L1062.2 519.144L1061.62 518.325L1023.48 545.036L1024.05 545.855Z" fill="black"/>
<path d="M1023.68 330.015C1023.13 330.111 1022.77 330.63 1022.87 331.174L1024.43 340.037C1024.53 340.581 1025.04 340.944 1025.59 340.848C1026.13 340.752 1026.5 340.234 1026.4 339.69L1025.01 331.811L1032.89 330.422C1033.43 330.326 1033.8 329.807 1033.7 329.264C1033.6 328.72 1033.09 328.356 1032.54 328.452L1023.68 330.015ZM1062.17 358.696C1062.72 358.6 1063.08 358.082 1062.98 357.538L1061.42 348.675C1061.33 348.131 1060.81 347.767 1060.26 347.863C1059.72 347.959 1059.36 348.478 1059.45 349.022L1060.84 356.9L1052.96 358.289C1052.42 358.385 1052.06 358.904 1052.15 359.448C1052.25 359.992 1052.77 360.355 1053.31 360.259L1062.17 358.696ZM1023.85 331L1023.28 331.819L1061.43 358.531L1062 357.711L1062.57 356.892L1024.43 330.181L1023.85 331Z" fill="black"/>
<path d="M952.934 332.509C953.03 331.965 952.667 331.446 952.123 331.35L943.26 329.788C942.716 329.692 942.198 330.055 942.102 330.599C942.006 331.143 942.369 331.661 942.913 331.757L950.791 333.146L949.402 341.025C949.306 341.569 949.669 342.087 950.213 342.183C950.757 342.279 951.276 341.916 951.372 341.372L952.934 332.509ZM912.817 358.873C912.721 359.417 913.084 359.936 913.628 360.032L922.491 361.594C923.035 361.69 923.554 361.327 923.65 360.783C923.746 360.239 923.383 359.721 922.839 359.625L914.96 358.236L916.349 350.357C916.445 349.813 916.082 349.295 915.538 349.199C914.994 349.103 914.476 349.466 914.38 350.01L912.817 358.873ZM951.95 332.335L951.376 331.516L913.228 358.228L913.802 359.047L914.375 359.866L952.523 333.154L951.95 332.335Z" fill="black"/>
<path d="M954.911 96.224C954.463 96.224 954.111 96.1067 953.855 95.872C953.62 95.616 953.503 95.2533 953.503 94.784V74.88C953.503 74.4107 953.62 74.0587 953.855 73.824C954.111 73.568 954.473 73.44 954.943 73.44H966.559C966.921 73.44 967.199 73.536 967.391 73.728C967.583 73.92 967.679 74.1867 967.679 74.528C967.679 74.8907 967.583 75.168 967.391 75.36C967.199 75.552 966.921 75.648 966.559 75.648H956.127V83.52H965.887C966.249 83.52 966.527 83.616 966.719 83.808C966.932 84 967.039 84.2667 967.039 84.608C967.039 84.9707 966.932 85.248 966.719 85.44C966.527 85.632 966.249 85.728 965.887 85.728H956.127V94.784C956.127 95.744 955.721 96.224 954.911 96.224ZM975.842 96.288C974.584 96.288 973.538 96.064 972.706 95.616C971.896 95.1467 971.277 94.4533 970.85 93.536C970.445 92.6187 970.242 91.4773 970.242 90.112V81.536C970.242 81.088 970.349 80.7573 970.562 80.544C970.797 80.3307 971.117 80.224 971.522 80.224C971.949 80.224 972.269 80.3307 972.482 80.544C972.717 80.7573 972.834 81.088 972.834 81.536V90.08C972.834 91.4453 973.112 92.4693 973.666 93.152C974.242 93.8133 975.138 94.144 976.354 94.144C977.677 94.144 978.754 93.696 979.586 92.8C980.418 91.904 980.834 90.7307 980.834 89.28V81.536C980.834 81.088 980.941 80.7573 981.154 80.544C981.389 80.3307 981.72 80.224 982.146 80.224C982.552 80.224 982.861 80.3307 983.074 80.544C983.309 80.7573 983.426 81.088 983.426 81.536V94.88C983.426 95.776 983.01 96.224 982.178 96.224C981.773 96.224 981.453 96.1067 981.218 95.872C981.005 95.6373 980.898 95.3067 980.898 94.88V91.968L981.314 92.416C980.888 93.6747 980.184 94.6347 979.202 95.296C978.242 95.9573 977.122 96.288 975.842 96.288ZM994.516 96.288C993.3 96.288 992.276 96.0747 991.444 95.648C990.633 95.2 990.025 94.56 989.62 93.728C989.214 92.8747 989.012 91.84 989.012 90.624V82.464H986.868C986.505 82.464 986.228 82.3787 986.036 82.208C985.844 82.016 985.748 81.76 985.748 81.44C985.748 81.12 985.844 80.8747 986.036 80.704C986.228 80.5333 986.505 80.448 986.868 80.448H989.012V76.768C989.012 76.3413 989.129 76.0213 989.364 75.808C989.598 75.5733 989.918 75.456 990.324 75.456C990.729 75.456 991.038 75.5733 991.252 75.808C991.486 76.0213 991.604 76.3413 991.604 76.768V80.448H995.636C995.998 80.448 996.276 80.5333 996.468 80.704C996.66 80.8747 996.756 81.12 996.756 81.44C996.756 81.76 996.66 82.016 996.468 82.208C996.276 82.3787 995.998 82.464 995.636 82.464H991.604V90.368C991.604 91.584 991.86 92.512 992.372 93.152C992.884 93.7707 993.716 94.08 994.868 94.08C995.273 94.08 995.614 94.0373 995.892 93.952C996.19 93.8667 996.436 93.824 996.628 93.824C996.82 93.8027 996.98 93.8667 997.108 94.016C997.236 94.1653 997.3 94.4213 997.3 94.784C997.3 95.04 997.246 95.2747 997.14 95.488C997.054 95.7013 996.894 95.8507 996.66 95.936C996.404 96.0213 996.062 96.096 995.636 96.16C995.23 96.2453 994.857 96.288 994.516 96.288ZM1004.97 96.288C1003.71 96.288 1002.66 96.064 1001.83 95.616C1001.02 95.1467 1000.4 94.4533 999.975 93.536C999.57 92.6187 999.367 91.4773 999.367 90.112V81.536C999.367 81.088 999.474 80.7573 999.687 80.544C999.922 80.3307 1000.24 80.224 1000.65 80.224C1001.07 80.224 1001.39 80.3307 1001.61 80.544C1001.84 80.7573 1001.96 81.088 1001.96 81.536V90.08C1001.96 91.4453 1002.24 92.4693 1002.79 93.152C1003.37 93.8133 1004.26 94.144 1005.48 94.144C1006.8 94.144 1007.88 93.696 1008.71 92.8C1009.54 91.904 1009.96 90.7307 1009.96 89.28V81.536C1009.96 81.088 1010.07 80.7573 1010.28 80.544C1010.51 80.3307 1010.84 80.224 1011.27 80.224C1011.68 80.224 1011.99 80.3307 1012.2 80.544C1012.43 80.7573 1012.55 81.088 1012.55 81.536V94.88C1012.55 95.776 1012.14 96.224 1011.3 96.224C1010.9 96.224 1010.58 96.1067 1010.34 95.872C1010.13 95.6373 1010.02 95.3067 1010.02 94.88V91.968L1010.44 92.416C1010.01 93.6747 1009.31 94.6347 1008.33 95.296C1007.37 95.9573 1006.25 96.288 1004.97 96.288ZM1018.71 96.224C1018.29 96.224 1017.96 96.1067 1017.72 95.872C1017.51 95.6373 1017.4 95.3067 1017.4 94.88V81.536C1017.4 81.1093 1017.51 80.7893 1017.72 80.576C1017.93 80.3413 1018.24 80.224 1018.65 80.224C1019.05 80.224 1019.36 80.3413 1019.58 80.576C1019.81 80.7893 1019.93 81.1093 1019.93 81.536V84.128H1019.61C1019.95 82.8693 1020.6 81.8987 1021.56 81.216C1022.52 80.5333 1023.7 80.1707 1025.11 80.128C1025.43 80.1067 1025.69 80.1813 1025.88 80.352C1026.07 80.5013 1026.18 80.768 1026.2 81.152C1026.22 81.5147 1026.14 81.8027 1025.94 82.016C1025.75 82.2293 1025.45 82.3573 1025.05 82.4L1024.54 82.464C1023.09 82.592 1021.97 83.0613 1021.18 83.872C1020.41 84.6613 1020.02 85.7493 1020.02 87.136V94.88C1020.02 95.3067 1019.91 95.6373 1019.67 95.872C1019.46 96.1067 1019.14 96.224 1018.71 96.224ZM1035.69 96.288C1034.05 96.288 1032.63 95.968 1031.43 95.328C1030.26 94.6667 1029.34 93.7387 1028.68 92.544C1028.04 91.3493 1027.72 89.92 1027.72 88.256C1027.72 86.6347 1028.04 85.2267 1028.68 84.032C1029.32 82.816 1030.2 81.8667 1031.31 81.184C1032.44 80.5013 1033.74 80.16 1035.21 80.16C1036.26 80.16 1037.19 80.3413 1038.03 80.704C1038.86 81.0453 1039.56 81.5467 1040.14 82.208C1040.74 82.8693 1041.18 83.6693 1041.48 84.608C1041.8 85.5467 1041.96 86.6027 1041.96 87.776C1041.96 88.1173 1041.87 88.3733 1041.67 88.544C1041.48 88.6933 1041.2 88.768 1040.84 88.768H1029.71V87.072H1040.23L1039.72 87.488C1039.72 86.336 1039.55 85.3653 1039.21 84.576C1038.87 83.7653 1038.37 83.1467 1037.71 82.72C1037.07 82.2933 1036.26 82.08 1035.27 82.08C1034.19 82.08 1033.26 82.336 1032.49 82.848C1031.74 83.3387 1031.18 84.032 1030.79 84.928C1030.41 85.8027 1030.22 86.8267 1030.22 88V88.192C1030.22 90.1547 1030.69 91.648 1031.63 92.672C1032.59 93.696 1033.94 94.208 1035.69 94.208C1036.42 94.208 1037.13 94.112 1037.83 93.92C1038.56 93.728 1039.26 93.408 1039.95 92.96C1040.24 92.768 1040.51 92.6827 1040.75 92.704C1041 92.704 1041.2 92.7787 1041.35 92.928C1041.5 93.056 1041.6 93.2267 1041.64 93.44C1041.71 93.632 1041.68 93.8453 1041.58 94.08C1041.49 94.3147 1041.31 94.5173 1041.03 94.688C1040.33 95.2 1039.5 95.5947 1038.54 95.872C1037.58 96.1493 1036.63 96.288 1035.69 96.288Z" fill="black"/>
<defs>
<clipPath id="clip0_1_84">
<rect x="120" y="262" width="160" height="160" rx="80" fill="white"/>
</clipPath>
<clipPath id="clip1_1_84">
<rect x="110" y="532" width="60" height="60" rx="30" fill="white"/>
</clipPath>
<clipPath id="clip2_1_84">
<rect x="110" y="499" width="60" height="60" rx="30" fill="white"/>
</clipPath>
<clipPath id="clip3_1_84">
<rect x="230" y="532" width="60" height="60" rx="30" fill="white"/>
</clipPath>
<clipPath id="clip4_1_84">
<rect x="230" y="499" width="60" height="60" rx="30" fill="white"/>
</clipPath>
<clipPath id="clip5_1_84">
<rect x="539" y="386" width="110" height="110" rx="55" fill="white"/>
</clipPath>
<clipPath id="clip6_1_84">
<rect x="454" y="475" width="60" height="60" rx="30" fill="white"/>
</clipPath>
<clipPath id="clip7_1_84">
<rect x="674" y="475" width="60" height="60" rx="30" fill="white"/>
</clipPath>
<clipPath id="clip8_1_84">
<rect x="564" y="529" width="60" height="60" rx="30" fill="white"/>
</clipPath>
<clipPath id="clip9_1_84">
<rect x="454" y="348" width="60" height="60" rx="30" fill="white"/>
</clipPath>
<clipPath id="clip10_1_84">
<rect x="674" y="348" width="60" height="60" rx="30" fill="white"/>
</clipPath>
<clipPath id="clip11_1_84">
<rect x="564" y="282" width="60" height="60" rx="30" fill="white"/>
</clipPath>
<clipPath id="clip12_1_84">
<rect x="933" y="384" width="110" height="110" rx="55" fill="white"/>
</clipPath>
<clipPath id="clip13_1_84">
<rect x="848" y="508" width="60" height="60" rx="30" fill="white"/>
</clipPath>
<clipPath id="clip14_1_84">
<rect x="848" y="475" width="60" height="60" rx="30" fill="white"/>
</clipPath>
<clipPath id="clip15_1_84">
<rect x="1068" y="508" width="60" height="60" rx="30" fill="white"/>
</clipPath>
<clipPath id="clip16_1_84">
<rect x="1068" y="475" width="60" height="60" rx="30" fill="white"/>
</clipPath>
<clipPath id="clip17_1_84">
<rect x="958" y="566" width="60" height="60" rx="30" fill="white"/>
</clipPath>
<clipPath id="clip18_1_84">
<rect x="958" y="533" width="60" height="60" rx="30" fill="white"/>
</clipPath>
<clipPath id="clip19_1_84">
<rect x="848" y="315" width="60" height="60" rx="30" fill="white"/>
</clipPath>
<clipPath id="clip20_1_84">
<rect x="848" y="348" width="60" height="60" rx="30" fill="white"/>
</clipPath>
<clipPath id="clip21_1_84">
<rect x="1068" y="315" width="60" height="60" rx="30" fill="white"/>
</clipPath>
<clipPath id="clip22_1_84">
<rect x="1068" y="348" width="60" height="60" rx="30" fill="white"/>
</clipPath>
<clipPath id="clip23_1_84">
<rect x="958" y="253" width="60" height="60" rx="30" fill="white"/>
</clipPath>
<clipPath id="clip24_1_84">
<rect x="958" y="286" width="60" height="60" rx="30" fill="white"/>
</clipPath>
</defs>
</svg>
