<svg width="1296" height="370" viewBox="0 0 1296 370" fill="none" xmlns="http://www.w3.org/2000/svg">
<path d="M235 80C231.686 80 229 82.6863 229 86V104C229 107.314 226.314 110 223 110H206C202.686 110 200 112.686 200 116V134C200 137.314 202.686 140 206 140H224C227.314 140 230 137.314 230 134V116C230 112.686 232.686 110 236 110H253C256.314 110 259 107.314 259 104V86C259 82.6863 256.314 80 253 80H235ZM80 254C80 257.314 82.6863 260 86 260H104C107.314 260 110 257.314 110 254V236C110 232.686 107.314 230 104 230H86C82.6863 230 80 232.686 80 236V254ZM200 254C200 257.314 202.686 260 206 260H224C227.314 260 230 257.314 230 254V236C230 232.686 227.314 230 224 230H206C202.686 230 200 232.686 200 236V254ZM170 194C170 197.314 172.686 200 176 200H194C197.314 200 200 197.314 200 194V176C200 172.686 197.314 170 194 170H176C172.686 170 170 172.686 170 176V194ZM230 194C230 197.314 232.686 200 236 200H254C257.314 200 260 197.314 260 194V176C260 172.686 257.314 170 254 170H236C232.686 170 230 172.686 230 176V194ZM110 164C110 167.314 112.686 170 116 170H134C137.314 170 140 167.314 140 164V146C140 142.686 137.314 140 134 140H116C112.686 140 110 142.686 110 146V164ZM170 104C170 107.314 172.686 110 176 110H193C196.314 110 199 107.314 199 104V86C199 82.6863 196.314 80 193 80H176C172.686 80 170 82.6863 170 86V104ZM370 104C370 107.314 367.314 110 364 110H346C342.686 110 340 107.314 340 104V86C340 82.6863 342.686 80 346 80H364C367.314 80 370 82.6863 370 86V104ZM320 74C320 77.3137 317.314 80 314 80H296C292.686 80 290 77.3137 290 74V56C290 52.6863 292.686 50 296 50H314C317.314 50 320 52.6863 320 56V74ZM289 104C289 107.314 286.314 110 283 110H266C262.686 110 260 112.686 260 116V134C260 137.314 262.686 140 266 140H284C287.314 140 290 137.314 290 134V115C290 111.686 292.686 109 296 109H314C317.314 109 320 111.686 320 115V136.818C320 138.575 318.575 140 316.818 140C314.621 140 313.084 142.173 313.745 144.267C315.7 150.451 317.221 156.828 318.273 163.362C318.841 166.891 316.049 170 312.474 170H296C292.686 170 290 172.686 290 176V194C290 197.314 292.686 200 296 200H312.474C316.049 200 318.841 203.111 318.273 206.64C307.917 270.911 252.192 320 185 320C110.442 320 50 259.558 50 185C50 110.442 110.442 50 185 50C216.386 50 245.27 60.7115 268.197 78.6773C269.279 79.5247 270.608 80 271.982 80H283C286.314 80 289 82.6863 289 86V104Z" fill="#721BFF"/>
<path d="M1103.04 264.5C1098.49 264.5 1094.68 263.473 1091.6 261.42C1088.52 259.22 1086.61 256.287 1085.88 252.62C1085.14 248.807 1085.8 244.553 1087.86 239.86L1142.64 121.94C1145.28 116.22 1148.5 112.04 1152.32 109.4C1156.28 106.76 1160.75 105.44 1165.74 105.44C1170.72 105.44 1175.05 106.76 1178.72 109.4C1182.53 112.04 1185.83 116.22 1188.62 121.94L1243.4 239.86C1245.74 244.553 1246.55 248.807 1245.82 252.62C1245.23 256.433 1243.4 259.367 1240.32 261.42C1237.38 263.473 1233.72 264.5 1229.32 264.5C1223.45 264.5 1218.9 263.18 1215.68 260.54C1212.6 257.9 1209.81 253.647 1207.32 247.78L1195.44 219.84L1210.84 231.06H1120.2L1135.82 219.84L1123.94 247.78C1121.3 253.647 1118.58 257.9 1115.8 260.54C1113.01 263.18 1108.76 264.5 1103.04 264.5ZM1165.3 149.66L1139.78 210.6L1133.62 200.04H1197.64L1191.48 210.6L1165.74 149.66H1165.3Z" fill="#0B2344"/>
<path d="M1010.62 264.94C992.874 264.94 977.768 261.64 965.301 255.04C952.981 248.44 943.594 239.2 937.141 227.32C930.688 215.44 927.461 201.58 927.461 185.74C927.461 173.42 929.368 162.347 933.181 152.52C937.141 142.547 942.788 134.04 950.121 127C957.454 119.813 966.401 114.387 976.961 110.72C987.668 106.907 999.768 105 1013.26 105C1020.59 105 1028.07 105.733 1035.7 107.2C1043.33 108.52 1050.81 111.087 1058.14 114.9C1061.95 116.66 1064.52 119.153 1065.84 122.38C1067.31 125.46 1067.75 128.76 1067.16 132.28C1066.72 135.653 1065.47 138.807 1063.42 141.74C1061.51 144.527 1058.87 146.433 1055.5 147.46C1052.13 148.34 1048.31 147.827 1044.06 145.92C1039.66 143.867 1034.89 142.327 1029.76 141.3C1024.63 140.127 1019.2 139.54 1013.48 139.54C1003.65 139.54 995.441 141.3 988.841 144.82C982.388 148.34 977.548 153.547 974.321 160.44C971.094 167.333 969.481 175.767 969.481 185.74C969.481 200.7 973.148 211.993 980.481 219.62C987.814 227.247 998.668 231.06 1013.04 231.06C1017.44 231.06 1022.21 230.62 1027.34 229.74C1032.62 228.86 1037.9 227.613 1043.18 226L1035.7 241.18V203.56H1020.3C1015.31 203.56 1011.43 202.313 1008.64 199.82C1006 197.327 1004.68 193.807 1004.68 189.26C1004.68 184.713 1006 181.267 1008.64 178.92C1011.43 176.427 1015.31 175.18 1020.3 175.18H1052.86C1057.99 175.18 1061.88 176.573 1064.52 179.36C1067.31 182 1068.7 185.887 1068.7 191.02V239.64C1068.7 244.04 1067.75 247.78 1065.84 250.86C1064.08 253.94 1061.22 256.14 1057.26 257.46C1050.37 259.807 1042.89 261.64 1034.82 262.96C1026.75 264.28 1018.69 264.94 1010.62 264.94Z" fill="#0B2344"/>
<path d="M816.975 262.52C810.081 262.52 804.801 260.76 801.135 257.24C797.615 253.573 795.854 248.367 795.854 241.62V128.32C795.854 121.573 797.615 116.44 801.135 112.92C804.801 109.253 810.081 107.42 816.975 107.42H891.555C896.835 107.42 900.795 108.74 903.435 111.38C906.075 114.02 907.395 117.833 907.395 122.82C907.395 127.953 906.075 131.913 903.435 134.7C900.795 137.34 896.835 138.66 891.555 138.66H834.574V168.14H886.715C891.848 168.14 895.735 169.46 898.375 172.1C901.161 174.74 902.555 178.627 902.555 183.76C902.555 188.893 901.161 192.78 898.375 195.42C895.735 198.06 891.848 199.38 886.715 199.38H834.574V231.28H891.555C896.835 231.28 900.795 232.673 903.435 235.46C906.075 238.1 907.395 241.913 907.395 246.9C907.395 252.033 906.075 255.92 903.435 258.56C900.795 261.2 896.835 262.52 891.555 262.52H816.975Z" fill="#0B2344"/>
<path d="M620.121 264.5C614.254 264.5 609.708 262.887 606.481 259.66C603.401 256.433 601.861 251.887 601.861 246.02V123.92C601.861 117.907 603.548 113.36 606.921 110.28C610.294 107.053 615.061 105.44 621.221 105.44C626.354 105.44 630.387 106.467 633.321 108.52C636.401 110.427 639.187 113.653 641.681 118.2L688.981 203.12H681.281L728.361 118.2C731.001 113.653 733.788 110.427 736.721 108.52C739.801 106.467 743.908 105.44 749.041 105.44C754.908 105.44 759.381 107.053 762.461 110.28C765.688 113.36 767.301 117.907 767.301 123.92V246.02C767.301 251.887 765.761 256.433 762.681 259.66C759.601 262.887 755.054 264.5 749.041 264.5C743.174 264.5 738.628 262.887 735.401 259.66C732.321 256.433 730.781 251.887 730.781 246.02V170.34H735.401L699.981 231.94C697.928 235.167 695.728 237.587 693.381 239.2C691.181 240.813 688.174 241.62 684.361 241.62C680.694 241.62 677.688 240.813 675.341 239.2C672.994 237.587 670.867 235.167 668.961 231.94L633.321 170.12H638.381V246.02C638.381 251.887 636.841 256.433 633.761 259.66C630.681 262.887 626.134 264.5 620.121 264.5Z" fill="#0B2344"/>
<path d="M498.76 264.94C483.067 264.94 469.28 261.64 457.4 255.04C445.52 248.293 436.28 238.907 429.68 226.88C423.227 214.853 420 200.847 420 184.86C420 172.833 421.833 161.907 425.5 152.08C429.313 142.253 434.667 133.82 441.56 126.78C448.6 119.74 456.96 114.387 466.64 110.72C476.32 106.907 487.027 105 498.76 105C514.453 105 528.167 108.3 539.9 114.9C551.78 121.5 561.02 130.813 567.62 142.84C574.22 154.72 577.52 168.727 577.52 184.86C577.52 196.887 575.613 207.813 571.8 217.64C568.133 227.467 562.78 235.973 555.74 243.16C548.847 250.2 540.56 255.627 530.88 259.44C521.2 263.107 510.493 264.94 498.76 264.94ZM498.76 231.06C506.533 231.06 513.133 229.227 518.56 225.56C523.987 221.893 528.167 216.613 531.1 209.72C534.033 202.827 535.5 194.54 535.5 184.86C535.5 170.34 532.273 159.047 525.82 150.98C519.367 142.913 510.347 138.88 498.76 138.88C491.133 138.88 484.533 140.713 478.96 144.38C473.533 147.9 469.353 153.107 466.42 160C463.487 166.747 462.02 175.033 462.02 184.86C462.02 199.38 465.247 210.747 471.7 218.96C478.153 227.027 487.173 231.06 498.76 231.06Z" fill="#0B2344"/>
</svg>
