<svg width="1188" height="669" viewBox="0 0 1188 669" fill="none" xmlns="http://www.w3.org/2000/svg">
<rect width="1188" height="669" fill="#ECFAFF"/>
<mask id="path-1-inside-1_1_84" fill="white">
<path d="M199.5 83C215.101 83 228.736 91.4082 236.128 103.938C238.82 103.325 241.622 103 244.5 103C265.211 103 282 119.789 282 140.5C282 141.384 281.966 142.26 281.906 143.128C293.201 144.329 302 153.886 302 165.5C302 177.926 291.926 188 279.5 188C279.333 188 279.166 187.997 279 187.993V188H119V187.993C106.805 187.727 97 177.759 97 165.5C97 153.887 105.798 144.329 117.093 143.128C117.033 142.26 117 141.383 117 140.5C117 119.789 133.789 103 154.5 103C157.378 103 160.179 103.325 162.871 103.938C170.263 91.408 183.899 83 199.5 83Z"/>
</mask>
<path d="M199.5 83C215.101 83 228.736 91.4082 236.128 103.938C238.82 103.325 241.622 103 244.5 103C265.211 103 282 119.789 282 140.5C282 141.384 281.966 142.26 281.906 143.128C293.201 144.329 302 153.886 302 165.5C302 177.926 291.926 188 279.5 188C279.333 188 279.166 187.997 279 187.993V188H119V187.993C106.805 187.727 97 177.759 97 165.5C97 153.887 105.798 144.329 117.093 143.128C117.033 142.26 117 141.383 117 140.5C117 119.789 133.789 103 154.5 103C157.378 103 160.179 103.325 162.871 103.938C170.263 91.408 183.899 83 199.5 83Z" fill="white"/>
<path d="M236.128 103.938L234.405 104.955L235.148 106.213L236.573 105.888L236.128 103.938ZM281.906 143.128L279.911 142.99L279.778 144.913L281.695 145.117L281.906 143.128ZM279 187.993L279.044 185.994L277 185.949V187.993H279ZM279 188V190H281V188H279ZM119 188H117V190H119V188ZM119 187.993H121V186.036L119.044 185.994L119 187.993ZM117.093 143.128L117.304 145.117L119.221 144.913L119.088 142.99L117.093 143.128ZM162.871 103.938L162.426 105.888L163.851 106.213L164.594 104.955L162.871 103.938ZM199.5 83V85C214.364 85 227.358 93.0086 234.405 104.955L236.128 103.938L237.851 102.922C230.114 89.8079 215.838 81 199.5 81V83ZM236.128 103.938L236.573 105.888C239.12 105.308 241.773 105 244.5 105V103V101C241.471 101 238.52 101.342 235.683 101.989L236.128 103.938ZM244.5 103V105C264.106 105 280 120.894 280 140.5H282H284C284 118.685 266.315 101 244.5 101V103ZM282 140.5H280C280 141.333 279.968 142.163 279.911 142.99L281.906 143.128L283.901 143.266C283.964 142.357 284 141.434 284 140.5H282ZM281.906 143.128L281.695 145.117C291.984 146.211 300 154.92 300 165.5H302H304C304 152.853 294.419 142.447 282.118 141.139L281.906 143.128ZM302 165.5H300C300 176.822 290.822 186 279.5 186V188V190C293.031 190 304 179.031 304 165.5H302ZM279.5 188V186C279.356 186 279.209 185.997 279.044 185.994L279 187.993L278.956 189.993C279.124 189.996 279.309 190 279.5 190V188ZM279 187.993H277V188H279H281V187.993H279ZM279 188V186H119V188V190H279V188ZM119 188H121V187.993H119H117V188H119ZM119 187.993L119.044 185.994C107.933 185.751 99 176.669 99 165.5H97H95C95 178.849 105.676 189.703 118.956 189.993L119 187.993ZM97 165.5H99C99 154.92 107.016 146.211 117.304 145.117L117.093 143.128L116.881 141.139C104.581 142.447 95 152.853 95 165.5H97ZM117.093 143.128L119.088 142.99C119.031 142.164 119 141.334 119 140.5H117H115C115 141.433 115.034 142.355 115.098 143.266L117.093 143.128ZM117 140.5H119C119 120.894 134.894 105 154.5 105V103V101C132.685 101 115 118.685 115 140.5H117ZM154.5 103V105C157.227 105 159.879 105.308 162.426 105.888L162.871 103.938L163.316 101.989C160.479 101.342 157.529 101 154.5 101V103ZM162.871 103.938L164.594 104.955C171.641 93.0084 184.635 85 199.5 85V83V81C183.162 81 168.885 89.8076 161.148 102.922L162.871 103.938Z" fill="black" mask="url(#path-1-inside-1_1_84)"/>
<path d="M147.219 156.224C146.835 156.224 146.526 156.128 146.291 155.936C146.056 155.723 145.864 155.413 145.715 155.008L138.643 134.816C138.494 134.368 138.526 133.995 138.739 133.696C138.974 133.376 139.336 133.216 139.827 133.216C140.19 133.216 140.478 133.312 140.691 133.504C140.904 133.675 141.086 133.952 141.235 134.336L147.859 153.76H146.739L153.491 134.432C153.64 134.027 153.822 133.728 154.035 133.536C154.248 133.323 154.536 133.216 154.899 133.216C155.24 133.216 155.507 133.323 155.699 133.536C155.912 133.728 156.094 134.027 156.243 134.432L162.899 153.76H161.907L168.595 134.336C168.702 133.973 168.862 133.696 169.075 133.504C169.31 133.312 169.608 133.216 169.971 133.216C170.419 133.216 170.75 133.365 170.963 133.664C171.176 133.963 171.198 134.347 171.027 134.816L163.923 155.008C163.774 155.413 163.582 155.723 163.347 155.936C163.134 156.128 162.824 156.224 162.419 156.224C162.035 156.224 161.726 156.128 161.491 155.936C161.278 155.723 161.086 155.413 160.915 155.008L154.483 136.48H155.187L148.691 155.008C148.542 155.413 148.36 155.723 148.147 155.936C147.934 156.128 147.624 156.224 147.219 156.224ZM179.987 156.288C178.344 156.288 176.926 155.968 175.731 155.328C174.558 154.667 173.64 153.739 172.979 152.544C172.339 151.349 172.019 149.92 172.019 148.256C172.019 146.635 172.339 145.227 172.979 144.032C173.619 142.816 174.494 141.867 175.603 141.184C176.734 140.501 178.035 140.16 179.507 140.16C180.552 140.16 181.491 140.341 182.323 140.704C183.155 141.045 183.859 141.547 184.435 142.208C185.032 142.869 185.48 143.669 185.779 144.608C186.099 145.547 186.259 146.603 186.259 147.776C186.259 148.117 186.163 148.373 185.971 148.544C185.779 148.693 185.502 148.768 185.139 148.768H174.003V147.072H184.531L184.019 147.488C184.019 146.336 183.848 145.365 183.507 144.576C183.166 143.765 182.664 143.147 182.003 142.72C181.363 142.293 180.552 142.08 179.571 142.08C178.483 142.08 177.555 142.336 176.787 142.848C176.04 143.339 175.475 144.032 175.091 144.928C174.707 145.803 174.515 146.827 174.515 148V148.192C174.515 150.155 174.984 151.648 175.923 152.672C176.883 153.696 178.238 154.208 179.987 154.208C180.712 154.208 181.427 154.112 182.131 153.92C182.856 153.728 183.56 153.408 184.243 152.96C184.542 152.768 184.808 152.683 185.043 152.704C185.299 152.704 185.502 152.779 185.651 152.928C185.8 153.056 185.896 153.227 185.939 153.44C186.003 153.632 185.982 153.845 185.875 154.08C185.79 154.315 185.608 154.517 185.331 154.688C184.627 155.2 183.795 155.595 182.835 155.872C181.875 156.149 180.926 156.288 179.987 156.288ZM197.882 156.288C196.474 156.288 195.258 155.925 194.234 155.2C193.231 154.475 192.559 153.504 192.218 152.288L192.57 151.936V154.88C192.57 155.307 192.453 155.637 192.218 155.872C192.005 156.107 191.695 156.224 191.29 156.224C190.863 156.224 190.543 156.107 190.33 155.872C190.117 155.637 190.01 155.307 190.01 154.88V134.528C190.01 134.101 190.117 133.781 190.33 133.568C190.543 133.333 190.863 133.216 191.29 133.216C191.695 133.216 192.015 133.333 192.25 133.568C192.485 133.781 192.602 134.101 192.602 134.528V144.064H192.218C192.581 142.869 193.263 141.92 194.266 141.216C195.269 140.512 196.474 140.16 197.882 140.16C199.29 140.16 200.506 140.491 201.53 141.152C202.554 141.792 203.343 142.72 203.898 143.936C204.474 145.131 204.762 146.56 204.762 148.224C204.762 149.867 204.474 151.296 203.898 152.512C203.343 153.707 202.543 154.635 201.498 155.296C200.474 155.957 199.269 156.288 197.882 156.288ZM197.338 154.208C198.319 154.208 199.162 153.973 199.866 153.504C200.591 153.035 201.146 152.352 201.53 151.456C201.935 150.56 202.138 149.483 202.138 148.224C202.138 146.283 201.701 144.8 200.826 143.776C199.973 142.752 198.81 142.24 197.338 142.24C196.378 142.24 195.535 142.475 194.81 142.944C194.085 143.392 193.519 144.064 193.114 144.96C192.73 145.835 192.538 146.923 192.538 148.224C192.538 150.144 192.975 151.627 193.85 152.672C194.725 153.696 195.887 154.208 197.338 154.208ZM219.476 156C218.922 156 218.484 155.851 218.164 155.552C217.866 155.232 217.716 154.805 217.716 154.272C217.716 153.717 217.866 153.301 218.164 153.024C218.484 152.747 218.922 152.608 219.476 152.608H223.06V136.896H225.044L220.34 139.744C219.935 139.979 219.551 140.075 219.188 140.032C218.847 139.968 218.548 139.819 218.292 139.584C218.058 139.328 217.898 139.029 217.812 138.688C217.727 138.347 217.748 138.005 217.876 137.664C218.026 137.301 218.303 137.003 218.708 136.768L223.124 134.112C223.551 133.856 223.978 133.643 224.404 133.472C224.831 133.28 225.226 133.184 225.588 133.184C226.036 133.184 226.41 133.312 226.708 133.568C227.007 133.803 227.156 134.197 227.156 134.752V152.608H230.42C230.975 152.608 231.402 152.747 231.7 153.024C232.02 153.301 232.18 153.717 232.18 154.272C232.18 154.827 232.02 155.253 231.7 155.552C231.402 155.851 230.975 156 230.42 156H219.476ZM237.672 156.16C236.947 156.16 236.36 155.936 235.912 155.488C235.485 155.04 235.272 154.464 235.272 153.76C235.272 153.077 235.485 152.523 235.912 152.096C236.36 151.648 236.947 151.424 237.672 151.424C238.419 151.424 238.995 151.648 239.4 152.096C239.827 152.523 240.04 153.077 240.04 153.76C240.04 154.464 239.827 155.04 239.4 155.488C238.995 155.936 238.419 156.16 237.672 156.16ZM251.209 156.32C248.543 156.32 246.505 155.317 245.097 153.312C243.689 151.285 242.985 148.405 242.985 144.672C242.985 142.155 243.295 140.043 243.913 138.336C244.553 136.608 245.481 135.307 246.697 134.432C247.935 133.557 249.439 133.12 251.209 133.12C253.897 133.12 255.935 134.101 257.321 136.064C258.729 138.027 259.433 140.885 259.433 144.64C259.433 147.136 259.113 149.259 258.473 151.008C257.855 152.736 256.937 154.059 255.721 154.976C254.505 155.872 253.001 156.32 251.209 156.32ZM251.209 152.96C252.66 152.96 253.727 152.288 254.409 150.944C255.113 149.6 255.465 147.499 255.465 144.64C255.465 141.781 255.113 139.712 254.409 138.432C253.727 137.131 252.66 136.48 251.209 136.48C249.78 136.48 248.713 137.131 248.009 138.432C247.305 139.712 246.953 141.781 246.953 144.64C246.953 147.499 247.305 149.6 248.009 150.944C248.713 152.288 249.78 152.96 251.209 152.96Z" fill="black"/>
<g clip-path="url(#clip0_1_84)">
<rect x="120" y="212" width="160" height="160" rx="80" fill="#6E66FF"/>
<rect x="79" y="252" width="247" height="40" stroke="black" stroke-width="2"/>
<rect x="79" y="292" width="247" height="40" stroke="black" stroke-width="2"/>
<path d="M175 203C189.708 203 203.184 212.759 213.037 228.882C222.879 244.987 229 267.301 229 292C229 316.699 222.879 339.013 213.037 355.118C203.184 371.241 189.708 381 175 381C160.292 381 146.816 371.241 136.963 355.118C127.121 339.013 121 316.699 121 292C121 267.301 127.121 244.987 136.963 228.882C146.816 212.759 160.292 203 175 203Z" stroke="black" stroke-width="2"/>
<path d="M225 203C239.708 203 253.184 212.759 263.037 228.882C272.879 244.987 279 267.301 279 292C279 316.699 272.879 339.013 263.037 355.118C253.184 371.241 239.708 381 225 381C210.292 381 196.816 371.241 186.963 355.118C177.121 339.013 171 316.699 171 292C171 267.301 177.121 244.987 186.963 228.882C196.816 212.759 210.292 203 225 203Z" stroke="black" stroke-width="2"/>
</g>
<rect x="121" y="213" width="158" height="158" rx="79" stroke="black" stroke-width="2"/>
<g clip-path="url(#clip1_1_84)">
<rect x="110" y="482" width="60" height="60" rx="30" fill="#6E66FF"/>
<rect x="94.625" y="497" width="92.625" height="15" stroke="black" stroke-width="2"/>
<rect x="94.625" y="512" width="92.625" height="15" stroke="black" stroke-width="2"/>
<path d="M130.625 479.25C135.84 479.25 140.723 482.713 144.355 488.656C147.977 494.583 150.25 502.834 150.25 512C150.25 521.166 147.977 529.417 144.355 535.344C140.723 541.287 135.84 544.75 130.625 544.75C125.41 544.75 120.527 541.287 116.895 535.344C113.273 529.417 111 521.166 111 512C111 502.834 113.273 494.583 116.895 488.656C120.527 482.713 125.41 479.25 130.625 479.25Z" stroke="black" stroke-width="2"/>
<path d="M149.375 479.25C154.59 479.25 159.473 482.713 163.105 488.656C166.727 494.583 169 502.834 169 512C169 521.166 166.727 529.417 163.105 535.344C159.473 541.287 154.59 544.75 149.375 544.75C144.16 544.75 139.277 541.287 135.645 535.344C132.023 529.417 129.75 521.166 129.75 512C129.75 502.834 132.023 494.583 135.645 488.656C139.277 482.713 144.16 479.25 149.375 479.25Z" stroke="black" stroke-width="2"/>
</g>
<rect x="111" y="483" width="58" height="58" rx="29" stroke="black" stroke-width="2"/>
<g clip-path="url(#clip2_1_84)">
<rect x="110" y="449" width="60" height="60" rx="30" fill="#F4DDFF"/>
<circle cx="140" cy="471.5" r="14" fill="white" stroke="black" stroke-width="2"/>
<circle cx="140" cy="510.5" r="21.5" fill="#50FFF6" stroke="black" stroke-width="2"/>
</g>
<rect x="111" y="450" width="58" height="58" rx="29" stroke="black" stroke-width="2"/>
<g clip-path="url(#clip3_1_84)">
<rect x="230" y="482" width="60" height="60" rx="30" fill="#6E66FF"/>
<rect x="214.625" y="497" width="92.625" height="15" stroke="black" stroke-width="2"/>
<rect x="214.625" y="512" width="92.625" height="15" stroke="black" stroke-width="2"/>
<path d="M250.625 479.25C255.84 479.25 260.723 482.713 264.355 488.656C267.977 494.583 270.25 502.834 270.25 512C270.25 521.166 267.977 529.417 264.355 535.344C260.723 541.287 255.84 544.75 250.625 544.75C245.41 544.75 240.527 541.287 236.895 535.344C233.273 529.417 231 521.166 231 512C231 502.834 233.273 494.583 236.895 488.656C240.527 482.713 245.41 479.25 250.625 479.25Z" stroke="black" stroke-width="2"/>
<path d="M269.375 479.25C274.59 479.25 279.473 482.713 283.105 488.656C286.727 494.583 289 502.834 289 512C289 521.166 286.727 529.417 283.105 535.344C279.473 541.287 274.59 544.75 269.375 544.75C264.16 544.75 259.277 541.287 255.645 535.344C252.023 529.417 249.75 521.166 249.75 512C249.75 502.834 252.023 494.583 255.645 488.656C259.277 482.713 264.16 479.25 269.375 479.25Z" stroke="black" stroke-width="2"/>
</g>
<rect x="231" y="483" width="58" height="58" rx="29" stroke="black" stroke-width="2"/>
<g clip-path="url(#clip4_1_84)">
<rect x="230" y="449" width="60" height="60" rx="30" fill="#F4DDFF"/>
<circle cx="260" cy="471.5" r="14" fill="white" stroke="black" stroke-width="2"/>
<circle cx="260" cy="510.5" r="21.5" fill="#50FFF6" stroke="black" stroke-width="2"/>
</g>
<rect x="231" y="450" width="58" height="58" rx="29" stroke="black" stroke-width="2"/>
<path d="M226.866 386.755C226.59 386.277 225.978 386.113 225.5 386.389C225.022 386.665 224.858 387.277 225.134 387.755L226 387.255L226.866 386.755ZM254.025 437.211C254.559 437.354 255.107 437.037 255.25 436.504L257.58 427.81C257.722 427.277 257.406 426.729 256.872 426.586C256.339 426.443 255.791 426.759 255.648 427.293L253.577 435.02L245.85 432.95C245.316 432.807 244.768 433.123 244.625 433.657C244.482 434.19 244.799 434.739 245.332 434.881L254.025 437.211ZM226 387.255L225.134 387.755L253.418 436.745L254.284 436.245L255.15 435.745L226.866 386.755L226 387.255Z" fill="black"/>
<path d="M175.15 387.755C175.426 387.277 175.263 386.665 174.784 386.389C174.306 386.113 173.694 386.277 173.418 386.755L174.284 387.255L175.15 387.755ZM145.034 436.504C145.177 437.037 145.725 437.354 146.259 437.211L154.952 434.881C155.486 434.738 155.802 434.19 155.659 433.657C155.516 433.123 154.968 432.807 154.435 432.95L146.707 435.02L144.637 427.293C144.494 426.759 143.945 426.443 143.412 426.586C142.878 426.729 142.562 427.277 142.705 427.81L145.034 436.504ZM174.284 387.255L173.418 386.755L145.134 435.745L146 436.245L146.866 436.745L175.15 387.755L174.284 387.255Z" fill="black"/>
<rect x="401" y="83" width="2" height="500" rx="1" fill="black"/>
<g clip-path="url(#clip5_1_84)">
<rect x="539" y="336" width="110" height="110" rx="55" fill="#6E66FF"/>
<rect x="510.812" y="363.5" width="169.812" height="27.5" stroke="black" stroke-width="2"/>
<rect x="510.812" y="391" width="169.812" height="27.5" stroke="black" stroke-width="2"/>
<path d="M576.812 330.125C586.774 330.125 595.954 336.736 602.696 347.77C609.428 358.785 613.625 374.067 613.625 391C613.625 407.933 609.428 423.215 602.696 434.23C595.954 445.264 586.774 451.875 576.812 451.875C566.851 451.875 557.671 445.264 550.929 434.23C544.197 423.215 540 407.933 540 391C540 374.067 544.197 358.785 550.929 347.77C557.671 336.736 566.851 330.125 576.812 330.125Z" stroke="black" stroke-width="2"/>
<path d="M611.188 330.125C621.149 330.125 630.329 336.736 637.071 347.77C643.803 358.785 648 374.067 648 391C648 407.933 643.803 423.215 637.071 434.23C630.329 445.264 621.149 451.875 611.188 451.875C601.226 451.875 592.046 445.264 585.304 434.23C578.572 423.215 574.375 407.933 574.375 391C574.375 374.067 578.572 358.785 585.304 347.77C592.046 336.736 601.226 330.125 611.188 330.125Z" stroke="black" stroke-width="2"/>
</g>
<rect x="540" y="337" width="108" height="108" rx="54" stroke="black" stroke-width="2"/>
<g clip-path="url(#clip6_1_84)">
<rect x="454" y="425" width="60" height="60" rx="30" fill="#F4DDFF"/>
<circle cx="484" cy="447.5" r="14" fill="white" stroke="black" stroke-width="2"/>
<circle cx="484" cy="486.5" r="21.5" fill="#50FFF6" stroke="black" stroke-width="2"/>
</g>
<rect x="455" y="426" width="58" height="58" rx="29" stroke="black" stroke-width="2"/>
<g clip-path="url(#clip7_1_84)">
<rect x="674" y="425" width="60" height="60" rx="30" fill="#F4DDFF"/>
<circle cx="704" cy="447.5" r="14" fill="white" stroke="black" stroke-width="2"/>
<circle cx="704" cy="486.5" r="21.5" fill="#50FFF6" stroke="black" stroke-width="2"/>
</g>
<rect x="675" y="426" width="58" height="58" rx="29" stroke="black" stroke-width="2"/>
<g clip-path="url(#clip8_1_84)">
<rect x="564" y="479" width="60" height="60" rx="30" fill="#F4DDFF"/>
<circle cx="594" cy="501.5" r="14" fill="white" stroke="black" stroke-width="2"/>
<circle cx="594" cy="540.5" r="21.5" fill="#50FFF6" stroke="black" stroke-width="2"/>
</g>
<rect x="565" y="480" width="58" height="58" rx="29" stroke="black" stroke-width="2"/>
<g clip-path="url(#clip9_1_84)">
<rect x="454" y="298" width="60" height="60" rx="30" fill="#F4DDFF"/>
<circle cx="484" cy="320.5" r="14" fill="white" stroke="black" stroke-width="2"/>
<circle cx="484" cy="359.5" r="21.5" fill="#50FFF6" stroke="black" stroke-width="2"/>
</g>
<rect x="455" y="299" width="58" height="58" rx="29" stroke="black" stroke-width="2"/>
<g clip-path="url(#clip10_1_84)">
<rect x="674" y="298" width="60" height="60" rx="30" fill="#F4DDFF"/>
<circle cx="704" cy="320.5" r="14" fill="white" stroke="black" stroke-width="2"/>
<circle cx="704" cy="359.5" r="21.5" fill="#50FFF6" stroke="black" stroke-width="2"/>
</g>
<rect x="675" y="299" width="58" height="58" rx="29" stroke="black" stroke-width="2"/>
<g clip-path="url(#clip11_1_84)">
<rect x="564" y="232" width="60" height="60" rx="30" fill="#F4DDFF"/>
<circle cx="594" cy="254.5" r="14" fill="white" stroke="black" stroke-width="2"/>
<circle cx="594" cy="293.5" r="21.5" fill="#50FFF6" stroke="black" stroke-width="2"/>
</g>
<rect x="565" y="233" width="58" height="58" rx="29" stroke="black" stroke-width="2"/>
<path d="M651.788 415C651.235 415 650.788 415.448 650.788 416L650.788 425C650.788 425.552 651.235 426 651.788 426C652.34 426 652.788 425.552 652.788 425L652.788 417L660.788 417C661.34 417 661.788 416.552 661.788 416C661.788 415.448 661.34 415 660.788 415L651.788 415ZM670.576 435.788C671.128 435.788 671.576 435.34 671.576 434.788L671.576 425.788C671.576 425.236 671.128 424.788 670.576 424.788C670.023 424.788 669.576 425.236 669.576 425.788L669.576 433.788L661.576 433.788C661.023 433.788 660.576 434.236 660.576 434.788C660.576 435.34 661.023 435.788 661.576 435.788L670.576 435.788ZM651.788 416L651.081 416.707L669.868 435.495L670.576 434.788L671.283 434.081L652.495 415.293L651.788 416Z" fill="black"/>
<path d="M594.636 448.937C594.246 448.547 593.612 448.547 593.222 448.937L586.858 455.301C586.467 455.692 586.467 456.325 586.858 456.716C587.248 457.106 587.882 457.106 588.272 456.716L593.929 451.059L599.586 456.716C599.976 457.106 600.609 457.106 601 456.716C601.391 456.325 601.391 455.692 601 455.301L594.636 448.937ZM593.222 476.922C593.612 477.312 594.246 477.312 594.636 476.922L601 470.558C601.391 470.167 601.391 469.534 601 469.143C600.609 468.753 599.976 468.753 599.586 469.143L593.929 474.8L588.272 469.143C587.882 468.753 587.248 468.753 586.858 469.143C586.467 469.534 586.467 470.167 586.858 470.558L593.222 476.922ZM593.929 449.644H592.929V476.214H593.929H594.929V449.644H593.929Z" fill="black"/>
<path d="M536.788 416C536.788 415.448 536.34 415 535.788 415L526.788 415C526.236 415 525.788 415.448 525.788 416C525.788 416.552 526.236 417 526.788 417L534.788 417L534.788 425C534.788 425.552 535.236 426 535.788 426C536.34 426 536.788 425.552 536.788 425L536.788 416ZM516 434.788C516 435.34 516.448 435.788 517 435.788L526 435.788C526.552 435.788 527 435.34 527 434.788C527 434.236 526.552 433.788 526 433.788L518 433.788L518 425.788C518 425.236 517.552 424.788 517 424.788C516.448 424.788 516 425.236 516 425.788L516 434.788ZM535.788 416L535.081 415.293L516.293 434.081L517 434.788L517.707 435.495L536.495 416.707L535.788 416Z" fill="black"/>
<path d="M536.212 364.214C536.765 364.214 537.212 363.767 537.212 363.214L537.212 354.214C537.212 353.662 536.765 353.214 536.212 353.214C535.66 353.214 535.212 353.662 535.212 354.214L535.212 362.214L527.212 362.214C526.66 362.214 526.212 362.662 526.212 363.214C526.212 363.767 526.66 364.214 527.212 364.214L536.212 364.214ZM517.424 343.427C516.872 343.427 516.424 343.874 516.424 344.427L516.424 353.427C516.424 353.979 516.872 354.427 517.424 354.427C517.977 354.427 518.424 353.979 518.424 353.427L518.424 345.427L526.424 345.427C526.977 345.427 527.424 344.979 527.424 344.427C527.424 343.874 526.977 343.427 526.424 343.427L517.424 343.427ZM536.212 363.214L536.919 362.507L518.132 343.72L517.424 344.427L516.717 345.134L535.505 363.922L536.212 363.214Z" fill="black"/>
<path d="M593.364 330.277C593.754 330.668 594.388 330.668 594.778 330.277L601.142 323.913C601.533 323.523 601.533 322.889 601.142 322.499C600.752 322.108 600.118 322.108 599.728 322.499L594.071 328.156L588.414 322.499C588.024 322.108 587.391 322.108 587 322.499C586.609 322.889 586.609 323.523 587 323.913L593.364 330.277ZM594.778 302.293C594.388 301.902 593.754 301.902 593.364 302.293L587 308.657C586.609 309.047 586.609 309.681 587 310.071C587.391 310.462 588.024 310.462 588.414 310.071L594.071 304.414L599.728 310.071C600.118 310.462 600.752 310.462 601.142 310.071C601.533 309.681 601.533 309.047 601.142 308.657L594.778 302.293ZM594.071 329.57L595.071 329.57L595.071 303L594.071 303L593.071 303L593.071 329.57L594.071 329.57Z" fill="black"/>
<path d="M651.212 363.214C651.212 363.767 651.66 364.214 652.212 364.214L661.212 364.214C661.764 364.214 662.212 363.767 662.212 363.214C662.212 362.662 661.764 362.214 661.212 362.214L653.212 362.214L653.212 354.214C653.212 353.662 652.764 353.214 652.212 353.214C651.66 353.214 651.212 353.662 651.212 354.214L651.212 363.214ZM672 344.427C672 343.874 671.552 343.427 671 343.427L662 343.427C661.448 343.427 661 343.874 661 344.427C661 344.979 661.448 345.427 662 345.427L670 345.427L670 353.427C670 353.979 670.448 354.427 671 354.427C671.552 354.427 672 353.979 672 353.427L672 344.427ZM652.212 363.214L652.919 363.922L671.707 345.134L671 344.427L670.293 343.72L651.505 362.507L652.212 363.214Z" fill="black"/>
<mask id="path-69-inside-2_1_84" fill="white">
<path d="M594.5 83C610.101 83 623.736 91.4082 631.128 103.938C633.82 103.325 636.622 103 639.5 103C660.211 103 677 119.789 677 140.5C677 141.384 676.966 142.26 676.906 143.128C688.201 144.329 697 153.886 697 165.5C697 177.926 686.926 188 674.5 188C674.333 188 674.166 187.997 674 187.993V188H514V187.993C501.805 187.727 492 177.759 492 165.5C492 153.887 500.798 144.329 512.093 143.128C512.033 142.26 512 141.383 512 140.5C512 119.789 528.789 103 549.5 103C552.378 103 555.179 103.325 557.871 103.938C565.263 91.408 578.899 83 594.5 83Z"/>
</mask>
<path d="M594.5 83C610.101 83 623.736 91.4082 631.128 103.938C633.82 103.325 636.622 103 639.5 103C660.211 103 677 119.789 677 140.5C677 141.384 676.966 142.26 676.906 143.128C688.201 144.329 697 153.886 697 165.5C697 177.926 686.926 188 674.5 188C674.333 188 674.166 187.997 674 187.993V188H514V187.993C501.805 187.727 492 177.759 492 165.5C492 153.887 500.798 144.329 512.093 143.128C512.033 142.26 512 141.383 512 140.5C512 119.789 528.789 103 549.5 103C552.378 103 555.179 103.325 557.871 103.938C565.263 91.408 578.899 83 594.5 83Z" fill="white"/>
<path d="M631.128 103.938L629.405 104.955L630.148 106.213L631.573 105.888L631.128 103.938ZM676.906 143.128L674.911 142.99L674.778 144.913L676.695 145.117L676.906 143.128ZM674 187.993L674.044 185.994L672 185.949V187.993H674ZM674 188V190H676V188H674ZM514 188H512V190H514V188ZM514 187.993H516V186.036L514.044 185.994L514 187.993ZM512.093 143.128L512.304 145.117L514.221 144.913L514.088 142.99L512.093 143.128ZM557.871 103.938L557.426 105.888L558.851 106.213L559.594 104.955L557.871 103.938ZM594.5 83V85C609.364 85 622.358 93.0086 629.405 104.955L631.128 103.938L632.851 102.922C625.114 89.8079 610.838 81 594.5 81V83ZM631.128 103.938L631.573 105.888C634.12 105.308 636.773 105 639.5 105V103V101C636.471 101 633.52 101.342 630.683 101.989L631.128 103.938ZM639.5 103V105C659.106 105 675 120.894 675 140.5H677H679C679 118.685 661.315 101 639.5 101V103ZM677 140.5H675C675 141.333 674.968 142.163 674.911 142.99L676.906 143.128L678.901 143.266C678.964 142.357 679 141.434 679 140.5H677ZM676.906 143.128L676.695 145.117C686.984 146.211 695 154.92 695 165.5H697H699C699 152.853 689.419 142.447 677.118 141.139L676.906 143.128ZM697 165.5H695C695 176.822 685.822 186 674.5 186V188V190C688.031 190 699 179.031 699 165.5H697ZM674.5 188V186C674.356 186 674.209 185.997 674.044 185.994L674 187.993L673.956 189.993C674.124 189.996 674.309 190 674.5 190V188ZM674 187.993H672V188H674H676V187.993H674ZM674 188V186H514V188V190H674V188ZM514 188H516V187.993H514H512V188H514ZM514 187.993L514.044 185.994C502.933 185.751 494 176.669 494 165.5H492H490C490 178.849 500.676 189.703 513.956 189.993L514 187.993ZM492 165.5H494C494 154.92 502.016 146.211 512.304 145.117L512.093 143.128L511.881 141.139C499.581 142.447 490 152.853 490 165.5H492ZM512.093 143.128L514.088 142.99C514.031 142.164 514 141.334 514 140.5H512H510C510 141.433 510.034 142.355 510.098 143.266L512.093 143.128ZM512 140.5H514C514 120.894 529.894 105 549.5 105V103V101C527.685 101 510 118.685 510 140.5H512ZM549.5 103V105C552.227 105 554.879 105.308 557.426 105.888L557.871 103.938L558.316 101.989C555.479 101.342 552.529 101 549.5 101V103ZM557.871 103.938L559.594 104.955C566.641 93.0084 579.635 85 594.5 85V83V81C578.162 81 563.885 89.8076 556.148 102.922L557.871 103.938Z" fill="black" mask="url(#path-69-inside-2_1_84)"/>
<path d="M542.219 156.224C541.835 156.224 541.526 156.128 541.291 155.936C541.056 155.723 540.864 155.413 540.715 155.008L533.643 134.816C533.494 134.368 533.526 133.995 533.739 133.696C533.974 133.376 534.336 133.216 534.827 133.216C535.19 133.216 535.478 133.312 535.691 133.504C535.904 133.675 536.086 133.952 536.235 134.336L542.859 153.76H541.739L548.491 134.432C548.64 134.027 548.822 133.728 549.035 133.536C549.248 133.323 549.536 133.216 549.899 133.216C550.24 133.216 550.507 133.323 550.699 133.536C550.912 133.728 551.094 134.027 551.243 134.432L557.899 153.76H556.907L563.595 134.336C563.702 133.973 563.862 133.696 564.075 133.504C564.31 133.312 564.608 133.216 564.971 133.216C565.419 133.216 565.75 133.365 565.963 133.664C566.176 133.963 566.198 134.347 566.027 134.816L558.923 155.008C558.774 155.413 558.582 155.723 558.347 155.936C558.134 156.128 557.824 156.224 557.419 156.224C557.035 156.224 556.726 156.128 556.491 155.936C556.278 155.723 556.086 155.413 555.915 155.008L549.483 136.48H550.187L543.691 155.008C543.542 155.413 543.36 155.723 543.147 155.936C542.934 156.128 542.624 156.224 542.219 156.224ZM574.987 156.288C573.344 156.288 571.926 155.968 570.731 155.328C569.558 154.667 568.64 153.739 567.979 152.544C567.339 151.349 567.019 149.92 567.019 148.256C567.019 146.635 567.339 145.227 567.979 144.032C568.619 142.816 569.494 141.867 570.603 141.184C571.734 140.501 573.035 140.16 574.507 140.16C575.552 140.16 576.491 140.341 577.323 140.704C578.155 141.045 578.859 141.547 579.435 142.208C580.032 142.869 580.48 143.669 580.779 144.608C581.099 145.547 581.259 146.603 581.259 147.776C581.259 148.117 581.163 148.373 580.971 148.544C580.779 148.693 580.502 148.768 580.139 148.768H569.003V147.072H579.531L579.019 147.488C579.019 146.336 578.848 145.365 578.507 144.576C578.166 143.765 577.664 143.147 577.003 142.72C576.363 142.293 575.552 142.08 574.571 142.08C573.483 142.08 572.555 142.336 571.787 142.848C571.04 143.339 570.475 144.032 570.091 144.928C569.707 145.803 569.515 146.827 569.515 148V148.192C569.515 150.155 569.984 151.648 570.923 152.672C571.883 153.696 573.238 154.208 574.987 154.208C575.712 154.208 576.427 154.112 577.131 153.92C577.856 153.728 578.56 153.408 579.243 152.96C579.542 152.768 579.808 152.683 580.043 152.704C580.299 152.704 580.502 152.779 580.651 152.928C580.8 153.056 580.896 153.227 580.939 153.44C581.003 153.632 580.982 153.845 580.875 154.08C580.79 154.315 580.608 154.517 580.331 154.688C579.627 155.2 578.795 155.595 577.835 155.872C576.875 156.149 575.926 156.288 574.987 156.288ZM592.882 156.288C591.474 156.288 590.258 155.925 589.234 155.2C588.231 154.475 587.559 153.504 587.218 152.288L587.57 151.936V154.88C587.57 155.307 587.453 155.637 587.218 155.872C587.005 156.107 586.695 156.224 586.29 156.224C585.863 156.224 585.543 156.107 585.33 155.872C585.117 155.637 585.01 155.307 585.01 154.88V134.528C585.01 134.101 585.117 133.781 585.33 133.568C585.543 133.333 585.863 133.216 586.29 133.216C586.695 133.216 587.015 133.333 587.25 133.568C587.485 133.781 587.602 134.101 587.602 134.528V144.064H587.218C587.581 142.869 588.263 141.92 589.266 141.216C590.269 140.512 591.474 140.16 592.882 140.16C594.29 140.16 595.506 140.491 596.53 141.152C597.554 141.792 598.343 142.72 598.898 143.936C599.474 145.131 599.762 146.56 599.762 148.224C599.762 149.867 599.474 151.296 598.898 152.512C598.343 153.707 597.543 154.635 596.498 155.296C595.474 155.957 594.269 156.288 592.882 156.288ZM592.338 154.208C593.319 154.208 594.162 153.973 594.866 153.504C595.591 153.035 596.146 152.352 596.53 151.456C596.935 150.56 597.138 149.483 597.138 148.224C597.138 146.283 596.701 144.8 595.826 143.776C594.973 142.752 593.81 142.24 592.338 142.24C591.378 142.24 590.535 142.475 589.81 142.944C589.085 143.392 588.519 144.064 588.114 144.96C587.73 145.835 587.538 146.923 587.538 148.224C587.538 150.144 587.975 151.627 588.85 152.672C589.725 153.696 590.887 154.208 592.338 154.208ZM613.74 156C613.058 156 612.556 155.851 612.236 155.552C611.938 155.232 611.788 154.773 611.788 154.176C611.788 153.813 611.884 153.461 612.076 153.12C612.268 152.779 612.546 152.416 612.908 152.032L619.34 145.184C620.322 144.16 621.026 143.232 621.452 142.4C621.879 141.547 622.092 140.693 622.092 139.84C622.092 138.773 621.751 137.963 621.068 137.408C620.407 136.853 619.436 136.576 618.156 136.576C617.431 136.576 616.706 136.683 615.98 136.896C615.255 137.088 614.519 137.429 613.772 137.92C613.388 138.176 613.026 138.283 612.684 138.24C612.364 138.197 612.076 138.059 611.82 137.824C611.586 137.589 611.426 137.301 611.34 136.96C611.255 136.619 611.266 136.277 611.372 135.936C611.5 135.573 611.756 135.264 612.14 135.008C613.058 134.389 614.082 133.92 615.212 133.6C616.364 133.28 617.516 133.12 618.668 133.12C620.29 133.12 621.655 133.365 622.764 133.856C623.874 134.347 624.716 135.061 625.292 136C625.868 136.939 626.156 138.08 626.156 139.424C626.156 140.32 626.007 141.195 625.708 142.048C625.431 142.901 624.994 143.765 624.396 144.64C623.82 145.515 623.063 146.443 622.124 147.424L616.108 153.696V152.608H625.516C626.092 152.608 626.53 152.747 626.828 153.024C627.127 153.301 627.276 153.717 627.276 154.272C627.276 154.827 627.127 155.253 626.828 155.552C626.53 155.851 626.092 156 625.516 156H613.74ZM632.672 156.16C631.947 156.16 631.36 155.936 630.912 155.488C630.485 155.04 630.272 154.464 630.272 153.76C630.272 153.077 630.485 152.523 630.912 152.096C631.36 151.648 631.947 151.424 632.672 151.424C633.419 151.424 633.995 151.648 634.4 152.096C634.827 152.523 635.04 153.077 635.04 153.76C635.04 154.464 634.827 155.04 634.4 155.488C633.995 155.936 633.419 156.16 632.672 156.16ZM646.209 156.32C643.543 156.32 641.505 155.317 640.097 153.312C638.689 151.285 637.985 148.405 637.985 144.672C637.985 142.155 638.295 140.043 638.913 138.336C639.553 136.608 640.481 135.307 641.697 134.432C642.935 133.557 644.439 133.12 646.209 133.12C648.897 133.12 650.935 134.101 652.321 136.064C653.729 138.027 654.433 140.885 654.433 144.64C654.433 147.136 654.113 149.259 653.473 151.008C652.855 152.736 651.937 154.059 650.721 154.976C649.505 155.872 648.001 156.32 646.209 156.32ZM646.209 152.96C647.66 152.96 648.727 152.288 649.409 150.944C650.113 149.6 650.465 147.499 650.465 144.64C650.465 141.781 650.113 139.712 649.409 138.432C648.727 137.131 647.66 136.48 646.209 136.48C644.78 136.48 643.713 137.131 643.009 138.432C642.305 139.712 641.953 141.781 641.953 144.64C641.953 147.499 642.305 149.6 643.009 150.944C643.713 152.288 644.78 152.96 646.209 152.96Z" fill="black"/>
<rect x="785" y="83" width="2" height="500" rx="1" fill="black"/>
<mask id="path-73-inside-3_1_84" fill="white">
<path d="M997.5 83C1013.1 83 1026.74 91.4082 1034.13 103.938C1036.82 103.325 1039.62 103 1042.5 103C1063.21 103 1080 119.789 1080 140.5C1080 141.384 1079.97 142.26 1079.91 143.128C1091.2 144.329 1100 153.886 1100 165.5C1100 177.926 1089.93 188 1077.5 188C1077.33 188 1077.17 187.997 1077 187.993V188H917V187.993C904.805 187.727 895 177.759 895 165.5C895 153.887 903.798 144.329 915.093 143.128C915.033 142.26 915 141.383 915 140.5C915 119.789 931.789 103 952.5 103C955.378 103 958.179 103.325 960.871 103.938C968.263 91.408 981.899 83 997.5 83Z"/>
</mask>
<path d="M997.5 83C1013.1 83 1026.74 91.4082 1034.13 103.938C1036.82 103.325 1039.62 103 1042.5 103C1063.21 103 1080 119.789 1080 140.5C1080 141.384 1079.97 142.26 1079.91 143.128C1091.2 144.329 1100 153.886 1100 165.5C1100 177.926 1089.93 188 1077.5 188C1077.33 188 1077.17 187.997 1077 187.993V188H917V187.993C904.805 187.727 895 177.759 895 165.5C895 153.887 903.798 144.329 915.093 143.128C915.033 142.26 915 141.383 915 140.5C915 119.789 931.789 103 952.5 103C955.378 103 958.179 103.325 960.871 103.938C968.263 91.408 981.899 83 997.5 83Z" fill="white"/>
<path d="M1034.13 103.938L1032.41 104.955L1033.15 106.213L1034.57 105.888L1034.13 103.938ZM1079.91 143.128L1077.91 142.99L1077.78 144.913L1079.69 145.117L1079.91 143.128ZM1077 187.993L1077.04 185.994L1075 185.949V187.993H1077ZM1077 188V190H1079V188H1077ZM917 188H915V190H917V188ZM917 187.993H919V186.036L917.044 185.994L917 187.993ZM915.093 143.128L915.304 145.117L917.221 144.913L917.088 142.99L915.093 143.128ZM960.871 103.938L960.426 105.888L961.851 106.213L962.594 104.955L960.871 103.938ZM997.5 83V85C1012.36 85 1025.36 93.0086 1032.41 104.955L1034.13 103.938L1035.85 102.922C1028.11 89.8079 1013.84 81 997.5 81V83ZM1034.13 103.938L1034.57 105.888C1037.12 105.308 1039.77 105 1042.5 105V103V101C1039.47 101 1036.52 101.342 1033.68 101.989L1034.13 103.938ZM1042.5 103V105C1062.11 105 1078 120.894 1078 140.5H1080H1082C1082 118.685 1064.32 101 1042.5 101V103ZM1080 140.5H1078C1078 141.333 1077.97 142.163 1077.91 142.99L1079.91 143.128L1081.9 143.266C1081.96 142.357 1082 141.434 1082 140.5H1080ZM1079.91 143.128L1079.69 145.117C1089.98 146.211 1098 154.92 1098 165.5H1100H1102C1102 152.853 1092.42 142.447 1080.12 141.139L1079.91 143.128ZM1100 165.5H1098C1098 176.822 1088.82 186 1077.5 186V188V190C1091.03 190 1102 179.031 1102 165.5H1100ZM1077.5 188V186C1077.36 186 1077.21 185.997 1077.04 185.994L1077 187.993L1076.96 189.993C1077.12 189.996 1077.31 190 1077.5 190V188ZM1077 187.993H1075V188H1077H1079V187.993H1077ZM1077 188V186H917V188V190H1077V188ZM917 188H919V187.993H917H915V188H917ZM917 187.993L917.044 185.994C905.933 185.751 897 176.669 897 165.5H895H893C893 178.849 903.676 189.703 916.956 189.993L917 187.993ZM895 165.5H897C897 154.92 905.016 146.211 915.304 145.117L915.093 143.128L914.881 141.139C902.581 142.447 893 152.853 893 165.5H895ZM915.093 143.128L917.088 142.99C917.031 142.164 917 141.334 917 140.5H915H913C913 141.433 913.034 142.355 913.098 143.266L915.093 143.128ZM915 140.5H917C917 120.894 932.894 105 952.5 105V103V101C930.685 101 913 118.685 913 140.5H915ZM952.5 103V105C955.227 105 957.879 105.308 960.426 105.888L960.871 103.938L961.316 101.989C958.479 101.342 955.529 101 952.5 101V103ZM960.871 103.938L962.594 104.955C969.641 93.0084 982.635 85 997.5 85V83V81C981.162 81 966.885 89.8076 959.148 102.922L960.871 103.938Z" fill="black" mask="url(#path-73-inside-3_1_84)"/>
<path d="M962.907 156.224C962.523 156.224 962.213 156.128 961.979 155.936C961.744 155.723 961.552 155.413 961.403 155.008L954.331 134.816C954.181 134.368 954.213 133.995 954.427 133.696C954.661 133.376 955.024 133.216 955.515 133.216C955.877 133.216 956.165 133.312 956.379 133.504C956.592 133.675 956.773 133.952 956.923 134.336L963.547 153.76H962.427L969.179 134.432C969.328 134.027 969.509 133.728 969.723 133.536C969.936 133.323 970.224 133.216 970.587 133.216C970.928 133.216 971.195 133.323 971.387 133.536C971.6 133.728 971.781 134.027 971.931 134.432L978.587 153.76H977.595L984.283 134.336C984.389 133.973 984.549 133.696 984.763 133.504C984.997 133.312 985.296 133.216 985.659 133.216C986.107 133.216 986.437 133.365 986.651 133.664C986.864 133.963 986.885 134.347 986.715 134.816L979.611 155.008C979.461 155.413 979.269 155.723 979.035 155.936C978.821 156.128 978.512 156.224 978.107 156.224C977.723 156.224 977.413 156.128 977.179 155.936C976.965 155.723 976.773 155.413 976.603 155.008L970.171 136.48H970.875L964.379 155.008C964.229 155.413 964.048 155.723 963.835 155.936C963.621 156.128 963.312 156.224 962.907 156.224ZM995.674 156.288C994.032 156.288 992.613 155.968 991.418 155.328C990.245 154.667 989.328 153.739 988.666 152.544C988.026 151.349 987.706 149.92 987.706 148.256C987.706 146.635 988.026 145.227 988.666 144.032C989.306 142.816 990.181 141.867 991.29 141.184C992.421 140.501 993.722 140.16 995.194 140.16C996.24 140.16 997.178 140.341 998.01 140.704C998.842 141.045 999.546 141.547 1000.12 142.208C1000.72 142.869 1001.17 143.669 1001.47 144.608C1001.79 145.547 1001.95 146.603 1001.95 147.776C1001.95 148.117 1001.85 148.373 1001.66 148.544C1001.47 148.693 1001.19 148.768 1000.83 148.768H989.69V147.072H1000.22L999.706 147.488C999.706 146.336 999.536 145.365 999.194 144.576C998.853 143.765 998.352 143.147 997.69 142.72C997.05 142.293 996.24 142.08 995.258 142.08C994.17 142.08 993.242 142.336 992.474 142.848C991.728 143.339 991.162 144.032 990.778 144.928C990.394 145.803 990.202 146.827 990.202 148V148.192C990.202 150.155 990.672 151.648 991.61 152.672C992.57 153.696 993.925 154.208 995.674 154.208C996.4 154.208 997.114 154.112 997.818 153.92C998.544 153.728 999.248 153.408 999.93 152.96C1000.23 152.768 1000.5 152.683 1000.73 152.704C1000.99 152.704 1001.19 152.779 1001.34 152.928C1001.49 153.056 1001.58 153.227 1001.63 153.44C1001.69 153.632 1001.67 153.845 1001.56 154.08C1001.48 154.315 1001.3 154.517 1001.02 154.688C1000.31 155.2 999.482 155.595 998.522 155.872C997.562 156.149 996.613 156.288 995.674 156.288ZM1013.57 156.288C1012.16 156.288 1010.95 155.925 1009.92 155.2C1008.92 154.475 1008.25 153.504 1007.91 152.288L1008.26 151.936V154.88C1008.26 155.307 1008.14 155.637 1007.91 155.872C1007.69 156.107 1007.38 156.224 1006.98 156.224C1006.55 156.224 1006.23 156.107 1006.02 155.872C1005.8 155.637 1005.7 155.307 1005.7 154.88V134.528C1005.7 134.101 1005.8 133.781 1006.02 133.568C1006.23 133.333 1006.55 133.216 1006.98 133.216C1007.38 133.216 1007.7 133.333 1007.94 133.568C1008.17 133.781 1008.29 134.101 1008.29 134.528V144.064H1007.91C1008.27 142.869 1008.95 141.92 1009.95 141.216C1010.96 140.512 1012.16 140.16 1013.57 140.16C1014.98 140.16 1016.19 140.491 1017.22 141.152C1018.24 141.792 1019.03 142.72 1019.59 143.936C1020.16 145.131 1020.45 146.56 1020.45 148.224C1020.45 149.867 1020.16 151.296 1019.59 152.512C1019.03 153.707 1018.23 154.635 1017.19 155.296C1016.16 155.957 1014.96 156.288 1013.57 156.288ZM1013.03 154.208C1014.01 154.208 1014.85 153.973 1015.55 153.504C1016.28 153.035 1016.83 152.352 1017.22 151.456C1017.62 150.56 1017.83 149.483 1017.83 148.224C1017.83 146.283 1017.39 144.8 1016.51 143.776C1015.66 142.752 1014.5 142.24 1013.03 142.24C1012.07 142.24 1011.22 142.475 1010.5 142.944C1009.77 143.392 1009.21 144.064 1008.8 144.96C1008.42 145.835 1008.23 146.923 1008.23 148.224C1008.23 150.144 1008.66 151.627 1009.54 152.672C1010.41 153.696 1011.57 154.208 1013.03 154.208ZM1031.07 156.32C1029.92 156.32 1028.73 156.171 1027.49 155.872C1026.25 155.573 1025.18 155.125 1024.26 154.528C1023.83 154.251 1023.54 153.931 1023.39 153.568C1023.24 153.205 1023.2 152.864 1023.27 152.544C1023.35 152.203 1023.51 151.915 1023.75 151.68C1024 151.445 1024.31 151.307 1024.67 151.264C1025.06 151.221 1025.47 151.317 1025.92 151.552C1026.8 152.021 1027.64 152.363 1028.45 152.576C1029.26 152.768 1030.09 152.864 1030.95 152.864C1031.88 152.864 1032.67 152.736 1033.31 152.48C1033.95 152.224 1034.43 151.84 1034.75 151.328C1035.1 150.816 1035.27 150.197 1035.27 149.472C1035.27 148.405 1034.9 147.616 1034.18 147.104C1033.47 146.571 1032.44 146.304 1031.07 146.304H1029.03C1028.43 146.304 1027.97 146.155 1027.65 145.856C1027.35 145.557 1027.2 145.141 1027.2 144.608C1027.2 144.075 1027.35 143.659 1027.65 143.36C1027.97 143.061 1028.43 142.912 1029.03 142.912H1030.69C1031.5 142.912 1032.19 142.784 1032.77 142.528C1033.35 142.251 1033.79 141.867 1034.11 141.376C1034.43 140.885 1034.59 140.288 1034.59 139.584C1034.59 138.603 1034.26 137.856 1033.6 137.344C1032.96 136.832 1032.02 136.576 1030.79 136.576C1030 136.576 1029.25 136.672 1028.55 136.864C1027.86 137.035 1027.11 137.365 1026.27 137.856C1025.89 138.091 1025.52 138.187 1025.15 138.144C1024.81 138.101 1024.52 137.963 1024.29 137.728C1024.06 137.493 1023.9 137.216 1023.81 136.896C1023.72 136.555 1023.75 136.213 1023.87 135.872C1024 135.509 1024.27 135.2 1024.67 134.944C1025.59 134.347 1026.6 133.899 1027.71 133.6C1028.82 133.28 1029.96 133.12 1031.14 133.12C1032.7 133.12 1034.03 133.365 1035.14 133.856C1036.25 134.325 1037.09 135.008 1037.67 135.904C1038.26 136.779 1038.56 137.845 1038.56 139.104C1038.56 140 1038.39 140.821 1038.05 141.568C1037.71 142.293 1037.23 142.912 1036.61 143.424C1035.99 143.936 1035.24 144.299 1034.37 144.512V144.128C1035.91 144.384 1037.1 145.024 1037.95 146.048C1038.81 147.051 1039.23 148.309 1039.23 149.824C1039.23 151.147 1038.9 152.299 1038.24 153.28C1037.58 154.261 1036.64 155.019 1035.43 155.552C1034.21 156.064 1032.76 156.32 1031.07 156.32Z" fill="black"/>
<g clip-path="url(#clip12_1_84)">
<rect x="933" y="334" width="110" height="110" rx="55" fill="#6E66FF"/>
<rect x="904.812" y="361.5" width="169.812" height="27.5" stroke="black" stroke-width="2"/>
<rect x="904.812" y="389" width="169.812" height="27.5" stroke="black" stroke-width="2"/>
<path d="M970.812 328.125C980.774 328.125 989.954 334.736 996.696 345.77C1003.43 356.785 1007.62 372.067 1007.62 389C1007.62 405.933 1003.43 421.215 996.696 432.23C989.954 443.264 980.774 449.875 970.812 449.875C960.851 449.875 951.671 443.264 944.929 432.23C938.197 421.215 934 405.933 934 389C934 372.067 938.197 356.785 944.929 345.77C951.671 334.736 960.851 328.125 970.812 328.125Z" stroke="black" stroke-width="2"/>
<path d="M1005.19 328.125C1015.15 328.125 1024.33 334.736 1031.07 345.77C1037.8 356.785 1042 372.067 1042 389C1042 405.933 1037.8 421.215 1031.07 432.23C1024.33 443.264 1015.15 449.875 1005.19 449.875C995.226 449.875 986.046 443.264 979.304 432.23C972.572 421.215 968.375 405.933 968.375 389C968.375 372.067 972.572 356.785 979.304 345.77C986.046 334.736 995.226 328.125 1005.19 328.125Z" stroke="black" stroke-width="2"/>
</g>
<rect x="934" y="335" width="108" height="108" rx="54" stroke="black" stroke-width="2"/>
<g clip-path="url(#clip13_1_84)">
<rect x="848" y="458" width="60" height="60" rx="30" fill="#6E66FF"/>
<rect x="832.625" y="473" width="92.625" height="15" stroke="black" stroke-width="2"/>
<rect x="832.625" y="488" width="92.625" height="15" stroke="black" stroke-width="2"/>
<path d="M868.625 455.25C873.84 455.25 878.723 458.713 882.355 464.656C885.977 470.583 888.25 478.834 888.25 488C888.25 497.166 885.977 505.417 882.355 511.344C878.723 517.287 873.84 520.75 868.625 520.75C863.41 520.75 858.527 517.287 854.895 511.344C851.273 505.417 849 497.166 849 488C849 478.834 851.273 470.583 854.895 464.656C858.527 458.713 863.41 455.25 868.625 455.25Z" stroke="black" stroke-width="2"/>
<path d="M887.375 455.25C892.59 455.25 897.473 458.713 901.105 464.656C904.727 470.583 907 478.834 907 488C907 497.166 904.727 505.417 901.105 511.344C897.473 517.287 892.59 520.75 887.375 520.75C882.16 520.75 877.277 517.287 873.645 511.344C870.023 505.417 867.75 497.166 867.75 488C867.75 478.834 870.023 470.583 873.645 464.656C877.277 458.713 882.16 455.25 887.375 455.25Z" stroke="black" stroke-width="2"/>
</g>
<rect x="849" y="459" width="58" height="58" rx="29" stroke="black" stroke-width="2"/>
<g clip-path="url(#clip14_1_84)">
<rect x="848" y="425" width="60" height="60" rx="30" fill="#F4DDFF"/>
<circle cx="878" cy="447.5" r="14" fill="white" stroke="black" stroke-width="2"/>
<circle cx="878" cy="486.5" r="21.5" fill="#50FFF6" stroke="black" stroke-width="2"/>
</g>
<rect x="849" y="426" width="58" height="58" rx="29" stroke="black" stroke-width="2"/>
<g clip-path="url(#clip15_1_84)">
<rect x="1068" y="458" width="60" height="60" rx="30" fill="#6E66FF"/>
<rect x="1052.62" y="473" width="92.625" height="15" stroke="black" stroke-width="2"/>
<rect x="1052.62" y="488" width="92.625" height="15" stroke="black" stroke-width="2"/>
<path d="M1088.62 455.25C1093.84 455.25 1098.72 458.713 1102.36 464.656C1105.98 470.583 1108.25 478.834 1108.25 488C1108.25 497.166 1105.98 505.417 1102.36 511.344C1098.72 517.287 1093.84 520.75 1088.62 520.75C1083.41 520.75 1078.53 517.287 1074.89 511.344C1071.27 505.417 1069 497.166 1069 488C1069 478.834 1071.27 470.583 1074.89 464.656C1078.53 458.713 1083.41 455.25 1088.62 455.25Z" stroke="black" stroke-width="2"/>
<path d="M1107.38 455.25C1112.59 455.25 1117.47 458.713 1121.11 464.656C1124.73 470.583 1127 478.834 1127 488C1127 497.166 1124.73 505.417 1121.11 511.344C1117.47 517.287 1112.59 520.75 1107.38 520.75C1102.16 520.75 1097.28 517.287 1093.64 511.344C1090.02 505.417 1087.75 497.166 1087.75 488C1087.75 478.834 1090.02 470.583 1093.64 464.656C1097.28 458.713 1102.16 455.25 1107.38 455.25Z" stroke="black" stroke-width="2"/>
</g>
<rect x="1069" y="459" width="58" height="58" rx="29" stroke="black" stroke-width="2"/>
<g clip-path="url(#clip16_1_84)">
<rect x="1068" y="425" width="60" height="60" rx="30" fill="#F4DDFF"/>
<circle cx="1098" cy="447.5" r="14" fill="white" stroke="black" stroke-width="2"/>
<circle cx="1098" cy="486.5" r="21.5" fill="#50FFF6" stroke="black" stroke-width="2"/>
</g>
<rect x="1069" y="426" width="58" height="58" rx="29" stroke="black" stroke-width="2"/>
<g clip-path="url(#clip17_1_84)">
<rect x="958" y="516" width="60" height="60" rx="30" fill="#6E66FF"/>
<rect x="942.625" y="531" width="92.625" height="15" stroke="black" stroke-width="2"/>
<rect x="942.625" y="546" width="92.625" height="15" stroke="black" stroke-width="2"/>
<path d="M978.625 513.25C983.84 513.25 988.723 516.713 992.355 522.656C995.977 528.583 998.25 536.834 998.25 546C998.25 555.166 995.977 563.417 992.355 569.344C988.723 575.287 983.84 578.75 978.625 578.75C973.41 578.75 968.527 575.287 964.895 569.344C961.273 563.417 959 555.166 959 546C959 536.834 961.273 528.583 964.895 522.656C968.527 516.713 973.41 513.25 978.625 513.25Z" stroke="black" stroke-width="2"/>
<path d="M997.375 513.25C1002.59 513.25 1007.47 516.713 1011.11 522.656C1014.73 528.583 1017 536.834 1017 546C1017 555.166 1014.73 563.417 1011.11 569.344C1007.47 575.287 1002.59 578.75 997.375 578.75C992.16 578.75 987.277 575.287 983.645 569.344C980.023 563.417 977.75 555.166 977.75 546C977.75 536.834 980.023 528.583 983.645 522.656C987.277 516.713 992.16 513.25 997.375 513.25Z" stroke="black" stroke-width="2"/>
</g>
<rect x="959" y="517" width="58" height="58" rx="29" stroke="black" stroke-width="2"/>
<g clip-path="url(#clip18_1_84)">
<rect x="958" y="483" width="60" height="60" rx="30" fill="#F4DDFF"/>
<circle cx="988" cy="505.5" r="14" fill="white" stroke="black" stroke-width="2"/>
<circle cx="988" cy="544.5" r="21.5" fill="#50FFF6" stroke="black" stroke-width="2"/>
</g>
<rect x="959" y="484" width="58" height="58" rx="29" stroke="black" stroke-width="2"/>
<g clip-path="url(#clip19_1_84)">
<rect x="848" y="265" width="60" height="60" rx="30" fill="#6E66FF"/>
<rect x="832.625" y="280" width="92.625" height="15" stroke="black" stroke-width="2"/>
<rect x="832.625" y="295" width="92.625" height="15" stroke="black" stroke-width="2"/>
<path d="M868.625 262.25C873.84 262.25 878.723 265.713 882.355 271.656C885.977 277.583 888.25 285.834 888.25 295C888.25 304.166 885.977 312.417 882.355 318.344C878.723 324.287 873.84 327.75 868.625 327.75C863.41 327.75 858.527 324.287 854.895 318.344C851.273 312.417 849 304.166 849 295C849 285.834 851.273 277.583 854.895 271.656C858.527 265.713 863.41 262.25 868.625 262.25Z" stroke="black" stroke-width="2"/>
<path d="M887.375 262.25C892.59 262.25 897.473 265.713 901.105 271.656C904.727 277.583 907 285.834 907 295C907 304.166 904.727 312.417 901.105 318.344C897.473 324.287 892.59 327.75 887.375 327.75C882.16 327.75 877.277 324.287 873.645 318.344C870.023 312.417 867.75 304.166 867.75 295C867.75 285.834 870.023 277.583 873.645 271.656C877.277 265.713 882.16 262.25 887.375 262.25Z" stroke="black" stroke-width="2"/>
</g>
<rect x="849" y="266" width="58" height="58" rx="29" stroke="black" stroke-width="2"/>
<g clip-path="url(#clip20_1_84)">
<rect x="848" y="298" width="60" height="60" rx="30" fill="#F4DDFF"/>
<circle cx="878" cy="320.5" r="14" fill="white" stroke="black" stroke-width="2"/>
<circle cx="878" cy="359.5" r="21.5" fill="#50FFF6" stroke="black" stroke-width="2"/>
</g>
<rect x="849" y="299" width="58" height="58" rx="29" stroke="black" stroke-width="2"/>
<g clip-path="url(#clip21_1_84)">
<rect x="1068" y="265" width="60" height="60" rx="30" fill="#6E66FF"/>
<rect x="1052.62" y="280" width="92.625" height="15" stroke="black" stroke-width="2"/>
<rect x="1052.62" y="295" width="92.625" height="15" stroke="black" stroke-width="2"/>
<path d="M1088.62 262.25C1093.84 262.25 1098.72 265.713 1102.36 271.656C1105.98 277.583 1108.25 285.834 1108.25 295C1108.25 304.166 1105.98 312.417 1102.36 318.344C1098.72 324.287 1093.84 327.75 1088.62 327.75C1083.41 327.75 1078.53 324.287 1074.89 318.344C1071.27 312.417 1069 304.166 1069 295C1069 285.834 1071.27 277.583 1074.89 271.656C1078.53 265.713 1083.41 262.25 1088.62 262.25Z" stroke="black" stroke-width="2"/>
<path d="M1107.38 262.25C1112.59 262.25 1117.47 265.713 1121.11 271.656C1124.73 277.583 1127 285.834 1127 295C1127 304.166 1124.73 312.417 1121.11 318.344C1117.47 324.287 1112.59 327.75 1107.38 327.75C1102.16 327.75 1097.28 324.287 1093.64 318.344C1090.02 312.417 1087.75 304.166 1087.75 295C1087.75 285.834 1090.02 277.583 1093.64 271.656C1097.28 265.713 1102.16 262.25 1107.38 262.25Z" stroke="black" stroke-width="2"/>
</g>
<rect x="1069" y="266" width="58" height="58" rx="29" stroke="black" stroke-width="2"/>
<g clip-path="url(#clip22_1_84)">
<rect x="1068" y="298" width="60" height="60" rx="30" fill="#F4DDFF"/>
<circle cx="1098" cy="320.5" r="14" fill="white" stroke="black" stroke-width="2"/>
<circle cx="1098" cy="359.5" r="21.5" fill="#50FFF6" stroke="black" stroke-width="2"/>
</g>
<rect x="1069" y="299" width="58" height="58" rx="29" stroke="black" stroke-width="2"/>
<g clip-path="url(#clip23_1_84)">
<rect x="958" y="203" width="60" height="60" rx="30" fill="#6E66FF"/>
<rect x="942.625" y="218" width="92.625" height="15" stroke="black" stroke-width="2"/>
<rect x="942.625" y="233" width="92.625" height="15" stroke="black" stroke-width="2"/>
<path d="M978.625 200.25C983.84 200.25 988.723 203.713 992.355 209.656C995.977 215.583 998.25 223.834 998.25 233C998.25 242.166 995.977 250.417 992.355 256.344C988.723 262.287 983.84 265.75 978.625 265.75C973.41 265.75 968.527 262.287 964.895 256.344C961.273 250.417 959 242.166 959 233C959 223.834 961.273 215.583 964.895 209.656C968.527 203.713 973.41 200.25 978.625 200.25Z" stroke="black" stroke-width="2"/>
<path d="M997.375 200.25C1002.59 200.25 1007.47 203.713 1011.11 209.656C1014.73 215.583 1017 223.834 1017 233C1017 242.166 1014.73 250.417 1011.11 256.344C1007.47 262.287 1002.59 265.75 997.375 265.75C992.16 265.75 987.277 262.287 983.645 256.344C980.023 250.417 977.75 242.166 977.75 233C977.75 223.834 980.023 215.583 983.645 209.656C987.277 203.713 992.16 200.25 997.375 200.25Z" stroke="black" stroke-width="2"/>
</g>
<rect x="959" y="204" width="58" height="58" rx="29" stroke="black" stroke-width="2"/>
<g clip-path="url(#clip24_1_84)">
<rect x="958" y="236" width="60" height="60" rx="30" fill="#F4DDFF"/>
<circle cx="988" cy="258.5" r="14" fill="white" stroke="black" stroke-width="2"/>
<circle cx="988" cy="297.5" r="21.5" fill="#50FFF6" stroke="black" stroke-width="2"/>
</g>
<rect x="959" y="237" width="58" height="58" rx="29" stroke="black" stroke-width="2"/>
<path d="M1045.79 415C1045.24 415 1044.79 415.448 1044.79 416L1044.79 425C1044.79 425.552 1045.24 426 1045.79 426C1046.34 426 1046.79 425.552 1046.79 425L1046.79 417L1054.79 417C1055.34 417 1055.79 416.552 1055.79 416C1055.79 415.448 1055.34 415 1054.79 415L1045.79 415ZM1064.58 435.788C1065.13 435.788 1065.58 435.34 1065.58 434.788L1065.58 425.788C1065.58 425.236 1065.13 424.788 1064.58 424.788C1064.02 424.788 1063.58 425.236 1063.58 425.788L1063.58 433.788L1055.58 433.788C1055.02 433.788 1054.58 434.236 1054.58 434.788C1054.58 435.34 1055.02 435.788 1055.58 435.788L1064.58 435.788ZM1045.79 416L1045.08 416.707L1063.87 435.495L1064.58 434.788L1065.28 434.081L1046.49 415.293L1045.79 416Z" fill="black"/>
<path d="M988.636 448.937C988.246 448.547 987.612 448.547 987.222 448.937L980.858 455.301C980.467 455.692 980.467 456.325 980.858 456.716C981.248 457.106 981.882 457.106 982.272 456.716L987.929 451.059L993.586 456.716C993.976 457.106 994.609 457.106 995 456.716C995.391 456.325 995.391 455.692 995 455.301L988.636 448.937ZM987.222 476.922C987.612 477.312 988.246 477.312 988.636 476.922L995 470.558C995.391 470.167 995.391 469.534 995 469.143C994.609 468.753 993.976 468.753 993.586 469.143L987.929 474.8L982.272 469.143C981.882 468.753 981.248 468.753 980.858 469.143C980.467 469.534 980.467 470.167 980.858 470.558L987.222 476.922ZM987.929 449.644H986.929V476.214H987.929H988.929V449.644H987.929Z" fill="black"/>
<path d="M930.788 416C930.788 415.448 930.34 415 929.788 415L920.788 415C920.236 415 919.788 415.448 919.788 416C919.788 416.552 920.236 417 920.788 417L928.788 417L928.788 425C928.788 425.552 929.236 426 929.788 426C930.34 426 930.788 425.552 930.788 425L930.788 416ZM910 434.788C910 435.34 910.448 435.788 911 435.788L920 435.788C920.552 435.788 921 435.34 921 434.788C921 434.236 920.552 433.788 920 433.788L912 433.788L912 425.788C912 425.236 911.552 424.788 911 424.788C910.448 424.788 910 425.236 910 425.788L910 434.788ZM929.788 416L929.081 415.293L910.293 434.081L911 434.788L911.707 435.495L930.495 416.707L929.788 416Z" fill="black"/>
<path d="M930.212 364.214C930.765 364.214 931.212 363.767 931.212 363.214L931.212 354.214C931.212 353.662 930.765 353.214 930.212 353.214C929.66 353.214 929.212 353.662 929.212 354.214L929.212 362.214L921.212 362.214C920.66 362.214 920.212 362.662 920.212 363.214C920.212 363.767 920.66 364.214 921.212 364.214L930.212 364.214ZM911.424 343.427C910.872 343.427 910.424 343.874 910.424 344.427L910.424 353.427C910.424 353.979 910.872 354.427 911.424 354.427C911.977 354.427 912.424 353.979 912.424 353.427L912.424 345.427L920.424 345.427C920.977 345.427 921.424 344.979 921.424 344.427C921.424 343.874 920.977 343.427 920.424 343.427L911.424 343.427ZM930.212 363.214L930.919 362.507L912.132 343.72L911.424 344.427L910.717 345.134L929.505 363.922L930.212 363.214Z" fill="black"/>
<path d="M987.364 330.277C987.754 330.668 988.388 330.668 988.778 330.277L995.142 323.913C995.533 323.523 995.533 322.889 995.142 322.499C994.752 322.108 994.118 322.108 993.728 322.499L988.071 328.156L982.414 322.499C982.024 322.108 981.391 322.108 981 322.499C980.609 322.889 980.609 323.523 981 323.913L987.364 330.277ZM988.778 302.293C988.388 301.902 987.754 301.902 987.364 302.293L981 308.657C980.609 309.047 980.609 309.681 981 310.071C981.391 310.462 982.024 310.462 982.414 310.071L988.071 304.414L993.728 310.071C994.118 310.462 994.752 310.462 995.142 310.071C995.533 309.681 995.533 309.047 995.142 308.657L988.778 302.293ZM988.071 329.57L989.071 329.57L989.071 303L988.071 303L987.071 303L987.071 329.57L988.071 329.57Z" fill="black"/>
<path d="M1045.21 363.214C1045.21 363.767 1045.66 364.214 1046.21 364.214L1055.21 364.214C1055.76 364.214 1056.21 363.767 1056.21 363.214C1056.21 362.662 1055.76 362.214 1055.21 362.214L1047.21 362.214L1047.21 354.214C1047.21 353.662 1046.76 353.214 1046.21 353.214C1045.66 353.214 1045.21 353.662 1045.21 354.214L1045.21 363.214ZM1066 344.427C1066 343.874 1065.55 343.427 1065 343.427L1056 343.427C1055.45 343.427 1055 343.874 1055 344.427C1055 344.979 1055.45 345.427 1056 345.427L1064 345.427L1064 353.427C1064 353.979 1064.45 354.427 1065 354.427C1065.55 354.427 1066 353.979 1066 353.427L1066 344.427ZM1046.21 363.214L1046.92 363.922L1065.71 345.134L1065 344.427L1064.29 343.72L1045.51 362.507L1046.21 363.214Z" fill="black"/>
<path d="M1098.71 361.293C1098.32 360.902 1097.68 360.902 1097.29 361.293L1090.93 367.657C1090.54 368.047 1090.54 368.681 1090.93 369.071C1091.32 369.462 1091.95 369.462 1092.34 369.071L1098 363.414L1103.66 369.071C1104.05 369.462 1104.68 369.462 1105.07 369.071C1105.46 368.681 1105.46 368.047 1105.07 367.657L1098.71 361.293ZM1097.29 416.707C1097.68 417.098 1098.32 417.098 1098.71 416.707L1105.07 410.343C1105.46 409.953 1105.46 409.319 1105.07 408.929C1104.68 408.538 1104.05 408.538 1103.66 408.929L1098 414.586L1092.34 408.929C1091.95 408.538 1091.32 408.538 1090.93 408.929C1090.54 409.319 1090.54 409.953 1090.93 410.343L1097.29 416.707ZM1098 362H1097V416H1098H1099V362H1098Z" fill="black"/>
<path d="M878.707 361.293C878.317 360.902 877.683 360.902 877.293 361.293L870.929 367.657C870.538 368.047 870.538 368.681 870.929 369.071C871.319 369.462 871.953 369.462 872.343 369.071L878 363.414L883.657 369.071C884.047 369.462 884.681 369.462 885.071 369.071C885.462 368.681 885.462 368.047 885.071 367.657L878.707 361.293ZM877.293 416.707C877.683 417.098 878.317 417.098 878.707 416.707L885.071 410.343C885.462 409.953 885.462 409.319 885.071 408.929C884.681 408.538 884.047 408.538 883.657 408.929L878 414.586L872.343 408.929C871.953 408.538 871.319 408.538 870.929 408.929C870.538 409.319 870.538 409.953 870.929 410.343L877.293 416.707ZM878 362H877V416H878H879V362H878Z" fill="black"/>
<path d="M952.322 498.175C952.865 498.079 953.229 497.561 953.133 497.017L951.57 488.154C951.474 487.61 950.955 487.247 950.411 487.342C949.868 487.438 949.504 487.957 949.6 488.501L950.989 496.379L943.111 497.769C942.567 497.864 942.204 498.383 942.3 498.927C942.396 499.471 942.914 499.834 943.458 499.738L952.322 498.175ZM913.826 469.494C913.282 469.59 912.919 470.109 913.015 470.653L914.578 479.516C914.674 480.06 915.193 480.423 915.736 480.327C916.28 480.231 916.644 479.713 916.548 479.169L915.158 471.29L923.037 469.901C923.581 469.805 923.944 469.286 923.848 468.743C923.752 468.199 923.233 467.835 922.69 467.931L913.826 469.494ZM952.148 497.19L952.721 496.371L914.574 469.66L914 470.479L913.426 471.298L951.574 498.01L952.148 497.19Z" fill="black"/>
<path d="M1023.07 495.682C1022.97 496.225 1023.33 496.744 1023.88 496.84L1032.74 498.403C1033.28 498.499 1033.8 498.136 1033.9 497.592C1033.99 497.048 1033.63 496.529 1033.09 496.433L1025.21 495.044L1026.6 487.166C1026.69 486.622 1026.33 486.103 1025.79 486.007C1025.24 485.911 1024.72 486.274 1024.63 486.818L1023.07 495.682ZM1063.18 469.317C1063.28 468.773 1062.92 468.255 1062.37 468.159L1053.51 466.596C1052.96 466.5 1052.45 466.863 1052.35 467.407C1052.25 467.951 1052.62 468.47 1053.16 468.566L1061.04 469.955L1059.65 477.833C1059.55 478.377 1059.92 478.896 1060.46 478.992C1061.01 479.088 1061.52 478.725 1061.62 478.181L1063.18 469.317ZM1024.05 495.855L1024.62 496.674L1062.77 469.963L1062.2 469.144L1061.62 468.325L1023.48 495.036L1024.05 495.855Z" fill="black"/>
<path d="M1023.68 280.015C1023.13 280.111 1022.77 280.63 1022.87 281.174L1024.43 290.037C1024.53 290.581 1025.04 290.944 1025.59 290.848C1026.13 290.752 1026.5 290.234 1026.4 289.69L1025.01 281.811L1032.89 280.422C1033.43 280.326 1033.8 279.807 1033.7 279.264C1033.6 278.72 1033.09 278.356 1032.54 278.452L1023.68 280.015ZM1062.17 308.696C1062.72 308.6 1063.08 308.082 1062.98 307.538L1061.42 298.675C1061.33 298.131 1060.81 297.767 1060.26 297.863C1059.72 297.959 1059.36 298.478 1059.45 299.022L1060.84 306.9L1052.96 308.289C1052.42 308.385 1052.06 308.904 1052.15 309.448C1052.25 309.992 1052.77 310.355 1053.31 310.259L1062.17 308.696ZM1023.85 281L1023.28 281.819L1061.43 308.531L1062 307.711L1062.57 306.892L1024.43 280.181L1023.85 281Z" fill="black"/>
<path d="M952.934 282.509C953.03 281.965 952.667 281.446 952.123 281.35L943.26 279.788C942.716 279.692 942.198 280.055 942.102 280.599C942.006 281.143 942.369 281.661 942.913 281.757L950.791 283.146L949.402 291.025C949.306 291.569 949.669 292.087 950.213 292.183C950.757 292.279 951.276 291.916 951.372 291.372L952.934 282.509ZM912.817 308.873C912.721 309.417 913.084 309.936 913.628 310.032L922.491 311.594C923.035 311.69 923.554 311.327 923.65 310.783C923.746 310.239 923.383 309.721 922.839 309.625L914.96 308.236L916.349 300.357C916.445 299.813 916.082 299.295 915.538 299.199C914.994 299.103 914.476 299.466 914.38 300.01L912.817 308.873ZM951.95 282.335L951.376 281.516L913.228 308.228L913.802 309.047L914.375 309.866L952.523 283.154L951.95 282.335Z" fill="black"/>
<defs>
<clipPath id="clip0_1_84">
<rect x="120" y="212" width="160" height="160" rx="80" fill="white"/>
</clipPath>
<clipPath id="clip1_1_84">
<rect x="110" y="482" width="60" height="60" rx="30" fill="white"/>
</clipPath>
<clipPath id="clip2_1_84">
<rect x="110" y="449" width="60" height="60" rx="30" fill="white"/>
</clipPath>
<clipPath id="clip3_1_84">
<rect x="230" y="482" width="60" height="60" rx="30" fill="white"/>
</clipPath>
<clipPath id="clip4_1_84">
<rect x="230" y="449" width="60" height="60" rx="30" fill="white"/>
</clipPath>
<clipPath id="clip5_1_84">
<rect x="539" y="336" width="110" height="110" rx="55" fill="white"/>
</clipPath>
<clipPath id="clip6_1_84">
<rect x="454" y="425" width="60" height="60" rx="30" fill="white"/>
</clipPath>
<clipPath id="clip7_1_84">
<rect x="674" y="425" width="60" height="60" rx="30" fill="white"/>
</clipPath>
<clipPath id="clip8_1_84">
<rect x="564" y="479" width="60" height="60" rx="30" fill="white"/>
</clipPath>
<clipPath id="clip9_1_84">
<rect x="454" y="298" width="60" height="60" rx="30" fill="white"/>
</clipPath>
<clipPath id="clip10_1_84">
<rect x="674" y="298" width="60" height="60" rx="30" fill="white"/>
</clipPath>
<clipPath id="clip11_1_84">
<rect x="564" y="232" width="60" height="60" rx="30" fill="white"/>
</clipPath>
<clipPath id="clip12_1_84">
<rect x="933" y="334" width="110" height="110" rx="55" fill="white"/>
</clipPath>
<clipPath id="clip13_1_84">
<rect x="848" y="458" width="60" height="60" rx="30" fill="white"/>
</clipPath>
<clipPath id="clip14_1_84">
<rect x="848" y="425" width="60" height="60" rx="30" fill="white"/>
</clipPath>
<clipPath id="clip15_1_84">
<rect x="1068" y="458" width="60" height="60" rx="30" fill="white"/>
</clipPath>
<clipPath id="clip16_1_84">
<rect x="1068" y="425" width="60" height="60" rx="30" fill="white"/>
</clipPath>
<clipPath id="clip17_1_84">
<rect x="958" y="516" width="60" height="60" rx="30" fill="white"/>
</clipPath>
<clipPath id="clip18_1_84">
<rect x="958" y="483" width="60" height="60" rx="30" fill="white"/>
</clipPath>
<clipPath id="clip19_1_84">
<rect x="848" y="265" width="60" height="60" rx="30" fill="white"/>
</clipPath>
<clipPath id="clip20_1_84">
<rect x="848" y="298" width="60" height="60" rx="30" fill="white"/>
</clipPath>
<clipPath id="clip21_1_84">
<rect x="1068" y="265" width="60" height="60" rx="30" fill="white"/>
</clipPath>
<clipPath id="clip22_1_84">
<rect x="1068" y="298" width="60" height="60" rx="30" fill="white"/>
</clipPath>
<clipPath id="clip23_1_84">
<rect x="958" y="203" width="60" height="60" rx="30" fill="white"/>
</clipPath>
<clipPath id="clip24_1_84">
<rect x="958" y="236" width="60" height="60" rx="30" fill="white"/>
</clipPath>
</defs>
</svg>
