<svg width="220" height="220" viewBox="0 0 220 220" fill="none" xmlns="http://www.w3.org/2000/svg">
<path d="M220 110C220 170.751 170.751 220 110 220C49.2487 220 0 170.751 0 110C0 49.2487 49.2487 0 110 0C170.751 0 220 49.2487 220 110Z" fill="#00BCFF"/>
<path d="M104 104V164H74C57.4315 164 44 150.569 44 134C44 117.431 57.4315 104 74 104H104ZM56 134C56 143.941 64.0589 152 74 152H92V116H74C64.0589 116 56 124.059 56 134Z" fill="white"/>
<path d="M164 86C164 76.0589 155.941 68 146 68H128V104H146C155.941 104 164 95.9411 164 86ZM176 86C176 102.569 162.569 116 146 116H116V56H146C162.569 56 176 69.4315 176 86Z" fill="white"/>
<path d="M116 110C116 106.686 118.686 104 122 104C125.314 104 128 106.686 128 110V152H146C155.941 152 164 143.941 164 134C164 130.686 166.686 128 170 128C173.314 128 176 130.686 176 134C176 150.569 162.569 164 146 164H116V110Z" fill="white"/>
<path d="M104 110C104 113.314 101.314 116 98 116C94.6863 116 92 113.314 92 110L92 68L74 68C64.0589 68 56 76.0589 56 86C56 89.3137 53.3137 92 50 92C46.6863 92 44 89.3137 44 86C44 69.4315 57.4315 56 74 56L104 56L104 110Z" fill="white"/>
<path d="M128 170C128 173.314 125.314 176 122 176C118.686 176 116 173.314 116 170L116 50C116 46.6863 118.686 44 122 44C125.314 44 128 46.6863 128 50L128 170Z" fill="white"/>
<path d="M104 170C104 173.314 101.314 176 98 176C94.6863 176 92 173.314 92 170L92 50C92 46.6863 94.6863 44 98 44C101.314 44 104 46.6863 104 50L104 170Z" fill="white"/>
</svg>
