<svg width="818" height="220" viewBox="0 0 818 220" fill="none" xmlns="http://www.w3.org/2000/svg">
<path d="M220 110C220 170.751 170.751 220 110 220C49.2487 220 0 170.751 0 110C0 49.2487 49.2487 0 110 0C170.751 0 220 49.2487 220 110Z" fill="#00BFFF"/>
<rect width="220" height="220" rx="50" fill="#00BFFF"/>
<path d="M104 104V164H74C57.4315 164 44 150.569 44 134C44 117.431 57.4315 104 74 104H104ZM56 134C56 143.941 64.0589 152 74 152H92V116H74C64.0589 116 56 124.059 56 134Z" fill="white"/>
<path d="M164 86C164 76.0589 155.941 68 146 68H128V104H146C155.941 104 164 95.9411 164 86ZM176 86C176 102.569 162.569 116 146 116H116V56H146C162.569 56 176 69.4315 176 86Z" fill="white"/>
<path d="M116 110C116 106.686 118.686 104 122 104C125.314 104 128 106.686 128 110V152H146C155.941 152 164 143.941 164 134C164 130.686 166.686 128 170 128C173.314 128 176 130.686 176 134C176 150.569 162.569 164 146 164H116V110Z" fill="white"/>
<path d="M104 110C104 113.314 101.314 116 98 116C94.6863 116 92 113.314 92 110L92 68L74 68C64.0589 68 56 76.0589 56 86C56 89.3137 53.3137 92 50 92C46.6863 92 44 89.3137 44 86C44 69.4315 57.4315 56 74 56L104 56L104 110Z" fill="white"/>
<path d="M128 170C128 173.314 125.314 176 122 176C118.686 176 116 173.314 116 170L116 50C116 46.6863 118.686 44 122 44C125.314 44 128 46.6863 128 50L128 170Z" fill="white"/>
<path d="M104 170C104 173.314 101.314 176 98 176C94.6863 176 92 173.314 92 170L92 50C92 46.6863 94.6863 44 98 44C101.314 44 104 46.6863 104 50L104 170Z" fill="white"/>
<path d="M286.091 156.5H271.182L304.682 63.4091H320.909L354.409 156.5H339.5L313.182 80.3182H312.455L286.091 156.5ZM288.591 120.045H336.955V131.864H288.591V120.045ZM367.386 156.5V86.6818H380.977V156.5H367.386ZM374.25 75.9091C371.886 75.9091 369.856 75.1212 368.159 73.5454C366.492 71.9394 365.659 70.0303 365.659 67.8182C365.659 65.5758 366.492 63.6667 368.159 62.0909C369.856 60.4848 371.886 59.6818 374.25 59.6818C376.614 59.6818 378.629 60.4848 380.295 62.0909C381.992 63.6667 382.841 65.5758 382.841 67.8182C382.841 70.0303 381.992 71.9394 380.295 73.5454C378.629 75.1212 376.614 75.9091 374.25 75.9091ZM399.261 156.5V86.6818H412.398V97.7727H413.125C414.398 94.0151 416.64 91.0606 419.852 88.9091C423.095 86.7273 426.761 85.6364 430.852 85.6364C431.701 85.6364 432.701 85.6667 433.852 85.7273C435.034 85.7879 435.958 85.8636 436.625 85.9545V98.9545C436.08 98.803 435.11 98.6364 433.716 98.4545C432.322 98.2424 430.928 98.1364 429.534 98.1364C426.322 98.1364 423.458 98.8182 420.943 100.182C418.458 101.515 416.489 103.379 415.034 105.773C413.58 108.136 412.852 110.833 412.852 113.864V156.5H399.261ZM449.477 156.5V63.4091H483.568C490.174 63.4091 495.644 64.5 499.977 66.6818C504.311 68.8333 507.553 71.7576 509.705 75.4545C511.856 79.1212 512.932 83.2576 512.932 87.8636C512.932 91.7424 512.22 95.0151 510.795 97.6818C509.371 100.318 507.462 102.439 505.068 104.045C502.705 105.621 500.098 106.773 497.25 107.5V108.409C500.341 108.561 503.356 109.561 506.295 111.409C509.265 113.227 511.72 115.818 513.659 119.182C515.598 122.545 516.568 126.636 516.568 131.455C516.568 136.212 515.447 140.485 513.205 144.273C510.992 148.03 507.568 151.015 502.932 153.227C498.295 155.409 492.371 156.5 485.159 156.5H449.477ZM463.523 144.455H483.795C490.523 144.455 495.341 143.152 498.25 140.545C501.159 137.939 502.614 134.682 502.614 130.773C502.614 127.833 501.871 125.136 500.386 122.682C498.902 120.227 496.78 118.273 494.023 116.818C491.295 115.364 488.053 114.636 484.295 114.636H463.523V144.455ZM463.523 103.682H482.341C485.492 103.682 488.326 103.076 490.841 101.864C493.386 100.652 495.402 98.9545 496.886 96.7727C498.402 94.5606 499.159 91.9545 499.159 88.9545C499.159 85.1061 497.811 81.8788 495.114 79.2727C492.417 76.6667 488.28 75.3636 482.705 75.3636H463.523V103.682ZM561.545 157.909C555 157.909 549.288 156.409 544.409 153.409C539.53 150.409 535.742 146.212 533.045 140.818C530.348 135.424 529 129.121 529 121.909C529 114.667 530.348 108.333 533.045 102.909C535.742 97.4848 539.53 93.2727 544.409 90.2727C549.288 87.2727 555 85.7727 561.545 85.7727C568.091 85.7727 573.803 87.2727 578.682 90.2727C583.561 93.2727 587.348 97.4848 590.045 102.909C592.742 108.333 594.091 114.667 594.091 121.909C594.091 129.121 592.742 135.424 590.045 140.818C587.348 146.212 583.561 150.409 578.682 153.409C573.803 156.409 568.091 157.909 561.545 157.909ZM561.591 146.5C565.833 146.5 569.348 145.379 572.136 143.136C574.924 140.894 576.985 137.909 578.318 134.182C579.682 130.455 580.364 126.348 580.364 121.864C580.364 117.409 579.682 113.318 578.318 109.591C576.985 105.833 574.924 102.818 572.136 100.545C569.348 98.2727 565.833 97.1364 561.591 97.1364C557.318 97.1364 553.773 98.2727 550.955 100.545C548.167 102.818 546.091 105.833 544.727 109.591C543.394 113.318 542.727 117.409 542.727 121.864C542.727 126.348 543.394 130.455 544.727 134.182C546.091 137.909 548.167 140.894 550.955 143.136C553.773 145.379 557.318 146.5 561.591 146.5ZM638.67 157.909C632.125 157.909 626.413 156.409 621.534 153.409C616.655 150.409 612.867 146.212 610.17 140.818C607.473 135.424 606.125 129.121 606.125 121.909C606.125 114.667 607.473 108.333 610.17 102.909C612.867 97.4848 616.655 93.2727 621.534 90.2727C626.413 87.2727 632.125 85.7727 638.67 85.7727C645.216 85.7727 650.928 87.2727 655.807 90.2727C660.686 93.2727 664.473 97.4848 667.17 102.909C669.867 108.333 671.216 114.667 671.216 121.909C671.216 129.121 669.867 135.424 667.17 140.818C664.473 146.212 660.686 150.409 655.807 153.409C650.928 156.409 645.216 157.909 638.67 157.909ZM638.716 146.5C642.958 146.5 646.473 145.379 649.261 143.136C652.049 140.894 654.11 137.909 655.443 134.182C656.807 130.455 657.489 126.348 657.489 121.864C657.489 117.409 656.807 113.318 655.443 109.591C654.11 105.833 652.049 102.818 649.261 100.545C646.473 98.2727 642.958 97.1364 638.716 97.1364C634.443 97.1364 630.898 98.2727 628.08 100.545C625.292 102.818 623.216 105.833 621.852 109.591C620.519 113.318 619.852 117.409 619.852 121.864C619.852 126.348 620.519 130.455 621.852 134.182C623.216 137.909 625.292 140.894 628.08 143.136C630.898 145.379 634.443 146.5 638.716 146.5ZM698.886 132.818L698.795 116.227H701.159L728.977 86.6818H745.25L713.523 120.318H711.386L698.886 132.818ZM686.386 156.5V63.4091H699.977V156.5H686.386ZM730.477 156.5L705.477 123.318L714.841 113.818L747.159 156.5H730.477ZM809.955 103.727L797.636 105.909C797.121 104.333 796.303 102.833 795.182 101.409C794.091 99.9848 792.606 98.8182 790.727 97.9091C788.848 97 786.5 96.5455 783.682 96.5455C779.833 96.5455 776.621 97.4091 774.045 99.1364C771.47 100.833 770.182 103.03 770.182 105.727C770.182 108.061 771.045 109.939 772.773 111.364C774.5 112.788 777.288 113.955 781.136 114.864L792.227 117.409C798.652 118.894 803.439 121.182 806.591 124.273C809.742 127.364 811.318 131.379 811.318 136.318C811.318 140.5 810.106 144.227 807.682 147.5C805.288 150.742 801.939 153.288 797.636 155.136C793.364 156.985 788.409 157.909 782.773 157.909C774.955 157.909 768.576 156.242 763.636 152.909C758.697 149.545 755.667 144.773 754.545 138.591L767.682 136.591C768.5 140.015 770.182 142.606 772.727 144.364C775.273 146.091 778.591 146.955 782.682 146.955C787.136 146.955 790.697 146.03 793.364 144.182C796.03 142.303 797.364 140.015 797.364 137.318C797.364 135.136 796.545 133.303 794.909 131.818C793.303 130.333 790.833 129.212 787.5 128.455L775.682 125.864C769.167 124.379 764.348 122.015 761.227 118.773C758.136 115.53 756.591 111.424 756.591 106.455C756.591 102.333 757.742 98.7273 760.045 95.6364C762.348 92.5455 765.53 90.1364 769.591 88.4091C773.652 86.6515 778.303 85.7727 783.545 85.7727C791.091 85.7727 797.03 87.4091 801.364 90.6818C805.697 93.9242 808.561 98.2727 809.955 103.727Z" fill="white"/>
</svg>
