<svg width="814" height="220" viewBox="0 0 814 220" fill="none" xmlns="http://www.w3.org/2000/svg">
<path d="M220 110C220 170.751 170.751 220 110 220C49.2487 220 0 170.751 0 110C0 49.2487 49.2487 0 110 0C170.751 0 220 49.2487 220 110Z" fill="#00BCFF"/>
<path d="M104 104V164H74C57.4315 164 44 150.569 44 134C44 117.431 57.4315 104 74 104H104ZM56 134C56 143.941 64.0589 152 74 152H92V116H74C64.0589 116 56 124.059 56 134Z" fill="white"/>
<path d="M164 86C164 76.0589 155.941 68 146 68H128V104H146C155.941 104 164 95.9411 164 86ZM176 86C176 102.569 162.569 116 146 116H116V56H146C162.569 56 176 69.4315 176 86Z" fill="white"/>
<path d="M116 110C116 106.686 118.686 104 122 104C125.314 104 128 106.686 128 110V152H146C155.941 152 164 143.941 164 134C164 130.686 166.686 128 170 128C173.314 128 176 130.686 176 134C176 150.569 162.569 164 146 164H116V110Z" fill="white"/>
<path d="M104 110C104 113.314 101.314 116 98 116C94.6863 116 92 113.314 92 110L92 68L74 68C64.0589 68 56 76.0589 56 86C56 89.3137 53.3137 92 50 92C46.6863 92 44 89.3137 44 86C44 69.4315 57.4315 56 74 56L104 56L104 110Z" fill="white"/>
<path d="M128 170C128 173.314 125.314 176 122 176C118.686 176 116 173.314 116 170L116 50C116 46.6863 118.686 44 122 44C125.314 44 128 46.6863 128 50L128 170Z" fill="white"/>
<path d="M104 170C104 173.314 101.314 176 98 176C94.6863 176 92 173.314 92 170L92 50C92 46.6863 94.6863 44 98 44C101.314 44 104 46.6863 104 50L104 170Z" fill="white"/>
<path d="M286.091 156.5H271.182L304.682 63.4091H320.909L354.409 156.5H339.5L313.182 80.3182H312.455L286.091 156.5ZM288.591 120.045H336.955V131.864H288.591V120.045ZM367.386 156.5V86.6818H380.977V156.5H367.386ZM374.25 75.9091C371.886 75.9091 369.856 75.1212 368.159 73.5454C366.492 71.9394 365.659 70.0303 365.659 67.8182C365.659 65.5758 366.492 63.6667 368.159 62.0909C369.856 60.4848 371.886 59.6818 374.25 59.6818C376.614 59.6818 378.629 60.4848 380.295 62.0909C381.992 63.6667 382.841 65.5758 382.841 67.8182C382.841 70.0303 381.992 71.9394 380.295 73.5454C378.629 75.1212 376.614 75.9091 374.25 75.9091ZM399.261 156.5V86.6818H412.398V97.7727H413.125C414.398 94.0151 416.64 91.0606 419.852 88.9091C423.095 86.7273 426.761 85.6364 430.852 85.6364C431.701 85.6364 432.701 85.6667 433.852 85.7273C435.034 85.7879 435.958 85.8636 436.625 85.9545V98.9545C436.08 98.803 435.11 98.6364 433.716 98.4545C432.322 98.2424 430.928 98.1364 429.534 98.1364C426.322 98.1364 423.458 98.8182 420.943 100.182C418.458 101.515 416.489 103.379 415.034 105.773C413.58 108.136 412.852 110.833 412.852 113.864V156.5H399.261ZM449.477 156.5V63.4091H463.068V98H463.886C464.674 96.5455 465.811 94.8636 467.295 92.9545C468.78 91.0455 470.841 89.3788 473.477 87.9545C476.114 86.5 479.598 85.7727 483.932 85.7727C489.568 85.7727 494.598 87.197 499.023 90.0455C503.447 92.8939 506.917 97 509.432 102.364C511.977 107.727 513.25 114.182 513.25 121.727C513.25 129.273 511.992 135.742 509.477 141.136C506.962 146.5 503.508 150.636 499.114 153.545C494.72 156.424 489.705 157.864 484.068 157.864C479.826 157.864 476.356 157.152 473.659 155.727C470.992 154.303 468.902 152.636 467.386 150.727C465.871 148.818 464.705 147.121 463.886 145.636H462.75V156.5H449.477ZM462.795 121.591C462.795 126.5 463.508 130.803 464.932 134.5C466.356 138.197 468.417 141.091 471.114 143.182C473.811 145.242 477.114 146.273 481.023 146.273C485.083 146.273 488.477 145.197 491.205 143.045C493.932 140.864 495.992 137.909 497.386 134.182C498.811 130.455 499.523 126.258 499.523 121.591C499.523 116.985 498.826 112.848 497.432 109.182C496.068 105.515 494.008 102.621 491.25 100.5C488.523 98.3788 485.114 97.3182 481.023 97.3182C477.083 97.3182 473.75 98.3333 471.023 100.364C468.326 102.394 466.28 105.227 464.886 108.864C463.492 112.5 462.795 116.742 462.795 121.591ZM557.92 157.909C551.375 157.909 545.663 156.409 540.784 153.409C535.905 150.409 532.117 146.212 529.42 140.818C526.723 135.424 525.375 129.121 525.375 121.909C525.375 114.667 526.723 108.333 529.42 102.909C532.117 97.4848 535.905 93.2727 540.784 90.2727C545.663 87.2727 551.375 85.7727 557.92 85.7727C564.466 85.7727 570.178 87.2727 575.057 90.2727C579.936 93.2727 583.723 97.4848 586.42 102.909C589.117 108.333 590.466 114.667 590.466 121.909C590.466 129.121 589.117 135.424 586.42 140.818C583.723 146.212 579.936 150.409 575.057 153.409C570.178 156.409 564.466 157.909 557.92 157.909ZM557.966 146.5C562.208 146.5 565.723 145.379 568.511 143.136C571.299 140.894 573.36 137.909 574.693 134.182C576.057 130.455 576.739 126.348 576.739 121.864C576.739 117.409 576.057 113.318 574.693 109.591C573.36 105.833 571.299 102.818 568.511 100.545C565.723 98.2727 562.208 97.1364 557.966 97.1364C553.693 97.1364 550.148 98.2727 547.33 100.545C544.542 102.818 542.466 105.833 541.102 109.591C539.769 113.318 539.102 117.409 539.102 121.864C539.102 126.348 539.769 130.455 541.102 134.182C542.466 137.909 544.542 140.894 547.33 143.136C550.148 145.379 553.693 146.5 557.966 146.5ZM635.045 157.909C628.5 157.909 622.788 156.409 617.909 153.409C613.03 150.409 609.242 146.212 606.545 140.818C603.848 135.424 602.5 129.121 602.5 121.909C602.5 114.667 603.848 108.333 606.545 102.909C609.242 97.4848 613.03 93.2727 617.909 90.2727C622.788 87.2727 628.5 85.7727 635.045 85.7727C641.591 85.7727 647.303 87.2727 652.182 90.2727C657.061 93.2727 660.848 97.4848 663.545 102.909C666.242 108.333 667.591 114.667 667.591 121.909C667.591 129.121 666.242 135.424 663.545 140.818C660.848 146.212 657.061 150.409 652.182 153.409C647.303 156.409 641.591 157.909 635.045 157.909ZM635.091 146.5C639.333 146.5 642.848 145.379 645.636 143.136C648.424 140.894 650.485 137.909 651.818 134.182C653.182 130.455 653.864 126.348 653.864 121.864C653.864 117.409 653.182 113.318 651.818 109.591C650.485 105.833 648.424 102.818 645.636 100.545C642.848 98.2727 639.333 97.1364 635.091 97.1364C630.818 97.1364 627.273 98.2727 624.455 100.545C621.667 102.818 619.591 105.833 618.227 109.591C616.894 113.318 616.227 117.409 616.227 121.864C616.227 126.348 616.894 130.455 618.227 134.182C619.591 137.909 621.667 140.894 624.455 143.136C627.273 145.379 630.818 146.5 635.091 146.5ZM695.261 132.818L695.17 116.227H697.534L725.352 86.6818H741.625L709.898 120.318H707.761L695.261 132.818ZM682.761 156.5V63.4091H696.352V156.5H682.761ZM726.852 156.5L701.852 123.318L711.216 113.818L743.534 156.5H726.852ZM806.33 103.727L794.011 105.909C793.496 104.333 792.678 102.833 791.557 101.409C790.466 99.9848 788.981 98.8182 787.102 97.9091C785.223 97 782.875 96.5455 780.057 96.5455C776.208 96.5455 772.996 97.4091 770.42 99.1364C767.845 100.833 766.557 103.03 766.557 105.727C766.557 108.061 767.42 109.939 769.148 111.364C770.875 112.788 773.663 113.955 777.511 114.864L788.602 117.409C795.027 118.894 799.814 121.182 802.966 124.273C806.117 127.364 807.693 131.379 807.693 136.318C807.693 140.5 806.481 144.227 804.057 147.5C801.663 150.742 798.314 153.288 794.011 155.136C789.739 156.985 784.784 157.909 779.148 157.909C771.33 157.909 764.951 156.242 760.011 152.909C755.072 149.545 752.042 144.773 750.92 138.591L764.057 136.591C764.875 140.015 766.557 142.606 769.102 144.364C771.648 146.091 774.966 146.955 779.057 146.955C783.511 146.955 787.072 146.03 789.739 144.182C792.405 142.303 793.739 140.015 793.739 137.318C793.739 135.136 792.92 133.303 791.284 131.818C789.678 130.333 787.208 129.212 783.875 128.455L772.057 125.864C765.542 124.379 760.723 122.015 757.602 118.773C754.511 115.53 752.966 111.424 752.966 106.455C752.966 102.333 754.117 98.7273 756.42 95.6364C758.723 92.5455 761.905 90.1364 765.966 88.4091C770.027 86.6515 774.678 85.7727 779.92 85.7727C787.466 85.7727 793.405 87.4091 797.739 90.6818C802.072 93.9242 804.936 98.2727 806.33 103.727Z" fill="white"/>
</svg>
